Ayanna-latin-1.ufo
<glyph name="numbersign" format="1">
  <advance width="654"/>
  <unicode hex="0023"/>
  <outline>
    <contour>
      <point x="257" y="675" type="line"/>
      <point x="61" y="0" type="line"/>
      <point x="170" y="0" type="line"/>
      <point x="365" y="675" type="line"/>
    </contour>
    <contour>
      <point x="478" y="675" type="line"/>
      <point x="283" y="0" type="line"/>
      <point x="392" y="0" type="line"/>
      <point x="586" y="675" type="line"/>
    </contour>
    <contour>
      <point x="87" y="512" type="line"/>
      <point x="87" y="421" type="line"/>
      <point x="634" y="421" type="line"/>
      <point x="634" y="512" type="line"/>
    </contour>
    <contour>
      <point x="20" y="271" type="line"/>
      <point x="20" y="180" type="line"/>
      <point x="566" y="181" type="line"/>
      <point x="566" y="271" type="line"/>
    </contour>
  </outline>
</glyph>
<glyph name="percent" format="1">
  <advance width="910"/>
  <unicode hex="0025"/>
  <outline>
    <contour>
      <point x="280" y="457"/>
      <point x="248" y="417"/>
      <point x="205" y="417" type="curve" smooth="yes"/>
      <point x="161" y="417"/>
      <point x="130" y="457"/>
      <point x="130" y="538" type="curve" smooth="yes"/>
      <point x="130" y="608"/>
      <point x="156" y="655"/>
      <point x="206" y="655" type="curve" smooth="yes"/>
      <point x="256" y="655"/>
      <point x="280" y="607"/>
      <point x="280" y="536" type="curve" smooth="yes"/>
    </contour>
    <contour>
      <point x="390" y="662"/>
      <point x="328" y="740"/>
      <point x="209" y="740" type="curve" smooth="yes"/>
      <point x="90" y="740"/>
      <point x="20" y="659"/>
      <point x="20" y="536" type="curve" smooth="yes"/>
      <point x="20" y="413"/>
      <point x="83" y="333"/>
      <point x="204" y="333" type="curve" smooth="yes"/>
      <point x="322" y="333"/>
      <point x="390" y="419"/>
      <point x="390" y="539" type="curve" smooth="yes"/>
    </contour>
    <contour>
      <point x="780" y="109"/>
      <point x="748" y="69"/>
      <point x="705" y="69" type="curve" smooth="yes"/>
      <point x="661" y="69"/>
      <point x="630" y="109"/>
      <point x="630" y="190" type="curve" smooth="yes"/>
      <point x="630" y="260"/>
      <point x="656" y="307"/>
      <point x="706" y="307" type="curve" smooth="yes"/>
      <point x="756" y="307"/>
      <point x="780" y="259"/>
      <point x="780" y="188" type="curve" smooth="yes"/>
    </contour>
    <contour>
      <point x="890" y="314"/>
      <point x="828" y="392"/>
      <point x="709" y="392" type="curve" smooth="yes"/>
      <point x="590" y="392"/>
      <point x="520" y="311"/>
      <point x="520" y="188" type="curve" smooth="yes"/>
      <point x="520" y="65"/>
      <point x="583" y="-15"/>
      <point x="704" y="-15" type="curve" smooth="yes"/>
      <point x="822" y="-15"/>
      <point x="890" y="71"/>
      <point x="890" y="191" type="curve" smooth="yes"/>
    </contour>
    <component base="fraction" xOffset="165"/>
  </outline>
</glyph>
<glyph name="ampersand" format="1">
  <advance width="669"/>
  <unicode hex="0026"/>
  <outline>
    <contour>
      <point x="475" y="-13"/>
      <point x="603" y="120"/>
      <point x="603" y="371" type="curve"/>
      <point x="475" y="371" type="line"/>
      <point x="475" y="171"/>
      <point x="398" y="86"/>
      <point x="283" y="85" type="curve" smooth="yes"/>
      <point x="211" y="86"/>
      <point x="162" y="125"/>
      <point x="162" y="199" type="curve" smooth="yes"/>
      <point x="162" y="325"/>
      <point x="451" y="417"/>
      <point x="451" y="593" type="curve" smooth="yes"/>
      <point x="451" y="691"/>
      <point x="366" y="740"/>
      <point x="270" y="740" type="curve" smooth="yes"/>
      <point x="171" y="740"/>
      <point x="82" y="689"/>
      <point x="82" y="590" type="curve" smooth="yes"/>
      <point x="82" y="429"/>
      <point x="288" y="252"/>
      <point x="556" y="-8" type="curve"/>
      <point x="639" y="77" type="line"/>
      <point x="385" y="320"/>
      <point x="213" y="502"/>
      <point x="213" y="592" type="curve" smooth="yes"/>
      <point x="213" y="627"/>
      <point x="236" y="646"/>
      <point x="269" y="646" type="curve" smooth="yes"/>
      <point x="299" y="646"/>
      <point x="319" y="629"/>
      <point x="319" y="593" type="curve" smooth="yes"/>
      <point x="319" y="445"/>
      <point x="30" y="366"/>
      <point x="30" y="196" type="curve" smooth="yes"/>
      <point x="30" y="71"/>
      <point x="132" y="-15"/>
      <point x="281" y="-15" type="curve" smooth="yes"/>
    </contour>
  </outline>
</glyph>
<glyph name="quotesingle" format="1">
  <advance width="173"/>
  <unicode hex="0027"/>
  <outline>
    <contour>
      <point x="148" y="740" type="line"/>
      <point x="25" y="740" type="line"/>
      <point x="43" y="485" type="line"/>
      <point x="130" y="485" type="line"/>
    </contour>
  </outline>
</glyph>
<glyph name="asterisk" format="1">
  <advance width="359"/>
  <unicode hex="002A"/>
  <outline>
    <contour>
      <point x="198" y="601" type="line"/>
      <point x="218" y="673" type="line" smooth="yes"/>
      <point x="233" y="728"/>
      <point x="186" y="751"/>
      <point x="130" y="718" type="curve"/>
      <point x="161" y="601" type="line"/>
    </contour>
    <contour>
      <point x="156" y="597" type="line"/>
      <point x="94" y="639" type="line" smooth="yes"/>
      <point x="47" y="672"/>
      <point x="10" y="633"/>
      <point x="24" y="570" type="curve"/>
      <point x="145" y="564" type="line"/>
    </contour>
    <contour>
      <point x="147" y="557" type="line"/>
      <point x="87" y="511" type="line" smooth="yes"/>
      <point x="42" y="476"/>
      <point x="67" y="429"/>
      <point x="132" y="423" type="curve"/>
      <point x="175" y="536" type="line"/>
    </contour>
    <contour>
      <point x="182" y="535" type="line"/>
      <point x="208" y="464" type="line" smooth="yes"/>
      <point x="226" y="410"/>
      <point x="279" y="420"/>
      <point x="305" y="479" type="curve"/>
      <point x="210" y="555" type="line"/>
    </contour>
    <contour>
      <point x="212" y="562" type="line"/>
      <point x="288" y="564" type="line" smooth="yes"/>
      <point x="345" y="565"/>
      <point x="352" y="618"/>
      <point x="304" y="661" type="curve"/>
      <point x="202" y="595" type="line"/>
    </contour>
  </outline>
</glyph>
<glyph name="plus" format="1">
  <advance width="494"/>
  <unicode hex="002B"/>
  <outline>
    <contour>
      <point x="310" y="55" type="line"/>
      <point x="310" y="471" type="line"/>
      <point x="185" y="471" type="line"/>
      <point x="185" y="55" type="line"/>
    </contour>
    <contour>
      <point x="469" y="209" type="line"/>
      <point x="469" y="317" type="line"/>
      <point x="25" y="317" type="line"/>
      <point x="25" y="209" type="line"/>
    </contour>
  </outline>
</glyph>
<glyph name="comma" format="1">
  <advance width="232"/>
  <unicode hex="002C"/>
  <outline>
    <contour>
      <point x="151" y="-92"/>
      <point x="199" y="-1"/>
      <point x="199" y="66" type="curve" smooth="yes"/>
      <point x="199" y="130"/>
      <point x="156" y="162"/>
      <point x="112" y="162" type="curve" smooth="yes"/>
      <point x="70" y="162"/>
      <point x="28" y="131"/>
      <point x="28" y="71" type="curve" smooth="yes"/>
      <point x="28" y="37"/>
      <point x="47" y="3"/>
      <point x="87" y="-7" type="curve"/>
      <point x="81" y="-33"/>
      <point x="44" y="-107"/>
      <point x="30" y="-131" type="curve"/>
      <point x="82" y="-164" type="line"/>
    </contour>
  </outline>
</glyph>
<glyph name="hyphen" format="1">
  <advance width="331"/>
  <unicode hex="002D"/>
  <outline>
    <contour>
      <point x="40" y="320" type="line"/>
      <point x="40" y="220" type="line"/>
      <point x="291" y="220" type="line"/>
      <point x="291" y="320" type="line"/>
    </contour>
  </outline>
</glyph>
<glyph name="period" format="1">
  <advance width="250"/>
  <unicode hex="002E"/>
  <outline>
    <contour>
      <point x="164" y="-15"/>
      <point x="204" y="14"/>
      <point x="204" y="74" type="curve" smooth="yes"/>
      <point x="204" y="132"/>
      <point x="165" y="160"/>
      <point x="125" y="160" type="curve" smooth="yes"/>
      <point x="85" y="160"/>
      <point x="46" y="132"/>
      <point x="46" y="74" type="curve" smooth="yes"/>
      <point x="46" y="13"/>
      <point x="84" y="-15"/>
      <point x="124" y="-15" type="curve" smooth="yes"/>
    </contour>
  </outline>
</glyph>
<glyph name="zero" format="1">
  <advance width="568"/>
  <unicode hex="0030"/>
  <outline>
    <contour>
      <point x="402" y="153"/>
      <point x="354" y="95"/>
      <point x="284" y="95" type="curve" smooth="yes"/>
      <point x="212" y="95"/>
      <point x="166" y="154"/>
      <point x="166" y="272" type="curve" smooth="yes"/>
      <point x="166" y="375"/>
      <point x="205" y="444"/>
      <point x="286" y="445" type="curve" smooth="yes"/>
      <point x="366" y="446"/>
      <point x="402" y="374"/>
      <point x="402" y="269" type="curve" smooth="yes"/>
    </contour>
    <contour>
      <point x="535" y="446"/>
      <point x="453" y="555"/>
      <point x="289" y="555" type="curve" smooth="yes"/>
      <point x="126" y="555"/>
      <point x="33" y="441"/>
      <point x="33" y="269" type="curve" smooth="yes"/>
      <point x="33" y="97"/>
      <point x="116" y="-15"/>
      <point x="282" y="-15" type="curve" smooth="yes"/>
      <point x="445" y="-15"/>
      <point x="535" y="105"/>
      <point x="535" y="273" type="curve" smooth="yes"/>
    </contour>
  </outline>
</glyph>
<glyph name="one" format="1">
  <advance width="422"/>
  <unicode hex="0031"/>
  <outline>
    <contour>
      <point x="68" y="367" type="line"/>
      <point x="28" y="471" type="line"/>
      <point x="184" y="540" type="line"/>
      <point x="307" y="540" type="line"/>
      <point x="307" y="0" type="line"/>
      <point x="175" y="0" type="line"/>
      <point x="175" y="479" type="line"/>
      <point x="211" y="424" type="line"/>
    </contour>
    <contour>
      <point x="74" y="100" type="line"/>
      <point x="392" y="100" type="line"/>
      <point x="392" y="0" type="line"/>
      <point x="74" y="0" type="line"/>
    </contour>
  </outline>
</glyph>
<glyph name="two" format="1">
  <advance width="453"/>
  <unicode hex="0032"/>
  <outline>
    <contour>
      <point x="413" y="0" type="line"/>
      <point x="413" y="110" type="line"/>
      <point x="181" y="110" type="line"/>
      <point x="200" y="86" type="line"/>
      <point x="249" y="143" type="line" smooth="yes"/>
      <point x="308" y="212"/>
      <point x="400" y="298"/>
      <point x="400" y="385" type="curve" smooth="yes"/>
      <point x="400" y="493"/>
      <point x="308" y="555"/>
      <point x="210" y="555" type="curve" smooth="yes"/>
      <point x="138" y="555"/>
      <point x="63" y="522"/>
      <point x="19" y="448" type="curve"/>
      <point x="112" y="391" type="line"/>
      <point x="132" y="426"/>
      <point x="166" y="443"/>
      <point x="197" y="443" type="curve" smooth="yes"/>
      <point x="234" y="443"/>
      <point x="268" y="418"/>
      <point x="268" y="374" type="curve" smooth="yes"/>
      <point x="268" y="321"/>
      <point x="216" y="273"/>
      <point x="151" y="203" type="curve" smooth="yes"/>
      <point x="31" y="74" type="line"/>
      <point x="31" y="0" type="line"/>
    </contour>
  </outline>
</glyph>
<glyph name="seven" format="1">
  <advance width="437"/>
  <unicode hex="0037"/>
  <outline>
    <contour>
      <point x="261" y="52"/>
      <point x="335" y="249"/>
      <point x="427" y="455" type="curve"/>
      <point x="427" y="541" type="line"/>
      <point x="15" y="541" type="line"/>
      <point x="15" y="416" type="line"/>
      <point x="298" y="416" type="line"/>
      <point x="296" y="466" type="line"/>
      <point x="203" y="255"/>
      <point x="124" y="55"/>
      <point x="76" y="-136" type="curve"/>
      <point x="214" y="-134" type="line"/>
    </contour>
  </outline>
</glyph>
<glyph name="eight" format="1">
  <advance width="533"/>
  <unicode hex="0038"/>
  <outline>
    <contour>
      <point x="425" y="-15"/>
      <point x="504" y="83"/>
      <point x="504" y="184" type="curve" smooth="yes"/>
      <point x="504" y="257"/>
      <point x="466" y="324"/>
      <point x="385" y="358" type="curve"/>
      <point x="449" y="393"/>
      <point x="478" y="450"/>
      <point x="478" y="510" type="curve" smooth="yes"/>
      <point x="478" y="601"/>
      <point x="410" y="690"/>
      <point x="272" y="690" type="curve" smooth="yes"/>
      <point x="131" y="690"/>
      <point x="56" y="599"/>
      <point x="56" y="504" type="curve" smooth="yes"/>
      <point x="56" y="448"/>
      <point x="82" y="394"/>
      <point x="138" y="356" type="curve"/>
      <point x="64" y="316"/>
      <point x="29" y="250"/>
      <point x="29" y="179" type="curve" smooth="yes"/>
      <point x="29" y="78"/>
      <point x="107" y="-15"/>
      <point x="264" y="-15" type="curve" smooth="yes"/>
    </contour>
    <contour>
      <point x="190" y="95"/>
      <point x="159" y="146"/>
      <point x="159" y="197" type="curve" smooth="yes"/>
      <point x="159" y="249"/>
      <point x="191" y="301"/>
      <point x="265" y="301" type="curve" smooth="yes"/>
      <point x="339" y="301"/>
      <point x="371" y="247"/>
      <point x="371" y="194" type="curve" smooth="yes"/>
      <point x="371" y="144"/>
      <point x="343" y="95"/>
      <point x="268" y="95" type="curve" smooth="yes"/>
    </contour>
    <contour>
      <point x="210" y="399"/>
      <point x="185" y="446"/>
      <point x="185" y="492" type="curve" smooth="yes"/>
      <point x="185" y="536"/>
      <point x="208" y="580"/>
      <point x="272" y="580" type="curve" smooth="yes"/>
      <point x="332" y="580"/>
      <point x="353" y="537"/>
      <point x="353" y="493" type="curve" smooth="yes"/>
      <point x="353" y="447"/>
      <point x="329" y="399"/>
      <point x="269" y="399" type="curve" smooth="yes"/>
    </contour>
  </outline>
</glyph>
<glyph name="nine" format="1">
  <advance width="508"/>
  <unicode hex="0039"/>
  <outline>
    <contour>
      <point x="102" y="555"/>
      <point x="30" y="436"/>
      <point x="30" y="307" type="curve" smooth="yes"/>
      <point x="30" y="172"/>
      <point x="122" y="92"/>
      <point x="214" y="92" type="curve" smooth="yes"/>
      <point x="276" y="92"/>
      <point x="338" y="128"/>
      <point x="372" y="208" type="curve"/>
      <point x="340" y="205" type="line"/>
      <point x="340" y="89"/>
      <point x="329" y="-40"/>
      <point x="223" y="-40" type="curve" smooth="yes"/>
      <point x="185" y="-40"/>
      <point x="142" y="-20"/>
      <point x="111" y="17" type="curve"/>
      <point x="33" y="-45" type="line"/>
      <point x="81" y="-114"/>
      <point x="154" y="-150"/>
      <point x="227" y="-150" type="curve" smooth="yes"/>
      <point x="399" y="-150"/>
      <point x="475" y="23"/>
      <point x="475" y="217" type="curve" smooth="yes"/>
      <point x="475" y="428"/>
      <point x="406" y="555"/>
      <point x="251" y="555" type="curve" smooth="yes"/>
    </contour>
    <contour>
      <point x="200" y="445"/>
      <point x="250" y="445" type="curve" smooth="yes"/>
      <point x="300" y="445"/>
      <point x="336" y="408"/>
      <point x="336" y="322" type="curve" smooth="yes"/>
      <point x="336" y="236"/>
      <point x="300" y="198"/>
      <point x="250" y="198" type="curve" smooth="yes"/>
      <point x="200" y="198"/>
      <point x="164" y="236"/>
      <point x="164" y="322" type="curve" smooth="yes"/>
      <point x="164" y="408"/>
    </contour>
  </outline>
</glyph>
<glyph name="semicolon" format="1">
  <advance width="239"/>
  <unicode hex="003B"/>
  <outline>
    <contour>
      <point x="151" y="-65"/>
      <point x="192" y="11"/>
      <point x="192" y="76" type="curve" smooth="yes"/>
      <point x="192" y="123"/>
      <point x="165" y="161"/>
      <point x="113" y="161" type="curve" smooth="yes"/>
      <point x="64" y="161"/>
      <point x="35" y="120"/>
      <point x="35" y="80" type="curve" smooth="yes"/>
      <point x="35" y="49"/>
      <point x="52" y="17"/>
      <point x="89" y="8" type="curve"/>
      <point x="84" y="-15"/>
      <point x="50" y="-84"/>
      <point x="38" y="-105" type="curve"/>
      <point x="88" y="-135" type="line"/>
    </contour>
    <component base="period" xOffset="-10" yOffset="252"/>
  </outline>
</glyph>
<glyph name="equal" format="1">
  <advance width="574"/>
  <unicode hex="003D"/>
  <outline>
    <contour>
      <point x="514" y="293" type="line"/>
      <point x="514" y="398" type="line"/>
      <point x="60" y="398" type="line"/>
      <point x="60" y="293" type="line"/>
    </contour>
    <contour>
      <point x="514" y="112" type="line"/>
      <point x="514" y="217" type="line"/>
      <point x="60" y="217" type="line"/>
      <point x="60" y="112" type="line"/>
    </contour>
  </outline>
</glyph>
<glyph name="A" format="1">
  <advance width="557"/>
  <unicode hex="0041"/>
  <outline>
    <contour>
      <point x="129" y="0" type="line"/>
      <point x="234" y="372" type="line" smooth="yes"/>
      <point x="249" y="425"/>
      <point x="281" y="563"/>
      <point x="295" y="617" type="curve"/>
      <point x="264" y="617" type="line"/>
      <point x="278" y="564"/>
      <point x="307" y="430"/>
      <point x="321" y="378" type="curve" smooth="yes"/>
      <point x="424" y="0" type="line"/>
      <point x="560" y="0" type="line"/>
      <point x="361" y="675" type="line"/>
      <point x="201" y="675" type="line"/>
      <point x="-3" y="0" type="line"/>
    </contour>
    <contour>
      <point x="409" y="136" type="line"/>
      <point x="409" y="236" type="line"/>
      <point x="136" y="236" type="line"/>
      <point x="136" y="136" type="line"/>
    </contour>
    <contour>
      <point x="560" y="10" type="move" name="ogonek"/>
    </contour>
    <contour>
      <point x="287" y="660" type="move" name="top"/>
    </contour>
  </outline>
</glyph>
<glyph name="B" format="1">
  <advance width="532"/>
  <unicode hex="0042"/>
  <outline>
    <contour>
      <point x="397" y="-5"/>
      <point x="502" y="51"/>
      <point x="502" y="198" type="curve" smooth="yes"/>
      <point x="502" y="288"/>
      <point x="429" y="362"/>
      <point x="316" y="362" type="curve"/>
      <point x="316" y="349" type="line"/>
      <point x="420" y="349"/>
      <point x="481" y="430"/>
      <point x="481" y="508" type="curve" smooth="yes"/>
      <point x="481" y="628"/>
      <point x="380" y="679"/>
      <point x="249" y="679" type="curve" smooth="yes"/>
      <point x="169" y="679"/>
      <point x="117" y="677"/>
      <point x="60" y="675" type="curve"/>
      <point x="60" y="0" type="line"/>
      <point x="113" y="-3"/>
      <point x="160" y="-5"/>
      <point x="208" y="-5" type="curve" smooth="yes"/>
    </contour>
    <contour>
      <point x="192" y="584" type="line"/>
      <point x="176" y="566" type="line"/>
      <point x="201" y="568"/>
      <point x="225" y="569"/>
      <point x="246" y="569" type="curve" smooth="yes"/>
      <point x="301" y="569"/>
      <point x="349" y="548"/>
      <point x="349" y="489" type="curve" smooth="yes"/>
      <point x="349" y="440"/>
      <point x="313" y="398"/>
      <point x="257" y="398" type="curve" smooth="yes"/>
      <point x="126" y="398" type="line"/>
      <point x="126" y="296" type="line"/>
      <point x="266" y="296" type="line" smooth="yes"/>
      <point x="330" y="296"/>
      <point x="372" y="250"/>
      <point x="372" y="201" type="curve" smooth="yes"/>
      <point x="372" y="129"/>
      <point x="315" y="105"/>
      <point x="250" y="105" type="curve" smooth="yes"/>
      <point x="227" y="105"/>
      <point x="205" y="107"/>
      <point x="176" y="111" type="curve"/>
      <point x="192" y="93" type="line"/>
    </contour>
  </outline>
</glyph>
<glyph name="C" format="1">
  <advance width="550"/>
  <unicode hex="0043"/>
  <outline>
    <contour>
      <point x="418" y="122"/>
      <point x="362" y="102"/>
      <point x="317" y="102" type="curve" smooth="yes"/>
      <point x="225" y="102"/>
      <point x="170" y="184"/>
      <point x="170" y="336" type="curve" smooth="yes"/>
      <point x="170" y="493"/>
      <point x="227" y="575"/>
      <point x="306" y="575" type="curve" smooth="yes"/>
      <point x="354" y="575"/>
      <point x="391" y="547"/>
      <point x="412" y="484" type="curve"/>
      <point x="541" y="514" type="line"/>
      <point x="510" y="629"/>
      <point x="423" y="690"/>
      <point x="307" y="690" type="curve" smooth="yes"/>
      <point x="165" y="690"/>
      <point x="30" y="575"/>
      <point x="30" y="335" type="curve" smooth="yes"/>
      <point x="30" y="108"/>
      <point x="144" y="-15"/>
      <point x="304" y="-15" type="curve" smooth="yes"/>
      <point x="371" y="-15"/>
      <point x="447" y="8"/>
      <point x="527" y="60" type="curve"/>
      <point x="480" y="160" type="line"/>
    </contour>
  </outline>
</glyph>
<glyph name="D" format="1">
  <advance width="581"/>
  <unicode hex="0044"/>
  <outline>
    <contour>
      <point x="196" y="677"/>
      <point x="120" y="676"/>
      <point x="60" y="675" type="curve"/>
      <point x="60" y="0" type="line"/>
      <point x="121" y="-1"/>
      <point x="193" y="-2"/>
      <point x="253" y="-3" type="curve" smooth="yes"/>
      <point x="466" y="-7"/>
      <point x="553" y="140"/>
      <point x="553" y="336" type="curve" smooth="yes"/>
      <point x="553" y="522"/>
      <point x="480" y="682"/>
      <point x="256" y="678" type="curve" smooth="yes"/>
    </contour>
    <contour>
      <point x="230" y="109"/>
      <point x="197" y="109"/>
      <point x="173" y="110" type="curve"/>
      <point x="192" y="90" type="line"/>
      <point x="192" y="585" type="line"/>
      <point x="173" y="565" type="line"/>
      <point x="197" y="566"/>
      <point x="232" y="566"/>
      <point x="256" y="566" type="curve" smooth="yes"/>
      <point x="381" y="566"/>
      <point x="413" y="449"/>
      <point x="413" y="335" type="curve" smooth="yes"/>
      <point x="413" y="207"/>
      <point x="380" y="109"/>
      <point x="254" y="109" type="curve" smooth="yes"/>
    </contour>
    <contour>
      <point x="291" y="338" type="move" name="center"/>
    </contour>
    <contour>
      <point x="271" y="660" type="move" name="top"/>
    </contour>
  </outline>
</glyph>
<glyph name="E" format="1">
  <advance width="481"/>
  <unicode hex="0045"/>
  <outline>
    <contour>
      <point x="192" y="85" type="line"/>
      <point x="192" y="318" type="line"/>
      <point x="172" y="293" type="line"/>
      <point x="393" y="293" type="line"/>
      <point x="393" y="401" type="line"/>
      <point x="172" y="401" type="line"/>
      <point x="192" y="381" type="line"/>
      <point x="192" y="590" type="line"/>
      <point x="172" y="565" type="line"/>
      <point x="422" y="565" type="line"/>
      <point x="422" y="675" type="line"/>
      <point x="60" y="675" type="line"/>
      <point x="60" y="0" type="line"/>
      <point x="431" y="0" type="line"/>
      <point x="431" y="110" type="line"/>
      <point x="172" y="110" type="line"/>
    </contour>
  </outline>
</glyph>
<glyph name="F" format="1">
  <advance width="450"/>
  <unicode hex="0046"/>
  <outline>
    <contour>
      <point x="415" y="675" type="line"/>
      <point x="60" y="675" type="line"/>
      <point x="60" y="0" type="line"/>
      <point x="192" y="0" type="line"/>
      <point x="192" y="302" type="line"/>
      <point x="172" y="282" type="line"/>
      <point x="386" y="282" type="line"/>
      <point x="386" y="390" type="line"/>
      <point x="172" y="390" type="line"/>
      <point x="192" y="370" type="line"/>
      <point x="192" y="585" type="line"/>
      <point x="172" y="565" type="line"/>
      <point x="415" y="565" type="line"/>
    </contour>
  </outline>
</glyph>
<glyph name="G" format="1">
  <advance width="584"/>
  <unicode hex="0047"/>
  <outline>
    <contour>
      <point x="482" y="144" type="line"/>
      <point x="422" y="115"/>
      <point x="372" y="100"/>
      <point x="328" y="100" type="curve" smooth="yes"/>
      <point x="228" y="100"/>
      <point x="170" y="176"/>
      <point x="170" y="336" type="curve" smooth="yes"/>
      <point x="170" y="495"/>
      <point x="222" y="576"/>
      <point x="308" y="576" type="curve" smooth="yes"/>
      <point x="359" y="576"/>
      <point x="396" y="544"/>
      <point x="417" y="484" type="curve"/>
      <point x="542" y="514" type="line"/>
      <point x="510" y="631"/>
      <point x="419" y="691"/>
      <point x="309" y="691" type="curve" smooth="yes"/>
      <point x="160" y="691"/>
      <point x="30" y="575"/>
      <point x="30" y="335" type="curve" smooth="yes"/>
      <point x="30" y="106"/>
      <point x="137" y="-15"/>
      <point x="312" y="-15" type="curve" smooth="yes"/>
      <point x="376" y="-15"/>
      <point x="458" y="-1"/>
      <point x="541" y="39" type="curve"/>
      <point x="541" y="354" type="line"/>
      <point x="300" y="354" type="line"/>
      <point x="300" y="244" type="line"/>
      <point x="429" y="244" type="line"/>
      <point x="409" y="264" type="line"/>
      <point x="409" y="39" type="line"/>
    </contour>
  </outline>
</glyph>
<glyph name="H" format="1">
  <advance width="605"/>
  <unicode hex="0048"/>
  <outline>
    <contour>
      <point x="413" y="383" type="line"/>
      <point x="433" y="403" type="line"/>
      <point x="172" y="403" type="line"/>
      <point x="192" y="383" type="line"/>
      <point x="192" y="675" type="line"/>
      <point x="60" y="675" type="line"/>
      <point x="60" y="0" type="line"/>
      <point x="192" y="0" type="line"/>
      <point x="192" y="313" type="line"/>
      <point x="172" y="293" type="line"/>
      <point x="433" y="293" type="line"/>
      <point x="413" y="313" type="line"/>
      <point x="413" y="0" type="line"/>
      <point x="545" y="0" type="line"/>
      <point x="545" y="675" type="line"/>
      <point x="413" y="675" type="line"/>
    </contour>
  </outline>
</glyph>
<glyph name="I" format="1">
  <advance width="252"/>
  <unicode hex="0049"/>
  <outline>
    <contour>
      <point x="60" y="675" type="line"/>
      <point x="60" y="0" type="line"/>
      <point x="192" y="0" type="line"/>
      <point x="192" y="675" type="line"/>
    </contour>
  </outline>
</glyph>
<glyph name="J" format="1">
  <advance width="309"/>
  <unicode hex="004A"/>
  <outline>
    <contour>
      <point x="72" y="-15"/>
      <point x="108" y="-15" type="curve" smooth="yes"/>
      <point x="192" y="-15"/>
      <point x="264" y="43"/>
      <point x="264" y="151" type="curve" smooth="yes"/>
      <point x="264" y="675" type="line"/>
      <point x="132" y="675" type="line"/>
      <point x="132" y="161" type="line" smooth="yes"/>
      <point x="132" y="116"/>
      <point x="116" y="95"/>
      <point x="90" y="95" type="curve" smooth="yes"/>
      <point x="72" y="95"/>
      <point x="50" y="101"/>
      <point x="23" y="114" type="curve"/>
      <point x="-4" y="13" type="line"/>
      <point x="34" y="-6"/>
    </contour>
  </outline>
</glyph>
<glyph name="L" format="1">
  <advance width="418"/>
  <unicode hex="004C"/>
  <outline>
    <contour>
      <point x="187" y="90" type="line"/>
      <point x="187" y="675" type="line"/>
      <point x="55" y="675" type="line"/>
      <point x="55" y="0" type="line"/>
      <point x="408" y="0" type="line"/>
      <point x="408" y="110" type="line"/>
      <point x="167" y="110" type="line"/>
    </contour>
  </outline>
</glyph>
<glyph name="M" format="1">
  <advance width="750"/>
  <unicode hex="004D"/>
  <outline>
    <contour>
      <point x="144" y="0" type="line"/>
      <point x="179" y="387" type="line" smooth="yes"/>
      <point x="184" y="441"/>
      <point x="190" y="504"/>
      <point x="195" y="557" type="curve"/>
      <point x="173" y="557" type="line"/>
      <point x="186" y="505"/>
      <point x="197" y="443"/>
      <point x="211" y="390" type="curve" smooth="yes"/>
      <point x="306" y="21" type="line"/>
      <point x="429" y="25" type="line"/>
      <point x="529" y="385" type="line" smooth="yes"/>
      <point x="544" y="439"/>
      <point x="556" y="504"/>
      <point x="571" y="557" type="curve"/>
      <point x="551" y="557" type="line"/>
      <point x="555" y="505"/>
      <point x="557" y="441"/>
      <point x="562" y="388" type="curve" smooth="yes"/>
      <point x="595" y="0" type="line"/>
      <point x="725" y="0" type="line"/>
      <point x="647" y="675" type="line"/>
      <point x="499" y="675" type="line"/>
      <point x="394" y="268" type="line" smooth="yes"/>
      <point x="381" y="219"/>
      <point x="369" y="146"/>
      <point x="355" y="98" type="curve"/>
      <point x="391" y="98" type="line"/>
      <point x="378" y="145"/>
      <point x="372" y="215"/>
      <point x="360" y="263" type="curve" smooth="yes"/>
      <point x="256" y="675" type="line"/>
      <point x="103" y="675" type="line"/>
      <point x="23" y="0" type="line"/>
    </contour>
  </outline>
</glyph>
<glyph name="N" format="1">
  <advance width="612"/>
  <unicode hex="004E"/>
  <outline>
    <contour>
      <point x="429" y="269" type="line"/>
      <point x="182" y="684" type="line"/>
      <point x="60" y="675" type="line"/>
      <point x="60" y="0" type="line"/>
      <point x="183" y="0" type="line"/>
      <point x="183" y="406" type="line"/>
      <point x="433" y="-10" type="line"/>
      <point x="552" y="0" type="line"/>
      <point x="552" y="675" type="line"/>
      <point x="429" y="675" type="line"/>
    </contour>
  </outline>
</glyph>
<glyph name="O" format="1">
  <advance width="622"/>
  <unicode hex="004F"/>
  <outline>
    <contour>
      <point x="450" y="207"/>
      <point x="410" y="100"/>
      <point x="311" y="100" type="curve" smooth="yes"/>
      <point x="211" y="100"/>
      <point x="172" y="205"/>
      <point x="172" y="336" type="curve" smooth="yes"/>
      <point x="172" y="465"/>
      <point x="213" y="575"/>
      <point x="313" y="575" type="curve" smooth="yes"/>
      <point x="411" y="575"/>
      <point x="450" y="469"/>
      <point x="450" y="335" type="curve" smooth="yes"/>
    </contour>
    <contour>
      <point x="590" y="540"/>
      <point x="503" y="690"/>
      <point x="313" y="690" type="curve" smooth="yes"/>
      <point x="125" y="690"/>
      <point x="32" y="534"/>
      <point x="32" y="335" type="curve" smooth="yes"/>
      <point x="32" y="133"/>
      <point x="120" y="-15"/>
      <point x="310" y="-15" type="curve" smooth="yes"/>
      <point x="499" y="-15"/>
      <point x="590" y="137"/>
      <point x="590" y="336" type="curve" smooth="yes"/>
    </contour>
  </outline>
</glyph>
<glyph name="P" format="1">
  <advance width="519"/>
  <unicode hex="0050"/>
  <outline>
    <contour>
      <point x="197" y="0" type="line"/>
      <point x="197" y="586" type="line"/>
      <point x="177" y="566" type="line"/>
      <point x="197" y="568"/>
      <point x="239" y="569"/>
      <point x="260" y="569" type="curve" smooth="yes"/>
      <point x="336" y="569"/>
      <point x="364" y="522"/>
      <point x="364" y="457" type="curve" smooth="yes"/>
      <point x="364" y="396"/>
      <point x="331" y="356"/>
      <point x="269" y="356" type="curve" smooth="yes"/>
      <point x="131" y="356" type="line"/>
      <point x="131" y="246" type="line"/>
      <point x="259" y="246" type="line" smooth="yes"/>
      <point x="425" y="246"/>
      <point x="499" y="353"/>
      <point x="499" y="471" type="curve" smooth="yes"/>
      <point x="499" y="611"/>
      <point x="385" y="679"/>
      <point x="258" y="679" type="curve" smooth="yes"/>
      <point x="174" y="679"/>
      <point x="122" y="677"/>
      <point x="65" y="675" type="curve"/>
      <point x="65" y="0" type="line"/>
    </contour>
  </outline>
</glyph>
<glyph name="Q" format="1">
  <advance width="613"/>
  <unicode hex="0051"/>
  <outline>
    <contour>
      <point x="499" y="-15"/>
      <point x="590" y="137"/>
      <point x="590" y="336" type="curve" smooth="yes"/>
      <point x="590" y="540"/>
      <point x="503" y="690"/>
      <point x="313" y="690" type="curve" smooth="yes"/>
      <point x="125" y="690"/>
      <point x="32" y="534"/>
      <point x="32" y="335" type="curve" smooth="yes"/>
      <point x="32" y="133"/>
      <point x="120" y="-15"/>
      <point x="310" y="-15" type="curve" smooth="yes"/>
    </contour>
    <contour>
      <point x="554" y="-131"/>
      <point x="570" y="-130"/>
      <point x="587" y="-129" type="curve"/>
      <point x="584" y="-18" type="line"/>
      <point x="565" y="-21"/>
      <point x="544" y="-23"/>
      <point x="524" y="-23" type="curve" smooth="yes"/>
      <point x="483" y="-23"/>
      <point x="450" y="-12"/>
      <point x="450" y="29" type="curve"/>
      <point x="318" y="29" type="line"/>
      <point x="318" y="-86"/>
      <point x="406" y="-131"/>
      <point x="539" y="-131" type="curve" smooth="yes"/>
    </contour>
    <contour>
      <point x="211" y="100"/>
      <point x="172" y="205"/>
      <point x="172" y="336" type="curve" smooth="yes"/>
      <point x="172" y="465"/>
      <point x="213" y="575"/>
      <point x="313" y="575" type="curve" smooth="yes"/>
      <point x="411" y="575"/>
      <point x="450" y="469"/>
      <point x="450" y="335" type="curve" smooth="yes"/>
      <point x="450" y="207"/>
      <point x="410" y="100"/>
      <point x="311" y="100" type="curve" smooth="yes"/>
    </contour>
  </outline>
</glyph>
<glyph name="R" format="1">
  <advance width="540"/>
  <unicode hex="0052"/>
  <outline>
    <contour>
      <point x="197" y="0" type="line"/>
      <point x="197" y="586" type="line"/>
      <point x="177" y="566" type="line"/>
      <point x="197" y="568"/>
      <point x="239" y="569"/>
      <point x="260" y="569" type="curve" smooth="yes"/>
      <point x="339" y="569"/>
      <point x="367" y="531"/>
      <point x="367" y="465" type="curve" smooth="yes"/>
      <point x="367" y="408"/>
      <point x="334" y="364"/>
      <point x="269" y="364" type="curve" smooth="yes"/>
      <point x="131" y="364" type="line"/>
      <point x="131" y="254" type="line"/>
      <point x="259" y="254" type="line" smooth="yes"/>
      <point x="428" y="254"/>
      <point x="502" y="365"/>
      <point x="502" y="479" type="curve" smooth="yes"/>
      <point x="502" y="620"/>
      <point x="396" y="679"/>
      <point x="256" y="679" type="curve" smooth="yes"/>
      <point x="172" y="679"/>
      <point x="122" y="677"/>
      <point x="65" y="675" type="curve"/>
      <point x="65" y="0" type="line"/>
    </contour>
    <contour>
      <point x="348" y="71" type="line" smooth="yes"/>
      <point x="373" y="17"/>
      <point x="407" y="-14"/>
      <point x="468" y="-14" type="curve" smooth="yes"/>
      <point x="485" y="-14"/>
      <point x="506" y="-12"/>
      <point x="525" y="-7" type="curve"/>
      <point x="520" y="90" type="line"/>
      <point x="515" y="89"/>
      <point x="510" y="89"/>
      <point x="506" y="89" type="curve" smooth="yes"/>
      <point x="486" y="89"/>
      <point x="476" y="96"/>
      <point x="466" y="116" type="curve" smooth="yes"/>
      <point x="360" y="331" type="line"/>
      <point x="233" y="318" type="line"/>
    </contour>
    <contour>
      <point x="256" y="660" type="move" name="top"/>
    </contour>
    <contour>
      <point x="271" y="0" type="move" name="bottom"/>
    </contour>
  </outline>
</glyph>
<glyph name="S" format="1">
  <advance width="497"/>
  <unicode hex="0053"/>
  <outline>
    <contour>
      <point x="104" y="6"/>
      <point x="176" y="-15"/>
      <point x="244" y="-15" type="curve" smooth="yes"/>
      <point x="365" y="-15"/>
      <point x="465" y="61"/>
      <point x="465" y="197" type="curve" smooth="yes"/>
      <point x="465" y="418"/>
      <point x="177" y="373"/>
      <point x="177" y="497" type="curve" smooth="yes"/>
      <point x="177" y="551"/>
      <point x="216" y="579"/>
      <point x="259" y="579" type="curve" smooth="yes"/>
      <point x="298" y="579"/>
      <point x="340" y="559"/>
      <point x="364" y="517" type="curve"/>
      <point x="461" y="569" type="line"/>
      <point x="430" y="651"/>
      <point x="347" y="690"/>
      <point x="263" y="690" type="curve" smooth="yes"/>
      <point x="155" y="690"/>
      <point x="45" y="621"/>
      <point x="45" y="489" type="curve" smooth="yes"/>
      <point x="45" y="257"/>
      <point x="331" y="309"/>
      <point x="331" y="181" type="curve" smooth="yes"/>
      <point x="331" y="132"/>
      <point x="295" y="100"/>
      <point x="246" y="100" type="curve" smooth="yes"/>
      <point x="199" y="100"/>
      <point x="137" y="116"/>
      <point x="87" y="148" type="curve"/>
      <point x="37" y="55" type="line"/>
    </contour>
    <contour>
      <point x="260" y="660" type="move" name="top"/>
    </contour>
    <contour>
      <point x="248" y="0" type="move" name="bottom"/>
    </contour>
  </outline>
</glyph>
<glyph name="T" format="1">
  <advance width="423"/>
  <unicode hex="0054"/>
  <outline>
    <contour>
      <point x="5" y="675" type="line"/>
      <point x="5" y="565" type="line"/>
      <point x="163" y="565" type="line"/>
      <point x="143" y="585" type="line"/>
      <point x="143" y="0" type="line"/>
      <point x="275" y="0" type="line"/>
      <point x="275" y="585" type="line"/>
      <point x="255" y="565" type="line"/>
      <point x="418" y="565" type="line"/>
      <point x="418" y="675" type="line"/>
    </contour>
  </outline>
</glyph>
<glyph name="U" format="1">
  <advance width="587"/>
  <unicode hex="0055"/>
  <outline>
    <contour>
      <point x="421" y="-14"/>
      <point x="537" y="72"/>
      <point x="537" y="266" type="curve" smooth="yes"/>
      <point x="537" y="675" type="line"/>
      <point x="405" y="675" type="line"/>
      <point x="405" y="265" type="line" smooth="yes"/>
      <point x="405" y="144"/>
      <point x="359" y="100"/>
      <point x="294" y="100" type="curve" smooth="yes"/>
      <point x="234" y="100"/>
      <point x="182" y="150"/>
      <point x="182" y="266" type="curve"/>
      <point x="182" y="675" type="line"/>
      <point x="50" y="675" type="line"/>
      <point x="50" y="265" type="line" smooth="yes"/>
      <point x="50" y="66"/>
      <point x="160" y="-16"/>
      <point x="293" y="-15" type="curve" smooth="yes"/>
    </contour>
  </outline>
</glyph>
<glyph name="W" format="1">
  <advance width="840"/>
  <unicode hex="0057"/>
  <outline>
    <contour>
      <point x="302" y="0" type="line"/>
      <point x="401" y="363" type="line" smooth="yes"/>
      <point x="417" y="421"/>
      <point x="424" y="467"/>
      <point x="433" y="521" type="curve"/>
      <point x="407" y="521" type="line"/>
      <point x="417" y="466"/>
      <point x="423" y="422"/>
      <point x="438" y="366" type="curve" smooth="yes"/>
      <point x="534" y="0" type="line"/>
      <point x="647" y="0" type="line"/>
      <point x="820" y="675" type="line"/>
      <point x="691" y="675" type="line"/>
      <point x="615" y="310" type="line" smooth="yes"/>
      <point x="603" y="253"/>
      <point x="596" y="177"/>
      <point x="583" y="120" type="curve"/>
      <point x="605" y="120" type="line"/>
      <point x="598" y="176"/>
      <point x="589" y="251"/>
      <point x="575" y="307" type="curve" smooth="yes"/>
      <point x="487" y="654" type="line"/>
      <point x="360" y="650" type="line"/>
      <point x="274" y="310" type="line" smooth="yes"/>
      <point x="260" y="253"/>
      <point x="252" y="177"/>
      <point x="240" y="120" type="curve"/>
      <point x="260" y="120" type="line"/>
      <point x="252" y="176"/>
      <point x="248" y="251"/>
      <point x="236" y="307" type="curve" smooth="yes"/>
      <point x="157" y="675" type="line"/>
      <point x="20" y="675" type="line"/>
      <point x="185" y="0" type="line"/>
    </contour>
  </outline>
</glyph>
<glyph name="Y" format="1">
  <advance width="548"/>
  <unicode hex="0059"/>
  <outline>
    <contour>
      <point x="338" y="0" type="line"/>
      <point x="338" y="253" type="line"/>
      <point x="547" y="675" type="line"/>
      <point x="406" y="675" type="line"/>
      <point x="318" y="478" type="line" smooth="yes"/>
      <point x="293" y="423"/>
      <point x="276" y="367"/>
      <point x="254" y="312" type="curve"/>
      <point x="295" y="312" type="line"/>
      <point x="274" y="367"/>
      <point x="256" y="423"/>
      <point x="231" y="478" type="curve" smooth="yes"/>
      <point x="142" y="675" type="line"/>
      <point x="1" y="675" type="line"/>
      <point x="206" y="254" type="line"/>
      <point x="206" y="0" type="line"/>
    </contour>
    <contour>
      <point x="275" y="660" type="move" name="top"/>
    </contour>
  </outline>
</glyph>
<glyph name="bracketleft" format="1">
  <advance width="328"/>
  <unicode hex="005B"/>
  <outline>
    <contour>
      <point x="303" y="-186" type="line"/>
      <point x="303" y="-66" type="line"/>
      <point x="196" y="-66" type="line"/>
      <point x="196" y="653" type="line"/>
      <point x="303" y="653" type="line"/>
      <point x="303" y="773" type="line"/>
      <point x="75" y="773" type="line"/>
      <point x="75" y="-186" type="line"/>
    </contour>
  </outline>
</glyph>
<glyph name="backslash" format="1">
  <advance width="415"/>
  <unicode hex="005C"/>
  <outline>
    <contour>
      <point x="294" y="-70" type="line"/>
      <point x="413" y="-69" type="line"/>
      <point x="120" y="725" type="line"/>
      <point x="3" y="725" type="line"/>
    </contour>
  </outline>
</glyph>
<glyph name="underscore" format="1">
  <advance width="500"/>
  <unicode hex="005F"/>
  <outline>
    <contour>
      <point x="-1" y="-100" type="line"/>
      <point x="-1" y="-200" type="line"/>
      <point x="501" y="-200" type="line"/>
      <point x="501" y="-100" type="line"/>
    </contour>
  </outline>
</glyph>
<glyph name="a" format="1">
  <advance width="457"/>
  <unicode hex="0061"/>
  <outline>
    <contour>
      <point x="290" y="18"/>
      <point x="333" y="-15"/>
      <point x="396" y="-15" type="curve" smooth="yes"/>
      <point x="413" y="-15"/>
      <point x="432" y="-13"/>
      <point x="452" y="-8" type="curve"/>
      <point x="448" y="87" type="line"/>
      <point x="443" y="86"/>
      <point x="438" y="86"/>
      <point x="434" y="86" type="curve" smooth="yes"/>
      <point x="408" y="86"/>
      <point x="399" y="100"/>
      <point x="399" y="133" type="curve" smooth="yes"/>
      <point x="399" y="336" type="line" smooth="yes"/>
      <point x="399" y="455"/>
      <point x="330" y="514"/>
      <point x="226" y="514" type="curve" smooth="yes"/>
      <point x="163" y="514"/>
      <point x="87" y="494"/>
      <point x="30" y="460" type="curve"/>
      <point x="73" y="366" type="line"/>
      <point x="116" y="389"/>
      <point x="160" y="406"/>
      <point x="195" y="406" type="curve" smooth="yes"/>
      <point x="239" y="406"/>
      <point x="269" y="384"/>
      <point x="269" y="331" type="curve" smooth="yes"/>
      <point x="269" y="196" type="line" smooth="yes"/>
      <point x="269" y="118"/>
      <point x="248" y="89"/>
      <point x="198" y="89" type="curve" smooth="yes"/>
      <point x="168" y="89"/>
      <point x="146" y="110"/>
      <point x="146" y="142" type="curve" smooth="yes"/>
      <point x="146" y="196"/>
      <point x="176" y="221"/>
      <point x="240" y="221" type="curve" smooth="yes"/>
      <point x="273" y="221"/>
      <point x="298" y="219"/>
      <point x="327" y="214" type="curve"/>
      <point x="327" y="299" type="line"/>
      <point x="300" y="304"/>
      <point x="255" y="306"/>
      <point x="232" y="306" type="curve" smooth="yes"/>
      <point x="98" y="306"/>
      <point x="15" y="244"/>
      <point x="15" y="142" type="curve" smooth="yes"/>
      <point x="15" y="41"/>
      <point x="88" y="-15"/>
      <point x="168" y="-15" type="curve" smooth="yes"/>
      <point x="230" y="-15"/>
      <point x="295" y="21"/>
      <point x="311" y="100" type="curve"/>
      <point x="290" y="100" type="line"/>
    </contour>
    <contour>
      <point x="447" y="10" type="move" name="ogonek"/>
    </contour>
    <contour>
      <point x="222" y="500" type="move" name="top"/>
    </contour>
  </outline>
</glyph>
<glyph name="b" format="1">
  <advance width="501"/>
  <unicode hex="0062"/>
  <outline>
    <contour>
      <point x="386" y="-15"/>
      <point x="478" y="91"/>
      <point x="478" y="276" type="curve" smooth="yes"/>
      <point x="478" y="425"/>
      <point x="404" y="515"/>
      <point x="295" y="515" type="curve" smooth="yes"/>
      <point x="218" y="515"/>
      <point x="156" y="470"/>
      <point x="129" y="370" type="curve"/>
      <point x="184" y="370" type="line"/>
      <point x="181" y="725" type="line"/>
      <point x="51" y="725" type="line"/>
      <point x="50" y="30" type="line"/>
      <point x="112" y="-3"/>
      <point x="177" y="-15"/>
      <point x="242" y="-15" type="curve" smooth="yes"/>
    </contour>
    <contour>
      <point x="222" y="90"/>
      <point x="205" y="94"/>
      <point x="180" y="104" type="curve"/>
      <point x="181" y="284" type="line" smooth="yes"/>
      <point x="181" y="362"/>
      <point x="210" y="410"/>
      <point x="262" y="410" type="curve" smooth="yes"/>
      <point x="310" y="410"/>
      <point x="345" y="362"/>
      <point x="345" y="274" type="curve" smooth="yes"/>
      <point x="345" y="165"/>
      <point x="314" y="90"/>
      <point x="241" y="90" type="curve" smooth="yes"/>
    </contour>
  </outline>
</glyph>
<glyph name="c" format="1">
  <advance width="429"/>
  <unicode hex="0063"/>
  <outline>
    <contour>
      <point x="109" y="-15"/>
      <point x="241" y="-15" type="curve" smooth="yes"/>
      <point x="304" y="-15"/>
      <point x="356" y="2"/>
      <point x="412" y="38" type="curve"/>
      <point x="375" y="124" type="line"/>
      <point x="328" y="101"/>
      <point x="291" y="90"/>
      <point x="257" y="90" type="curve" smooth="yes"/>
      <point x="196" y="90"/>
      <point x="154" y="148"/>
      <point x="154" y="251" type="curve" smooth="yes"/>
      <point x="154" y="348"/>
      <point x="187" y="410"/>
      <point x="245" y="410" type="curve" smooth="yes"/>
      <point x="286" y="410"/>
      <point x="307" y="382"/>
      <point x="326" y="340" type="curve"/>
      <point x="432" y="384" type="line"/>
      <point x="397" y="472"/>
      <point x="339" y="515"/>
      <point x="247" y="515" type="curve" smooth="yes"/>
      <point x="117" y="515"/>
      <point x="21" y="418"/>
      <point x="21" y="256" type="curve" smooth="yes"/>
      <point x="21" y="84"/>
    </contour>
  </outline>
</glyph>
<glyph name="d" format="1">
  <advance width="504"/>
  <unicode hex="0064"/>
  <outline>
    <contour>
      <point x="323" y="725" type="line"/>
      <point x="323" y="216" type="line" smooth="yes"/>
      <point x="323" y="134"/>
      <point x="291" y="88"/>
      <point x="239" y="88" type="curve" smooth="yes"/>
      <point x="181" y="88"/>
      <point x="155" y="161"/>
      <point x="155" y="248" type="curve" smooth="yes"/>
      <point x="155" y="336"/>
      <point x="184" y="410"/>
      <point x="260" y="410" type="curve" smooth="yes"/>
      <point x="279" y="410"/>
      <point x="304" y="406"/>
      <point x="329" y="396" type="curve"/>
      <point x="409" y="474" type="line"/>
      <point x="347" y="507"/>
      <point x="304" y="515"/>
      <point x="259" y="515" type="curve" smooth="yes"/>
      <point x="96" y="515"/>
      <point x="22" y="383"/>
      <point x="22" y="236" type="curve" smooth="yes"/>
      <point x="22" y="98"/>
      <point x="86" y="-15"/>
      <point x="206" y="-15" type="curve" smooth="yes"/>
      <point x="280" y="-15"/>
      <point x="343" y="33"/>
      <point x="368" y="130" type="curve"/>
      <point x="332" y="130" type="line"/>
      <point x="332" y="102" type="line" smooth="yes"/>
      <point x="332" y="-4"/>
      <point x="400" y="-30"/>
      <point x="489" y="-9" type="curve"/>
      <point x="484" y="86" type="line"/>
      <point x="462" y="83"/>
      <point x="453" y="93"/>
      <point x="453" y="114" type="curve" smooth="yes"/>
      <point x="453" y="725" type="line"/>
    </contour>
    <contour>
      <point x="252" y="250" type="move" name="center"/>
    </contour>
    <contour>
      <point x="484" y="500" type="move" name="topright"/>
    </contour>
  </outline>
</glyph>
<glyph name="e" format="1">
  <advance width="475"/>
  <unicode hex="0065"/>
  <outline>
    <contour>
      <point x="325" y="-15"/>
      <point x="390" y="2"/>
      <point x="447" y="42" type="curve"/>
      <point x="413" y="128" type="line"/>
      <point x="367" y="103"/>
      <point x="319" y="90"/>
      <point x="276" y="90" type="curve" smooth="yes"/>
      <point x="206" y="90"/>
      <point x="158" y="144"/>
      <point x="158" y="251" type="curve" smooth="yes"/>
      <point x="158" y="361"/>
      <point x="197" y="415"/>
      <point x="249" y="415" type="curve" smooth="yes"/>
      <point x="295" y="415"/>
      <point x="324" y="379"/>
      <point x="324" y="309" type="curve"/>
      <point x="100" y="307" type="line"/>
      <point x="98" y="213" type="line"/>
      <point x="455" y="213" type="line"/>
      <point x="455" y="250" type="line" smooth="yes"/>
      <point x="455" y="419"/>
      <point x="399" y="515"/>
      <point x="256" y="515" type="curve" smooth="yes"/>
      <point x="133" y="515"/>
      <point x="25" y="435"/>
      <point x="25" y="256" type="curve" smooth="yes"/>
      <point x="25" y="77"/>
      <point x="130" y="-15"/>
      <point x="265" y="-15" type="curve" smooth="yes"/>
    </contour>
  </outline>
</glyph>
<glyph name="f" format="1">
  <advance width="349"/>
  <unicode hex="0066"/>
  <outline>
    <contour>
      <point x="215" y="0" type="line"/>
      <point x="215" y="478" type="line" smooth="yes"/>
      <point x="215" y="523"/>
      <point x="235" y="544"/>
      <point x="265" y="544" type="curve" smooth="yes"/>
      <point x="281" y="544"/>
      <point x="299" y="538"/>
      <point x="318" y="527" type="curve"/>
      <point x="353" y="605" type="line"/>
      <point x="327" y="626"/>
      <point x="283" y="650"/>
      <point x="224" y="650" type="curve" smooth="yes"/>
      <point x="150" y="650"/>
      <point x="85" y="611"/>
      <point x="85" y="484" type="curve" smooth="yes"/>
      <point x="85" y="0" type="line"/>
    </contour>
    <contour>
      <point x="317" y="330" type="line"/>
      <point x="317" y="425" type="line"/>
      <point x="27" y="425" type="line"/>
      <point x="27" y="330" type="line"/>
    </contour>
  </outline>
</glyph>
<glyph name="g" format="1">
  <advance width="503"/>
  <unicode hex="0067"/>
  <outline>
    <contour>
      <point x="310" y="260"/>
      <point x="280" y="231"/>
      <point x="240" y="231" type="curve" smooth="yes"/>
      <point x="199" y="231"/>
      <point x="168" y="261"/>
      <point x="168" y="319" type="curve" smooth="yes"/>
      <point x="168" y="380"/>
      <point x="198" y="409"/>
      <point x="238" y="409" type="curve" smooth="yes"/>
      <point x="279" y="409"/>
      <point x="310" y="379"/>
      <point x="310" y="320" type="curve" smooth="yes"/>
    </contour>
    <contour>
      <point x="440" y="425"/>
      <point x="352" y="509"/>
      <point x="240" y="509" type="curve" smooth="yes"/>
      <point x="118" y="509"/>
      <point x="38" y="432"/>
      <point x="38" y="317" type="curve" smooth="yes"/>
      <point x="38" y="207"/>
      <point x="122" y="131"/>
      <point x="240" y="131" type="curve" smooth="yes"/>
      <point x="358" y="131"/>
      <point x="440" y="206"/>
      <point x="440" y="319" type="curve" smooth="yes"/>
    </contour>
    <contour>
      <point x="240" y="498" type="line"/>
      <point x="334" y="416" type="line"/>
      <point x="493" y="409" type="line"/>
      <point x="493" y="508" type="line"/>
    </contour>
    <contour>
      <point x="63" y="1"/>
      <point x="20" y="-53"/>
      <point x="20" y="-99" type="curve" smooth="yes"/>
      <point x="20" y="-176"/>
      <point x="114" y="-215"/>
      <point x="221" y="-215" type="curve" smooth="yes"/>
      <point x="398" y="-215"/>
      <point x="483" y="-131"/>
      <point x="483" y="-46" type="curve" smooth="yes"/>
      <point x="483" y="28"/>
      <point x="420" y="87"/>
      <point x="299" y="85" type="curve" smooth="yes"/>
      <point x="202" y="83" type="line" smooth="yes"/>
      <point x="166" y="82"/>
      <point x="145" y="90"/>
      <point x="145" y="113" type="curve" smooth="yes"/>
      <point x="145" y="123"/>
      <point x="152" y="135"/>
      <point x="168" y="146" type="curve"/>
      <point x="153" y="212" type="line"/>
      <point x="78" y="189"/>
      <point x="42" y="137"/>
      <point x="42" y="87" type="curve" smooth="yes"/>
      <point x="42" y="29"/>
      <point x="91" y="-25"/>
      <point x="181" y="-23" type="curve" smooth="yes"/>
      <point x="281" y="-21" type="line" smooth="yes"/>
      <point x="328" y="-20"/>
      <point x="357" y="-31"/>
      <point x="357" y="-57" type="curve" smooth="yes"/>
      <point x="357" y="-91"/>
      <point x="307" y="-114"/>
      <point x="239" y="-114" type="curve" smooth="yes"/>
      <point x="175" y="-114"/>
      <point x="140" y="-96"/>
      <point x="140" y="-65" type="curve" smooth="yes"/>
      <point x="140" y="-45"/>
      <point x="159" y="-22"/>
      <point x="199" y="-3" type="curve"/>
      <point x="152" y="36" type="line"/>
    </contour>
    <contour>
      <point x="236" y="500" type="move" name="top"/>
    </contour>
  </outline>
</glyph>
<glyph name="h" format="1">
  <advance width="527"/>
  <unicode hex="0068"/>
  <outline>
    <contour>
      <point x="507" y="85" type="line"/>
      <point x="482" y="85"/>
      <point x="471" y="94"/>
      <point x="471" y="119" type="curve" smooth="yes"/>
      <point x="471" y="336" type="line" smooth="yes"/>
      <point x="471" y="457"/>
      <point x="405" y="515"/>
      <point x="322" y="515" type="curve" smooth="yes"/>
      <point x="241" y="515"/>
      <point x="163" y="459"/>
      <point x="136" y="348" type="curve"/>
      <point x="185" y="348" type="line"/>
      <point x="185" y="725" type="line"/>
      <point x="55" y="725" type="line"/>
      <point x="55" y="0" type="line"/>
      <point x="185" y="0" type="line"/>
      <point x="185" y="257" type="line" smooth="yes"/>
      <point x="185" y="366"/>
      <point x="228" y="415"/>
      <point x="276" y="415" type="curve" smooth="yes"/>
      <point x="315" y="415"/>
      <point x="341" y="383"/>
      <point x="341" y="326" type="curve" smooth="yes"/>
      <point x="341" y="117" type="line" smooth="yes"/>
      <point x="341" y="7"/>
      <point x="397" y="-15"/>
      <point x="507" y="-15" type="curve"/>
    </contour>
  </outline>
</glyph>
<glyph name="i" format="1">
  <advance width="245"/>
  <unicode hex="0069"/>
  <outline>
    <contour>
      <point x="187" y="0" type="line"/>
      <point x="187" y="500" type="line"/>
      <point x="57" y="500" type="line"/>
      <point x="57" y="0" type="line"/>
    </contour>
    <contour>
      <point x="161" y="553"/>
      <point x="201" y="582"/>
      <point x="201" y="640" type="curve" smooth="yes"/>
      <point x="201" y="696"/>
      <point x="162" y="724"/>
      <point x="123" y="724" type="curve" smooth="yes"/>
      <point x="84" y="724"/>
      <point x="45" y="696"/>
      <point x="45" y="640" type="curve" smooth="yes"/>
      <point x="45" y="581"/>
      <point x="83" y="553"/>
      <point x="122" y="553" type="curve" smooth="yes"/>
    </contour>
  </outline>
</glyph>
<glyph name="j" format="1">
  <advance width="252"/>
  <unicode hex="006A"/>
  <outline>
    <contour>
      <point x="126" y="-215"/>
      <point x="194" y="-158"/>
      <point x="194" y="-49" type="curve" smooth="yes"/>
      <point x="194" y="500" type="line"/>
      <point x="64" y="500" type="line"/>
      <point x="64" y="-43" type="line" smooth="yes"/>
      <point x="64" y="-90"/>
      <point x="48" y="-110"/>
      <point x="19" y="-110" type="curve" smooth="yes"/>
      <point x="4" y="-110"/>
      <point x="-16" y="-105"/>
      <point x="-39" y="-94" type="curve"/>
      <point x="-77" y="-187" type="line"/>
      <point x="-37" y="-207"/>
      <point x="3" y="-215"/>
      <point x="39" y="-215" type="curve" smooth="yes"/>
    </contour>
    <contour>
      <point x="168" y="553"/>
      <point x="208" y="582"/>
      <point x="208" y="640" type="curve" smooth="yes"/>
      <point x="208" y="696"/>
      <point x="169" y="724"/>
      <point x="130" y="724" type="curve" smooth="yes"/>
      <point x="91" y="724"/>
      <point x="52" y="696"/>
      <point x="52" y="640" type="curve" smooth="yes"/>
      <point x="52" y="581"/>
      <point x="90" y="553"/>
      <point x="129" y="553" type="curve" smooth="yes"/>
    </contour>
  </outline>
</glyph>
<glyph name="k" format="1">
  <advance width="508"/>
  <unicode hex="006B"/>
  <outline>
    <contour>
      <point x="190" y="725" type="line"/>
      <point x="60" y="725" type="line"/>
      <point x="60" y="-1" type="line"/>
      <point x="190" y="1" type="line"/>
    </contour>
    <contour>
      <point x="379" y="-1"/>
      <point x="407" y="-15"/>
      <point x="503" y="-15" type="curve"/>
      <point x="503" y="85" type="line"/>
      <point x="477" y="85"/>
      <point x="461" y="89"/>
      <point x="449" y="111" type="curve" smooth="yes"/>
      <point x="335" y="311" type="line"/>
      <point x="335" y="248" type="line"/>
      <point x="489" y="500" type="line"/>
      <point x="361" y="500" type="line"/>
      <point x="268" y="339" type="line"/>
      <point x="124" y="338" type="line"/>
      <point x="124" y="234" type="line"/>
      <point x="252" y="234" type="line"/>
      <point x="343" y="66" type="line" smooth="yes"/>
    </contour>
  </outline>
</glyph>
<glyph name="l" format="1">
  <advance width="259"/>
  <unicode hex="006C"/>
  <outline>
    <contour>
      <point x="204" y="-15"/>
      <point x="233" y="-10"/>
      <point x="264" y="0" type="curve"/>
      <point x="246" y="94" type="line"/>
      <point x="237" y="91"/>
      <point x="229" y="90"/>
      <point x="222" y="90" type="curve" smooth="yes"/>
      <point x="198" y="90"/>
      <point x="187" y="107"/>
      <point x="187" y="141" type="curve" smooth="yes"/>
      <point x="187" y="725" type="line"/>
      <point x="57" y="725" type="line"/>
      <point x="57" y="115" type="line" smooth="yes"/>
      <point x="57" y="27"/>
      <point x="105" y="-15"/>
      <point x="178" y="-15" type="curve" smooth="yes"/>
    </contour>
  </outline>
</glyph>
<glyph name="m" format="1">
  <advance width="793"/>
  <unicode hex="006D"/>
  <outline>
    <contour>
      <point x="731" y="339" type="line" smooth="yes"/>
      <point x="731" y="457"/>
      <point x="665" y="516"/>
      <point x="591" y="516" type="curve" smooth="yes"/>
      <point x="518" y="516"/>
      <point x="443" y="459"/>
      <point x="417" y="349" type="curve"/>
      <point x="461" y="349" type="line"/>
      <point x="457" y="460"/>
      <point x="393" y="516"/>
      <point x="318" y="516" type="curve" smooth="yes"/>
      <point x="247" y="516"/>
      <point x="169" y="459"/>
      <point x="143" y="350" type="curve"/>
      <point x="185" y="350" type="line"/>
      <point x="180" y="500" type="line"/>
      <point x="55" y="500" type="line"/>
      <point x="55" y="0" type="line"/>
      <point x="185" y="0" type="line"/>
      <point x="185" y="258" type="line" smooth="yes"/>
      <point x="185" y="369"/>
      <point x="228" y="413"/>
      <point x="274" y="413" type="curve" smooth="yes"/>
      <point x="309" y="413"/>
      <point x="331" y="383"/>
      <point x="331" y="327" type="curve" smooth="yes"/>
      <point x="331" y="0" type="line"/>
      <point x="461" y="0" type="line"/>
      <point x="461" y="258" type="line" smooth="yes"/>
      <point x="461" y="369"/>
      <point x="501" y="413"/>
      <point x="547" y="413" type="curve" smooth="yes"/>
      <point x="579" y="413"/>
      <point x="601" y="383"/>
      <point x="601" y="327" type="curve" smooth="yes"/>
      <point x="601" y="110" type="line" smooth="yes"/>
      <point x="601" y="0"/>
      <point x="674" y="-29"/>
      <point x="772" y="-9" type="curve"/>
      <point x="767" y="86" type="line"/>
      <point x="741" y="83"/>
      <point x="731" y="93"/>
      <point x="731" y="117" type="curve" smooth="yes"/>
    </contour>
  </outline>
</glyph>
<glyph name="n" format="1">
  <advance width="527"/>
  <unicode hex="006E"/>
  <outline>
    <contour>
      <point x="507" y="85" type="line"/>
      <point x="482" y="85"/>
      <point x="471" y="94"/>
      <point x="471" y="119" type="curve" smooth="yes"/>
      <point x="471" y="339" type="line" smooth="yes"/>
      <point x="471" y="456"/>
      <point x="405" y="515"/>
      <point x="322" y="515" type="curve" smooth="yes"/>
      <point x="243" y="515"/>
      <point x="166" y="460"/>
      <point x="139" y="350" type="curve"/>
      <point x="185" y="350" type="line"/>
      <point x="180" y="500" type="line"/>
      <point x="55" y="500" type="line"/>
      <point x="55" y="0" type="line"/>
      <point x="185" y="0" type="line"/>
      <point x="185" y="255" type="line" smooth="yes"/>
      <point x="185" y="368"/>
      <point x="231" y="415"/>
      <point x="279" y="415" type="curve" smooth="yes"/>
      <point x="319" y="415"/>
      <point x="341" y="380"/>
      <point x="341" y="329" type="curve" smooth="yes"/>
      <point x="341" y="117" type="line" smooth="yes"/>
      <point x="341" y="7"/>
      <point x="397" y="-15"/>
      <point x="507" y="-15" type="curve"/>
    </contour>
  </outline>
</glyph>
<glyph name="o" format="1">
  <advance width="512"/>
  <unicode hex="006F"/>
  <outline>
    <contour>
      <point x="355" y="143"/>
      <point x="313" y="90"/>
      <point x="256" y="90" type="curve" smooth="yes"/>
      <point x="200" y="90"/>
      <point x="158" y="143"/>
      <point x="158" y="250" type="curve" smooth="yes"/>
      <point x="158" y="356"/>
      <point x="201" y="410"/>
      <point x="257" y="410" type="curve" smooth="yes"/>
      <point x="313" y="410"/>
      <point x="355" y="357"/>
      <point x="355" y="248" type="curve" smooth="yes"/>
    </contour>
    <contour>
      <point x="487" y="412"/>
      <point x="406" y="515"/>
      <point x="260" y="515" type="curve" smooth="yes"/>
      <point x="114" y="515"/>
      <point x="25" y="411"/>
      <point x="25" y="248" type="curve" smooth="yes"/>
      <point x="25" y="90"/>
      <point x="106" y="-15"/>
      <point x="251" y="-15" type="curve" smooth="yes"/>
      <point x="398" y="-15"/>
      <point x="487" y="83"/>
      <point x="487" y="250" type="curve" smooth="yes"/>
    </contour>
  </outline>
</glyph>
<glyph name="p" format="1">
  <advance width="511"/>
  <unicode hex="0070"/>
  <outline>
    <contour>
      <point x="185" y="-200" type="line"/>
      <point x="186" y="284" type="line" smooth="yes"/>
      <point x="186" y="368"/>
      <point x="222" y="410"/>
      <point x="267" y="410" type="curve" smooth="yes"/>
      <point x="314" y="410"/>
      <point x="350" y="364"/>
      <point x="350" y="274" type="curve" smooth="yes"/>
      <point x="350" y="163"/>
      <point x="319" y="90"/>
      <point x="246" y="90" type="curve" smooth="yes"/>
      <point x="227" y="90"/>
      <point x="205" y="94"/>
      <point x="180" y="104" type="curve"/>
      <point x="80" y="33" type="line"/>
      <point x="142" y="0"/>
      <point x="192" y="-15"/>
      <point x="247" y="-15" type="curve" smooth="yes"/>
      <point x="391" y="-15"/>
      <point x="483" y="91"/>
      <point x="483" y="276" type="curve" smooth="yes"/>
      <point x="483" y="427"/>
      <point x="402" y="515"/>
      <point x="301" y="515" type="curve" smooth="yes"/>
      <point x="230" y="515"/>
      <point x="164" y="470"/>
      <point x="131" y="370" type="curve"/>
      <point x="184" y="370" type="line"/>
      <point x="176" y="500" type="line"/>
      <point x="56" y="500" type="line"/>
      <point x="55" y="-200" type="line"/>
    </contour>
  </outline>
</glyph>
<glyph name="q" format="1">
  <advance width="511"/>
  <unicode hex="0071"/>
  <outline>
    <contour>
      <point x="122" y="515"/>
      <point x="28" y="409"/>
      <point x="28" y="224" type="curve" smooth="yes"/>
      <point x="28" y="75"/>
      <point x="104" y="-15"/>
      <point x="211" y="-15" type="curve" smooth="yes"/>
      <point x="286" y="-15"/>
      <point x="350" y="30"/>
      <point x="377" y="130" type="curve"/>
      <point x="322" y="130" type="line"/>
      <point x="325" y="-225" type="line"/>
      <point x="455" y="-225" type="line"/>
      <point x="456" y="470" type="line"/>
      <point x="394" y="500"/>
      <point x="329" y="515"/>
      <point x="264" y="515" type="curve" smooth="yes"/>
    </contour>
    <contour>
      <point x="284" y="410"/>
      <point x="301" y="406"/>
      <point x="326" y="396" type="curve"/>
      <point x="325" y="211" type="line" smooth="yes"/>
      <point x="325" y="129"/>
      <point x="292" y="90"/>
      <point x="244" y="90" type="curve" smooth="yes"/>
      <point x="196" y="90"/>
      <point x="161" y="138"/>
      <point x="161" y="226" type="curve" smooth="yes"/>
      <point x="161" y="335"/>
      <point x="192" y="410"/>
      <point x="265" y="410" type="curve" smooth="yes"/>
    </contour>
  </outline>
</glyph>
<glyph name="r" format="1">
  <advance width="340"/>
  <unicode hex="0072"/>
  <outline>
    <contour>
      <point x="187" y="0" type="line"/>
      <point x="187" y="254" type="line" smooth="yes"/>
      <point x="187" y="344"/>
      <point x="226" y="394"/>
      <point x="281" y="394" type="curve" smooth="yes"/>
      <point x="296" y="394"/>
      <point x="312" y="390"/>
      <point x="329" y="383" type="curve"/>
      <point x="343" y="514" type="line"/>
      <point x="335" y="515"/>
      <point x="327" y="515"/>
      <point x="319" y="515" type="curve" smooth="yes"/>
      <point x="230" y="515"/>
      <point x="185" y="454"/>
      <point x="161" y="350" type="curve"/>
      <point x="187" y="350" type="line"/>
      <point x="179" y="505" type="line"/>
      <point x="57" y="505" type="line"/>
      <point x="57" y="0" type="line"/>
    </contour>
    <contour>
      <point x="141" y="500" type="move" name="top"/>
    </contour>
    <contour>
      <point x="171" y="0" type="move" name="bottom"/>
    </contour>
  </outline>
</glyph>
<glyph name="s" format="1">
  <advance width="417"/>
  <unicode hex="0073"/>
  <outline>
    <contour>
      <point x="80" y="6"/>
      <point x="143" y="-15"/>
      <point x="201" y="-15" type="curve" smooth="yes"/>
      <point x="300" y="-15"/>
      <point x="389" y="42"/>
      <point x="389" y="149" type="curve" smooth="yes"/>
      <point x="389" y="320"/>
      <point x="177" y="291"/>
      <point x="177" y="373" type="curve" smooth="yes"/>
      <point x="177" y="405"/>
      <point x="200" y="419"/>
      <point x="232" y="419" type="curve" smooth="yes"/>
      <point x="264" y="419"/>
      <point x="305" y="405"/>
      <point x="339" y="382" type="curve"/>
      <point x="384" y="458" type="line"/>
      <point x="343" y="497"/>
      <point x="285" y="515"/>
      <point x="229" y="515" type="curve" smooth="yes"/>
      <point x="136" y="515"/>
      <point x="48" y="464"/>
      <point x="48" y="367" type="curve" smooth="yes"/>
      <point x="48" y="196"/>
      <point x="260" y="232"/>
      <point x="260" y="139" type="curve" smooth="yes"/>
      <point x="260" y="101"/>
      <point x="231" y="85"/>
      <point x="194" y="85" type="curve" smooth="yes"/>
      <point x="156" y="85"/>
      <point x="110" y="100"/>
      <point x="77" y="123" type="curve"/>
      <point x="30" y="47" type="line"/>
    </contour>
  </outline>
</glyph>
<glyph name="t" format="1">
  <advance width="354"/>
  <unicode hex="0074"/>
  <outline>
    <contour>
      <point x="300" y="96"/>
      <point x="281" y="90"/>
      <point x="266" y="90" type="curve" smooth="yes"/>
      <point x="235" y="90"/>
      <point x="215" y="113"/>
      <point x="215" y="162" type="curve" smooth="yes"/>
      <point x="215" y="635" type="line"/>
      <point x="85" y="635" type="line"/>
      <point x="85" y="151" type="line" smooth="yes"/>
      <point x="85" y="44"/>
      <point x="144" y="-15"/>
      <point x="224" y="-15" type="curve" smooth="yes"/>
      <point x="263" y="-15"/>
      <point x="308" y="-1"/>
      <point x="354" y="30" type="curve"/>
      <point x="319" y="108" type="line"/>
    </contour>
    <contour>
      <point x="27" y="500" type="line"/>
      <point x="27" y="405" type="line"/>
      <point x="318" y="405" type="line"/>
      <point x="318" y="500" type="line"/>
    </contour>
  </outline>
</glyph>
<glyph name="u" format="1">
  <advance width="533"/>
  <unicode hex="0075"/>
  <outline>
    <contour>
      <point x="363" y="18"/>
      <point x="406" y="-15"/>
      <point x="469" y="-15" type="curve" smooth="yes"/>
      <point x="486" y="-15"/>
      <point x="505" y="-13"/>
      <point x="525" y="-8" type="curve"/>
      <point x="521" y="87" type="line"/>
      <point x="516" y="86"/>
      <point x="511" y="86"/>
      <point x="507" y="86" type="curve" smooth="yes"/>
      <point x="481" y="86"/>
      <point x="472" y="100"/>
      <point x="472" y="133" type="curve" smooth="yes"/>
      <point x="472" y="500" type="line"/>
      <point x="342" y="500" type="line"/>
      <point x="342" y="245" type="line" smooth="yes"/>
      <point x="342" y="144"/>
      <point x="307" y="88"/>
      <point x="251" y="88" type="curve" smooth="yes"/>
      <point x="207" y="88"/>
      <point x="186" y="121"/>
      <point x="186" y="176" type="curve" smooth="yes"/>
      <point x="186" y="500" type="line"/>
      <point x="56" y="500" type="line"/>
      <point x="56" y="161" type="line" smooth="yes"/>
      <point x="56" y="49"/>
      <point x="114" y="-12"/>
      <point x="214" y="-12" type="curve" smooth="yes"/>
      <point x="271" y="-12"/>
      <point x="337" y="23"/>
      <point x="374" y="100" type="curve"/>
      <point x="363" y="100" type="line"/>
    </contour>
    <contour>
      <point x="525" y="10" type="move" name="ogonek"/>
    </contour>
    <contour>
      <point x="269" y="500" type="move" name="top"/>
    </contour>
  </outline>
</glyph>
<glyph name="v" format="1">
  <advance width="481"/>
  <unicode hex="0076"/>
  <outline>
    <contour>
      <point x="222" y="113" type="line"/>
      <point x="261" y="113" type="line"/>
      <point x="134" y="500" type="line"/>
      <point x="1" y="500" type="line"/>
      <point x="175" y="0" type="line"/>
      <point x="304" y="0" type="line"/>
      <point x="479" y="500" type="line"/>
      <point x="352" y="500" type="line"/>
    </contour>
  </outline>
</glyph>
<glyph name="w" format="1">
  <advance width="720"/>
  <unicode hex="0077"/>
  <outline>
    <contour>
      <point x="263" y="0" type="line"/>
      <point x="366" y="332" type="line"/>
      <point x="355" y="332" type="line"/>
      <point x="448" y="0" type="line"/>
      <point x="554" y="0" type="line"/>
      <point x="715" y="500" type="line"/>
      <point x="599" y="500" type="line"/>
      <point x="486" y="107" type="line"/>
      <point x="530" y="107" type="line"/>
      <point x="427" y="483" type="line"/>
      <point x="309" y="478" type="line"/>
      <point x="195" y="107" type="line"/>
      <point x="239" y="107" type="line"/>
      <point x="136" y="500" type="line"/>
      <point x="4" y="500" type="line"/>
      <point x="157" y="0" type="line"/>
    </contour>
  </outline>
</glyph>
<glyph name="x" format="1">
  <advance width="464"/>
  <unicode hex="0078"/>
  <outline>
    <contour>
      <point x="459" y="84" type="line"/>
      <point x="455" y="83"/>
      <point x="451" y="83"/>
      <point x="448" y="83" type="curve" smooth="yes"/>
      <point x="430" y="83"/>
      <point x="416" y="90"/>
      <point x="405" y="107" type="curve" smooth="yes"/>
      <point x="280" y="301" type="line"/>
      <point x="163" y="500" type="line"/>
      <point x="20" y="500" type="line"/>
      <point x="198" y="217" type="line"/>
      <point x="287" y="68" type="line" smooth="yes"/>
      <point x="322" y="9"/>
      <point x="357" y="-15"/>
      <point x="410" y="-15" type="curve" smooth="yes"/>
      <point x="426" y="-15"/>
      <point x="446" y="-13"/>
      <point x="464" y="-9" type="curve"/>
    </contour>
    <contour>
      <point x="134" y="0" type="line"/>
      <point x="259" y="202" type="line"/>
      <point x="277" y="232" type="line"/>
      <point x="459" y="500" type="line"/>
      <point x="330" y="500" type="line"/>
      <point x="214" y="313" type="line"/>
      <point x="192" y="287" type="line"/>
      <point x="2" y="0" type="line"/>
    </contour>
  </outline>
</glyph>
<glyph name="y" format="1">
  <advance width="483"/>
  <unicode hex="0079"/>
  <outline>
    <contour>
      <point x="357" y="500" type="line"/>
      <point x="237" y="87" type="line"/>
      <point x="276" y="87" type="line"/>
      <point x="146" y="500" type="line"/>
      <point x="15" y="500" type="line"/>
      <point x="192" y="-1" type="line"/>
      <point x="163" y="-67" type="line" smooth="yes"/>
      <point x="149" y="-99"/>
      <point x="127" y="-112"/>
      <point x="100" y="-112" type="curve" smooth="yes"/>
      <point x="77" y="-112"/>
      <point x="52" y="-103"/>
      <point x="22" y="-88" type="curve"/>
      <point x="-19" y="-182" type="line"/>
      <point x="22" y="-203"/>
      <point x="62" y="-215"/>
      <point x="100" y="-215" type="curve" smooth="yes"/>
      <point x="183" y="-215"/>
      <point x="252" y="-160"/>
      <point x="291" y="-49" type="curve" smooth="yes"/>
      <point x="484" y="500" type="line"/>
    </contour>
  </outline>
</glyph>
<glyph name="z" format="1">
  <advance width="458"/>
  <unicode hex="007A"/>
  <outline>
    <contour>
      <point x="198" y="93" type="line"/>
      <point x="413" y="432" type="line"/>
      <point x="413" y="500" type="line"/>
      <point x="46" y="500" type="line"/>
      <point x="46" y="408" type="line"/>
      <point x="260" y="408" type="line"/>
      <point x="40" y="65" type="line"/>
      <point x="40" y="0" type="line"/>
      <point x="418" y="0" type="line"/>
      <point x="418" y="93" type="line"/>
    </contour>
  </outline>
</glyph>
<glyph name="bar" format="1">
  <advance width="262"/>
  <unicode hex="007C"/>
  <outline>
    <contour>
      <point x="82" y="725" type="line"/>
      <point x="80" y="-70" type="line"/>
      <point x="182" y="-70" type="line"/>
      <point x="182" y="725" type="line"/>
    </contour>
  </outline>
</glyph>
<glyph name="asciitilde" format="1">
  <advance width="536"/>
  <unicode hex="007E"/>
  <outline>
    <contour>
      <point x="420" y="182"/>
      <point x="463" y="208"/>
      <point x="511" y="266" type="curve"/>
      <point x="449" y="338" type="line"/>
      <point x="422" y="312"/>
      <point x="395" y="301"/>
      <point x="366" y="301" type="curve" smooth="yes"/>
      <point x="302" y="301"/>
      <point x="244" y="353"/>
      <point x="170" y="353" type="curve" smooth="yes"/>
      <point x="119" y="353"/>
      <point x="74" y="329"/>
      <point x="25" y="272" type="curve"/>
      <point x="87" y="197" type="line"/>
      <point x="117" y="223"/>
      <point x="144" y="234"/>
      <point x="172" y="234" type="curve" smooth="yes"/>
      <point x="234" y="234"/>
      <point x="293" y="182"/>
      <point x="367" y="182" type="curve" smooth="yes"/>
    </contour>
  </outline>
</glyph>
<glyph name="cent" format="1">
  <advance width="434"/>
  <unicode hex="00A2"/>
  <outline>
    <contour>
      <point x="293" y="5"/>
      <point x="347" y="22"/>
      <point x="410" y="59" type="curve"/>
      <point x="374" y="147" type="line"/>
      <point x="328" y="124"/>
      <point x="292" y="114"/>
      <point x="265" y="114" type="curve" smooth="yes"/>
      <point x="196" y="114"/>
      <point x="154" y="160"/>
      <point x="154" y="261" type="curve" smooth="yes"/>
      <point x="154" y="350"/>
      <point x="181" y="409"/>
      <point x="240" y="409" type="curve" smooth="yes"/>
      <point x="278" y="409"/>
      <point x="296" y="380"/>
      <point x="312" y="335" type="curve"/>
      <point x="419" y="375" type="line"/>
      <point x="387" y="469"/>
      <point x="331" y="514"/>
      <point x="239" y="514" type="curve" smooth="yes"/>
      <point x="110" y="514"/>
      <point x="21" y="418"/>
      <point x="21" y="263" type="curve" smooth="yes"/>
      <point x="21" y="101"/>
      <point x="102" y="5"/>
      <point x="237" y="5" type="curve" smooth="yes"/>
    </contour>
    <contour>
      <point x="190" y="69" type="line"/>
      <point x="190" y="-72" type="line"/>
      <point x="278" y="-72" type="line"/>
      <point x="278" y="69" type="line"/>
    </contour>
    <contour>
      <point x="190" y="587" type="line"/>
      <point x="190" y="467" type="line"/>
      <point x="278" y="467" type="line"/>
      <point x="278" y="587" type="line"/>
    </contour>
  </outline>
</glyph>
<glyph name="yen" format="1">
  <advance width="568"/>
  <unicode hex="00A5"/>
  <outline>
    <contour>
      <point x="348" y="0" type="line"/>
      <point x="348" y="253" type="line"/>
      <point x="556" y="675" type="line"/>
      <point x="415" y="675" type="line"/>
      <point x="328" y="478" type="line" smooth="yes"/>
      <point x="304" y="423"/>
      <point x="286" y="367"/>
      <point x="264" y="312" type="curve"/>
      <point x="305" y="312" type="line"/>
      <point x="284" y="367"/>
      <point x="266" y="423"/>
      <point x="241" y="478" type="curve" smooth="yes"/>
      <point x="153" y="675" type="line"/>
      <point x="12" y="675" type="line"/>
      <point x="216" y="254" type="line"/>
      <point x="216" y="0" type="line"/>
    </contour>
    <contour>
      <point x="494" y="111" type="line"/>
      <point x="494" y="201" type="line"/>
      <point x="71" y="201" type="line"/>
      <point x="71" y="111" type="line"/>
    </contour>
    <contour>
      <point x="494" y="253" type="line"/>
      <point x="494" y="343" type="line"/>
      <point x="71" y="343" type="line"/>
      <point x="71" y="253" type="line"/>
    </contour>
  </outline>
</glyph>
<glyph name="brokenbar" format="1">
  <advance width="262"/>
  <unicode hex="00A6"/>
  <outline>
    <contour>
      <point x="82" y="235" type="line"/>
      <point x="80" y="-70" type="line"/>
      <point x="182" y="-70" type="line"/>
      <point x="182" y="235" type="line"/>
    </contour>
    <contour>
      <point x="82" y="725" type="line"/>
      <point x="80" y="420" type="line"/>
      <point x="182" y="420" type="line"/>
      <point x="182" y="725" type="line"/>
    </contour>
  </outline>
</glyph>
<glyph name="section" format="1">
  <advance width="408"/>
  <unicode hex="00A7"/>
  <outline>
    <contour>
      <point x="308" y="134"/>
      <point x="381" y="194"/>
      <point x="381" y="294" type="curve" smooth="yes"/>
      <point x="381" y="448"/>
      <point x="177" y="469"/>
      <point x="177" y="545" type="curve" smooth="yes"/>
      <point x="177" y="579"/>
      <point x="205" y="593"/>
      <point x="234" y="593" type="curve" smooth="yes"/>
      <point x="253" y="591"/>
      <point x="274" y="584"/>
      <point x="290" y="570" type="curve"/>
      <point x="355" y="644" type="line"/>
      <point x="318" y="674"/>
      <point x="272" y="689"/>
      <point x="225" y="689" type="curve" smooth="yes"/>
      <point x="135" y="689"/>
      <point x="48" y="636"/>
      <point x="48" y="540" type="curve" smooth="yes"/>
      <point x="48" y="377"/>
      <point x="255" y="371"/>
      <point x="254" y="265" type="curve" smooth="yes"/>
      <point x="253" y="237"/>
      <point x="236" y="208"/>
      <point x="202" y="185" type="curve"/>
      <point x="207" y="127" type="line"/>
    </contour>
    <contour>
      <point x="269" y="-84"/>
      <point x="356" y="-26"/>
      <point x="356" y="81" type="curve" smooth="yes"/>
      <point x="356" y="235"/>
      <point x="152" y="249"/>
      <point x="152" y="349" type="curve" smooth="yes"/>
      <point x="152" y="379"/>
      <point x="173" y="407"/>
      <point x="207" y="420" type="curve"/>
      <point x="205" y="470" type="line"/>
      <point x="112" y="473"/>
      <point x="27" y="421"/>
      <point x="27" y="326" type="curve" smooth="yes"/>
      <point x="27" y="167"/>
      <point x="228" y="148"/>
      <point x="227" y="69" type="curve" smooth="yes"/>
      <point x="226" y="31"/>
      <point x="197" y="17"/>
      <point x="162" y="17" type="curve" smooth="yes"/>
      <point x="132" y="17"/>
      <point x="98" y="25"/>
      <point x="68" y="40" type="curve"/>
      <point x="34" y="-44" type="line"/>
      <point x="77" y="-70"/>
      <point x="125" y="-84"/>
      <point x="170" y="-84" type="curve" smooth="yes"/>
    </contour>
  </outline>
</glyph>
<glyph name="dieresis" format="1">
  <advance width="508"/>
  <unicode hex="00A8"/>
  <outline>
    <contour>
      <point x="183" y="571"/>
      <point x="218" y="595"/>
      <point x="218" y="646" type="curve" smooth="yes"/>
      <point x="218" y="695"/>
      <point x="184" y="718"/>
      <point x="151" y="718" type="curve" smooth="yes"/>
      <point x="117" y="718"/>
      <point x="83" y="695"/>
      <point x="83" y="646" type="curve" smooth="yes"/>
      <point x="83" y="595"/>
      <point x="116" y="571"/>
      <point x="150" y="571" type="curve" smooth="yes"/>
    </contour>
    <contour>
      <point x="390" y="571"/>
      <point x="425" y="595"/>
      <point x="425" y="646" type="curve" smooth="yes"/>
      <point x="425" y="695"/>
      <point x="391" y="718"/>
      <point x="357" y="718" type="curve" smooth="yes"/>
      <point x="324" y="718"/>
      <point x="290" y="695"/>
      <point x="290" y="646" type="curve" smooth="yes"/>
      <point x="290" y="595"/>
      <point x="323" y="571"/>
      <point x="356" y="571" type="curve" smooth="yes"/>
    </contour>
    <contour>
      <point x="254" y="500" type="move" name="_top"/>
    </contour>
  </outline>
</glyph>
<glyph name="copyright" format="1">
  <advance width="775"/>
  <unicode hex="00A9"/>
  <outline>
    <contour>
      <point x="565" y="-15"/>
      <point x="745" y="104"/>
      <point x="745" y="339" type="curve" smooth="yes"/>
      <point x="745" y="571"/>
      <point x="569" y="690"/>
      <point x="393" y="690" type="curve" smooth="yes"/>
      <point x="214" y="690"/>
      <point x="34" y="569"/>
      <point x="34" y="336" type="curve" smooth="yes"/>
      <point x="34" y="103"/>
      <point x="210" y="-15"/>
      <point x="387" y="-15" type="curve" smooth="yes"/>
    </contour>
    <contour>
      <point x="440" y="124"/>
      <point x="488" y="138"/>
      <point x="535" y="168" type="curve"/>
      <point x="495" y="240" type="line"/>
      <point x="459" y="219"/>
      <point x="427" y="209"/>
      <point x="401" y="209" type="curve" smooth="yes"/>
      <point x="346" y="209"/>
      <point x="313" y="252"/>
      <point x="313" y="333" type="curve" smooth="yes"/>
      <point x="313" y="417"/>
      <point x="340" y="462"/>
      <point x="391" y="462" type="curve" smooth="yes"/>
      <point x="422" y="462"/>
      <point x="440" y="446"/>
      <point x="455" y="406" type="curve"/>
      <point x="544" y="430" type="line"/>
      <point x="524" y="506"/>
      <point x="469" y="545"/>
      <point x="390" y="545" type="curve" smooth="yes"/>
      <point x="295" y="545"/>
      <point x="207" y="470"/>
      <point x="207" y="332" type="curve" smooth="yes"/>
      <point x="207" y="203"/>
      <point x="291" y="124"/>
      <point x="396" y="124" type="curve" smooth="yes"/>
    </contour>
    <contour>
      <point x="262" y="70"/>
      <point x="139" y="157"/>
      <point x="139" y="338" type="curve" smooth="yes"/>
      <point x="139" y="516"/>
      <point x="259" y="605"/>
      <point x="388" y="605" type="curve" smooth="yes"/>
      <point x="518" y="605"/>
      <point x="640" y="516"/>
      <point x="640" y="337" type="curve" smooth="yes"/>
      <point x="640" y="157"/>
      <point x="521" y="70"/>
      <point x="392" y="70" type="curve" smooth="yes"/>
    </contour>
  </outline>
</glyph>
<glyph name="registered" format="1">
  <advance width="779"/>
  <unicode hex="00AE"/>
  <outline>
    <contour>
      <point x="347" y="134" type="line"/>
      <point x="347" y="479" type="line"/>
      <point x="332" y="465" type="line"/>
      <point x="344" y="466"/>
      <point x="370" y="466"/>
      <point x="382" y="466" type="curve" smooth="yes"/>
      <point x="425" y="466"/>
      <point x="441" y="444"/>
      <point x="441" y="409" type="curve" smooth="yes"/>
      <point x="441" y="377"/>
      <point x="422" y="352"/>
      <point x="387" y="352" type="curve" smooth="yes"/>
      <point x="305" y="352" type="line"/>
      <point x="305" y="280" type="line"/>
      <point x="382" y="280" type="line" smooth="yes"/>
      <point x="491" y="280"/>
      <point x="534" y="346"/>
      <point x="534" y="417" type="curve" smooth="yes"/>
      <point x="534" y="505"/>
      <point x="473" y="539"/>
      <point x="380" y="539" type="curve" smooth="yes"/>
      <point x="329" y="539"/>
      <point x="290" y="538"/>
      <point x="257" y="537" type="curve"/>
      <point x="257" y="134" type="line"/>
    </contour>
    <contour>
      <point x="434" y="175" type="line" smooth="yes"/>
      <point x="448" y="144"/>
      <point x="471" y="126"/>
      <point x="506" y="126" type="curve" smooth="yes"/>
      <point x="516" y="126"/>
      <point x="533" y="127"/>
      <point x="545" y="130" type="curve"/>
      <point x="543" y="192" type="line"/>
      <point x="540" y="192"/>
      <point x="538" y="192"/>
      <point x="535" y="192" type="curve" smooth="yes"/>
      <point x="525" y="192"/>
      <point x="518" y="196"/>
      <point x="512" y="207" type="curve" smooth="yes"/>
      <point x="448" y="330" type="line"/>
      <point x="365" y="322" type="line"/>
    </contour>
    <contour>
      <point x="565" y="-15"/>
      <point x="745" y="104"/>
      <point x="745" y="339" type="curve" smooth="yes"/>
      <point x="745" y="571"/>
      <point x="569" y="690"/>
      <point x="393" y="690" type="curve" smooth="yes"/>
      <point x="214" y="690"/>
      <point x="34" y="569"/>
      <point x="34" y="336" type="curve" smooth="yes"/>
      <point x="34" y="103"/>
      <point x="210" y="-15"/>
      <point x="387" y="-15" type="curve" smooth="yes"/>
    </contour>
    <contour>
      <point x="262" y="70"/>
      <point x="139" y="157"/>
      <point x="139" y="338" type="curve" smooth="yes"/>
      <point x="139" y="516"/>
      <point x="259" y="605"/>
      <point x="388" y="605" type="curve" smooth="yes"/>
      <point x="518" y="605"/>
      <point x="640" y="516"/>
      <point x="640" y="337" type="curve" smooth="yes"/>
      <point x="640" y="157"/>
      <point x="521" y="70"/>
      <point x="392" y="70" type="curve" smooth="yes"/>
    </contour>
  </outline>
</glyph>
<glyph name="macron" format="1">
  <advance width="380"/>
  <unicode hex="00AF"/>
  <outline>
    <contour>
      <point x="50" y="694" type="line"/>
      <point x="50" y="594" type="line"/>
      <point x="330" y="594" type="line"/>
      <point x="330" y="694" type="line"/>
    </contour>
    <contour>
      <point x="190" y="500" type="move" name="_top"/>
    </contour>
  </outline>
</glyph>
<glyph name="degree" format="1">
  <advance width="381"/>
  <unicode hex="00B0"/>
  <outline>
    <contour>
      <point x="351" y="699"/>
      <point x="272" y="754"/>
      <point x="192" y="754" type="curve" smooth="yes"/>
      <point x="111" y="754"/>
      <point x="30" y="698"/>
      <point x="30" y="588" type="curve" smooth="yes"/>
      <point x="30" y="485"/>
      <point x="108" y="431"/>
      <point x="187" y="431" type="curve" smooth="yes"/>
      <point x="269" y="431"/>
      <point x="351" y="488"/>
      <point x="351" y="591" type="curve" smooth="yes"/>
    </contour>
    <contour>
      <point x="256" y="544"/>
      <point x="223" y="520"/>
      <point x="190" y="520" type="curve" smooth="yes"/>
      <point x="157" y="520"/>
      <point x="125" y="544"/>
      <point x="125" y="594" type="curve" smooth="yes"/>
      <point x="125" y="641"/>
      <point x="158" y="665"/>
      <point x="191" y="665" type="curve" smooth="yes"/>
      <point x="223" y="665"/>
      <point x="256" y="640"/>
      <point x="256" y="589" type="curve" smooth="yes"/>
    </contour>
  </outline>
</glyph>
<glyph name="plusminus" format="1">
  <advance width="494"/>
  <unicode hex="00B1"/>
  <outline>
    <contour>
      <point x="459" y="-10" type="line"/>
      <point x="459" y="100" type="line"/>
      <point x="35" y="100" type="line"/>
      <point x="35" y="-10" type="line"/>
    </contour>
    <contour>
      <point x="310" y="147" type="line"/>
      <point x="310" y="523" type="line"/>
      <point x="185" y="523" type="line"/>
      <point x="185" y="147" type="line"/>
    </contour>
    <contour>
      <point x="459" y="281" type="line"/>
      <point x="459" y="389" type="line"/>
      <point x="35" y="389" type="line"/>
      <point x="35" y="281" type="line"/>
    </contour>
  </outline>
</glyph>
<glyph name="threesuperior" format="1">
  <advance width="356"/>
  <unicode hex="00B3"/>
  <outline>
    <contour>
      <point x="103" y="250"/>
      <point x="155" y="250" type="curve" smooth="yes"/>
      <point x="242" y="250"/>
      <point x="321" y="293"/>
      <point x="321" y="378" type="curve" smooth="yes"/>
      <point x="321" y="437"/>
      <point x="269" y="494"/>
      <point x="169" y="494" type="curve"/>
      <point x="170" y="477" type="line"/>
      <point x="265" y="477"/>
      <point x="307" y="528"/>
      <point x="307" y="581" type="curve" smooth="yes"/>
      <point x="307" y="661"/>
      <point x="233" y="690"/>
      <point x="158" y="690" type="curve" smooth="yes"/>
      <point x="102" y="690"/>
      <point x="45" y="668"/>
      <point x="18" y="622" type="curve"/>
      <point x="85" y="569" type="line"/>
      <point x="98" y="593"/>
      <point x="126" y="605"/>
      <point x="150" y="605" type="curve" smooth="yes"/>
      <point x="175" y="605"/>
      <point x="197" y="592"/>
      <point x="197" y="565" type="curve" smooth="yes"/>
      <point x="197" y="538"/>
      <point x="174" y="520"/>
      <point x="126" y="520" type="curve" smooth="yes"/>
      <point x="94" y="520" type="line"/>
      <point x="94" y="438" type="line"/>
      <point x="135" y="438" type="line" smooth="yes"/>
      <point x="187" y="438"/>
      <point x="210" y="420"/>
      <point x="210" y="392" type="curve" smooth="yes"/>
      <point x="210" y="361"/>
      <point x="183" y="348"/>
      <point x="150" y="348" type="curve" smooth="yes"/>
      <point x="119" y="348"/>
      <point x="82" y="359"/>
      <point x="56" y="379" type="curve"/>
      <point x="7" y="295" type="line"/>
      <point x="49" y="265"/>
    </contour>
  </outline>
</glyph>
<glyph name="acute" format="1">
  <advance width="321"/>
  <unicode hex="00B4"/>
  <outline>
    <contour>
      <point x="298" y="669" type="line"/>
      <point x="235" y="763" type="line"/>
      <point x="44" y="629" type="line"/>
      <point x="94" y="552" type="line"/>
    </contour>
    <contour>
      <point x="130" y="500" type="move" name="_top"/>
    </contour>
  </outline>
</glyph>
<glyph name="uni00B5" format="1">
  <advance width="600"/>
  <unicode hex="00B5"/>
  <outline>
    <contour>
      <point x="186" y="-200" type="line"/>
      <point x="182" y="16" type="line"/>
      <point x="165" y="16" type="line"/>
      <point x="186" y="-3"/>
      <point x="210" y="-12"/>
      <point x="234" y="-12" type="curve" smooth="yes"/>
      <point x="287" y="-12"/>
      <point x="341" y="32"/>
      <point x="374" y="100" type="curve"/>
      <point x="363" y="100" type="line"/>
      <point x="363" y="18"/>
      <point x="406" y="-15"/>
      <point x="469" y="-15" type="curve" smooth="yes"/>
      <point x="486" y="-15"/>
      <point x="505" y="-13"/>
      <point x="525" y="-8" type="curve"/>
      <point x="521" y="87" type="line"/>
      <point x="516" y="86"/>
      <point x="511" y="86"/>
      <point x="507" y="86" type="curve" smooth="yes"/>
      <point x="481" y="86"/>
      <point x="472" y="100"/>
      <point x="472" y="133" type="curve" smooth="yes"/>
      <point x="472" y="500" type="line"/>
      <point x="342" y="500" type="line"/>
      <point x="342" y="245" type="line" smooth="yes"/>
      <point x="342" y="144"/>
      <point x="307" y="88"/>
      <point x="251" y="88" type="curve" smooth="yes"/>
      <point x="206" y="88"/>
      <point x="186" y="121"/>
      <point x="186" y="176" type="curve" smooth="yes"/>
      <point x="186" y="500" type="line"/>
      <point x="56" y="500" type="line"/>
      <point x="56" y="-200" type="line"/>
    </contour>
  </outline>
</glyph>
<glyph name="periodcentered" format="1">
  <advance width="268"/>
  <unicode hex="00B7"/>
  <outline>
    <contour>
      <point x="89" y="178"/>
      <point x="133" y="178" type="curve" smooth="yes"/>
      <point x="177" y="178"/>
      <point x="222" y="212"/>
      <point x="222" y="276" type="curve" smooth="yes"/>
      <point x="222" y="339"/>
      <point x="178" y="370"/>
      <point x="134" y="370" type="curve" smooth="yes"/>
      <point x="90" y="370"/>
      <point x="46" y="339"/>
      <point x="46" y="276" type="curve" smooth="yes"/>
      <point x="46" y="211"/>
    </contour>
  </outline>
</glyph>
<glyph name="cedilla" format="1">
  <advance width="425"/>
  <unicode hex="00B8"/>
  <outline>
    <contour>
      <point x="154" y="-220"/>
      <point x="171" y="-220" type="curve" smooth="yes"/>
      <point x="269" y="-220"/>
      <point x="322" y="-165"/>
      <point x="322" y="-109" type="curve" smooth="yes"/>
      <point x="322" y="-60"/>
      <point x="282" y="-10"/>
      <point x="200" y="5" type="curve"/>
      <point x="120" y="3" type="line"/>
      <point x="190" y="-13"/>
      <point x="224" y="-48"/>
      <point x="224" y="-78" type="curve" smooth="yes"/>
      <point x="224" y="-114"/>
      <point x="194" y="-127"/>
      <point x="155" y="-127" type="curve" smooth="yes"/>
      <point x="144" y="-127"/>
      <point x="131" y="-126"/>
      <point x="119" y="-124" type="curve"/>
      <point x="117" y="-214" type="line"/>
      <point x="135" y="-218"/>
    </contour>
    <contour>
      <point x="208" y="0" type="move" name="_bottom"/>
    </contour>
  </outline>
</glyph>
<glyph name="onesuperior" format="1">
  <advance width="342"/>
  <unicode hex="00B9"/>
  <outline>
    <contour>
      <point x="63" y="534" type="line"/>
      <point x="28" y="622" type="line"/>
      <point x="152" y="675" type="line"/>
      <point x="251" y="675" type="line"/>
      <point x="251" y="270" type="line"/>
      <point x="141" y="270" type="line"/>
      <point x="141" y="629" type="line"/>
      <point x="175" y="577" type="line"/>
    </contour>
    <contour>
      <point x="63" y="358" type="line"/>
      <point x="312" y="358" type="line"/>
      <point x="312" y="270" type="line"/>
      <point x="63" y="270" type="line"/>
    </contour>
  </outline>
</glyph>
<glyph name="onequarter" format="1">
  <advance width="888"/>
  <unicode hex="00BC"/>
  <outline>
    <contour>
      <point x="822" y="1" type="line"/>
      <point x="822" y="408" type="line"/>
      <point x="683" y="408" type="line"/>
      <point x="519" y="142" type="line"/>
      <point x="530" y="70" type="line"/>
      <point x="873" y="70" type="line"/>
      <point x="873" y="160" type="line"/>
      <point x="591" y="160" type="line"/>
      <point x="613" y="130" type="line"/>
      <point x="736" y="346" type="line"/>
      <point x="711" y="346" type="line"/>
      <point x="711" y="1" type="line"/>
    </contour>
    <component base="fraction" xOffset="144"/>
    <component base="onesuperior" xOffset="-21"/>
  </outline>
</glyph>
<glyph name="threequarters" format="1">
  <advance width="900"/>
  <unicode hex="00BE"/>
  <outline>
    <contour>
      <point x="834" y="1" type="line"/>
      <point x="834" y="408" type="line"/>
      <point x="695" y="408" type="line"/>
      <point x="531" y="142" type="line"/>
      <point x="542" y="70" type="line"/>
      <point x="885" y="70" type="line"/>
      <point x="885" y="160" type="line"/>
      <point x="603" y="160" type="line"/>
      <point x="625" y="130" type="line"/>
      <point x="748" y="346" type="line"/>
      <point x="723" y="346" type="line"/>
      <point x="723" y="1" type="line"/>
    </contour>
    <component base="threesuperior" xOffset="-2"/>
    <component base="fraction" xOffset="159"/>
  </outline>
</glyph>
<glyph name="Icircumflex" format="1">
  <advance width="252"/>
  <unicode hex="00CE"/>
  <outline>
    <contour>
      <point x="129" y="904" type="line"/>
      <point x="-22" y="781" type="line"/>
      <point x="30" y="716" type="line"/>
      <point x="134" y="796" type="line"/>
      <point x="118" y="796" type="line"/>
      <point x="222" y="714" type="line"/>
      <point x="278" y="781" type="line"/>
    </contour>
    <component base="I"/>
  </outline>
</glyph>
<glyph name="Idieresis" format="1">
  <advance width="252"/>
  <unicode hex="00CF"/>
  <outline>
    <contour>
      <point x="65" y="731"/>
      <point x="100" y="755"/>
      <point x="100" y="806" type="curve" smooth="yes"/>
      <point x="100" y="855"/>
      <point x="66" y="878"/>
      <point x="33" y="878" type="curve" smooth="yes"/>
      <point x="-1" y="878"/>
      <point x="-35" y="855"/>
      <point x="-35" y="806" type="curve" smooth="yes"/>
      <point x="-35" y="755"/>
      <point x="-2" y="731"/>
      <point x="32" y="731" type="curve" smooth="yes"/>
    </contour>
    <contour>
      <point x="252" y="731"/>
      <point x="287" y="755"/>
      <point x="287" y="806" type="curve" smooth="yes"/>
      <point x="287" y="855"/>
      <point x="253" y="878"/>
      <point x="219" y="878" type="curve" smooth="yes"/>
      <point x="186" y="878"/>
      <point x="152" y="855"/>
      <point x="152" y="806" type="curve" smooth="yes"/>
      <point x="152" y="755"/>
      <point x="185" y="731"/>
      <point x="218" y="731" type="curve" smooth="yes"/>
    </contour>
    <component base="I"/>
  </outline>
</glyph>
<glyph name="Eth" format="1">
  <advance width="592"/>
  <unicode hex="00D0"/>
  <outline>
    <contour>
      <point x="3" y="397" type="line"/>
      <point x="3" y="297" type="line"/>
      <point x="311" y="297" type="line"/>
      <point x="311" y="397" type="line"/>
    </contour>
    <component base="D" xOffset="11"/>
  </outline>
</glyph>
<glyph name="multiply" format="1">
  <advance width="504"/>
  <unicode hex="00D7"/>
  <outline>
    <contour>
      <point x="60" y="384" type="line"/>
      <point x="367" y="77" type="line"/>
      <point x="444" y="154" type="line"/>
      <point x="137" y="461" type="line"/>
    </contour>
    <contour>
      <point x="368" y="460" type="line"/>
      <point x="61" y="153" type="line"/>
      <point x="136" y="78" type="line"/>
      <point x="443" y="385" type="line"/>
    </contour>
  </outline>
</glyph>
<glyph name="ae" format="1">
  <advance width="716"/>
  <unicode hex="00E6"/>
  <outline>
    <contour>
      <point x="230" y="-15"/>
      <point x="308" y="21"/>
      <point x="322" y="103" type="curve"/>
      <point x="305" y="103" type="line"/>
      <point x="344" y="26"/>
      <point x="415" y="-15"/>
      <point x="506" y="-15" type="curve" smooth="yes"/>
      <point x="566" y="-15"/>
      <point x="629" y="2"/>
      <point x="686" y="42" type="curve"/>
      <point x="648" y="128" type="line"/>
      <point x="602" y="103"/>
      <point x="560" y="90"/>
      <point x="517" y="90" type="curve" smooth="yes"/>
      <point x="447" y="90"/>
      <point x="399" y="144"/>
      <point x="399" y="251" type="curve" smooth="yes"/>
      <point x="399" y="361"/>
      <point x="438" y="415"/>
      <point x="490" y="415" type="curve" smooth="yes"/>
      <point x="536" y="415"/>
      <point x="565" y="379"/>
      <point x="565" y="309" type="curve"/>
      <point x="341" y="307" type="line"/>
      <point x="339" y="215" type="line"/>
      <point x="696" y="215" type="line"/>
      <point x="696" y="250" type="line" smooth="yes"/>
      <point x="696" y="419"/>
      <point x="639" y="515"/>
      <point x="496" y="515" type="curve" smooth="yes"/>
      <point x="435" y="515"/>
      <point x="373" y="490"/>
      <point x="333" y="440" type="curve"/>
      <point x="368" y="438" type="line"/>
      <point x="341" y="489"/>
      <point x="294" y="514"/>
      <point x="226" y="514" type="curve" smooth="yes"/>
      <point x="163" y="514"/>
      <point x="87" y="494"/>
      <point x="30" y="460" type="curve"/>
      <point x="73" y="366" type="line"/>
      <point x="116" y="389"/>
      <point x="160" y="406"/>
      <point x="195" y="406" type="curve" smooth="yes"/>
      <point x="239" y="406"/>
      <point x="269" y="384"/>
      <point x="269" y="331" type="curve" smooth="yes"/>
      <point x="269" y="196" type="line" smooth="yes"/>
      <point x="269" y="118"/>
      <point x="248" y="89"/>
      <point x="198" y="89" type="curve" smooth="yes"/>
      <point x="168" y="89"/>
      <point x="146" y="110"/>
      <point x="146" y="142" type="curve" smooth="yes"/>
      <point x="146" y="196"/>
      <point x="176" y="220"/>
      <point x="240" y="220" type="curve" smooth="yes"/>
      <point x="273" y="220"/>
      <point x="298" y="218"/>
      <point x="327" y="213" type="curve"/>
      <point x="327" y="299" type="line"/>
      <point x="300" y="304"/>
      <point x="255" y="306"/>
      <point x="232" y="306" type="curve" smooth="yes"/>
      <point x="98" y="306"/>
      <point x="15" y="244"/>
      <point x="15" y="142" type="curve" smooth="yes"/>
      <point x="15" y="41"/>
      <point x="88" y="-15"/>
      <point x="168" y="-15" type="curve" smooth="yes"/>
    </contour>
    <contour>
      <point x="342" y="500" type="move" name="top"/>
    </contour>
  </outline>
</glyph>
<glyph name="icircumflex" format="1">
  <advance width="245"/>
  <unicode hex="00EE"/>
  <outline>
    <contour>
      <point x="126" y="744" type="line"/>
      <point x="-23" y="621" type="line"/>
      <point x="31" y="556" type="line"/>
      <point x="131" y="636" type="line"/>
      <point x="115" y="636" type="line"/>
      <point x="215" y="554" type="line"/>
      <point x="273" y="621" type="line"/>
    </contour>
    <component base="dotlessi"/>
  </outline>
</glyph>
<glyph name="idieresis" format="1">
  <advance width="245"/>
  <unicode hex="00EF"/>
  <outline>
    <contour>
      <point x="65" y="571"/>
      <point x="100" y="595"/>
      <point x="100" y="646" type="curve" smooth="yes"/>
      <point x="100" y="695"/>
      <point x="66" y="718"/>
      <point x="33" y="718" type="curve" smooth="yes"/>
      <point x="-1" y="718"/>
      <point x="-35" y="695"/>
      <point x="-35" y="646" type="curve" smooth="yes"/>
      <point x="-35" y="595"/>
      <point x="-2" y="571"/>
      <point x="32" y="571" type="curve" smooth="yes"/>
    </contour>
    <contour>
      <point x="245" y="571"/>
      <point x="280" y="595"/>
      <point x="280" y="646" type="curve" smooth="yes"/>
      <point x="280" y="695"/>
      <point x="246" y="718"/>
      <point x="212" y="718" type="curve" smooth="yes"/>
      <point x="179" y="718"/>
      <point x="145" y="695"/>
      <point x="145" y="646" type="curve" smooth="yes"/>
      <point x="145" y="595"/>
      <point x="178" y="571"/>
      <point x="211" y="571" type="curve" smooth="yes"/>
    </contour>
    <component base="dotlessi"/>
  </outline>
</glyph>
<glyph name="eth" format="1">
  <advance width="512"/>
  <unicode hex="00F0"/>
  <outline>
    <contour>
      <point x="410" y="-15"/>
      <point x="485" y="104"/>
      <point x="485" y="318" type="curve" smooth="yes"/>
      <point x="485" y="563"/>
      <point x="373" y="740"/>
      <point x="177" y="740" type="curve" smooth="yes"/>
      <point x="143" y="740"/>
      <point x="106" y="735"/>
      <point x="66" y="722" type="curve"/>
      <point x="93" y="632" type="line"/>
      <point x="117" y="637"/>
      <point x="141" y="640"/>
      <point x="162" y="640" type="curve" smooth="yes"/>
      <point x="288" y="640"/>
      <point x="351" y="549"/>
      <point x="355" y="390" type="curve"/>
      <point x="375" y="390" type="line"/>
      <point x="365" y="439"/>
      <point x="324" y="484"/>
      <point x="240" y="484" type="curve" smooth="yes"/>
      <point x="119" y="484"/>
      <point x="25" y="386"/>
      <point x="25" y="235" type="curve" smooth="yes"/>
      <point x="25" y="92"/>
      <point x="106" y="-15"/>
      <point x="251" y="-15" type="curve" smooth="yes"/>
    </contour>
    <contour>
      <point x="200" y="90"/>
      <point x="158" y="143"/>
      <point x="158" y="235" type="curve" smooth="yes"/>
      <point x="158" y="326"/>
      <point x="201" y="380"/>
      <point x="257" y="380" type="curve" smooth="yes"/>
      <point x="318" y="380"/>
      <point x="355" y="330"/>
      <point x="355" y="233" type="curve" smooth="yes"/>
      <point x="355" y="143"/>
      <point x="313" y="90"/>
      <point x="256" y="90" type="curve" smooth="yes"/>
    </contour>
    <contour>
      <point x="447" y="691" type="line"/>
      <point x="396" y="758" type="line"/>
      <point x="146" y="582" type="line"/>
      <point x="196" y="515" type="line"/>
    </contour>
  </outline>
</glyph>
<glyph name="divide" format="1">
  <advance width="574"/>
  <unicode hex="00F7"/>
  <outline>
    <contour>
      <point x="534" y="213" type="line"/>
      <point x="534" y="323" type="line"/>
      <point x="40" y="323" type="line"/>
      <point x="40" y="213" type="line"/>
    </contour>
    <contour>
      <point x="324" y="0"/>
      <point x="362" y="28"/>
      <point x="362" y="85" type="curve" smooth="yes"/>
      <point x="362" y="140"/>
      <point x="325" y="167"/>
      <point x="287" y="167" type="curve" smooth="yes"/>
      <point x="249" y="167"/>
      <point x="212" y="140"/>
      <point x="212" y="85" type="curve" smooth="yes"/>
      <point x="212" y="27"/>
      <point x="248" y="0"/>
      <point x="286" y="0" type="curve" smooth="yes"/>
    </contour>
    <contour>
      <point x="324" y="369"/>
      <point x="362" y="397"/>
      <point x="362" y="454" type="curve" smooth="yes"/>
      <point x="362" y="509"/>
      <point x="325" y="536"/>
      <point x="287" y="536" type="curve" smooth="yes"/>
      <point x="249" y="536"/>
      <point x="212" y="509"/>
      <point x="212" y="454" type="curve" smooth="yes"/>
      <point x="212" y="396"/>
      <point x="248" y="369"/>
      <point x="286" y="369" type="curve" smooth="yes"/>
    </contour>
  </outline>
</glyph>
<glyph name="oslash" format="1">
  <advance width="512"/>
  <unicode hex="00F8"/>
  <outline>
    <contour>
      <point x="337" y="601" type="line"/>
      <point x="97" y="-63" type="line"/>
      <point x="174" y="-88" type="line"/>
      <point x="413" y="576" type="line"/>
    </contour>
    <component base="o"/>
  </outline>
</glyph>
<glyph name="aogonek" format="1">
  <advance width="460"/>
  <unicode hex="0105"/>
  <outline>
    <contour>
      <point x="411" y="-215"/>
      <point x="437" y="-211"/>
      <point x="463" y="-203" type="curve"/>
      <point x="457" y="-117" type="line"/>
      <point x="444" y="-121"/>
      <point x="431" y="-123"/>
      <point x="419" y="-123" type="curve" smooth="yes"/>
      <point x="389" y="-123"/>
      <point x="365" y="-110"/>
      <point x="365" y="-82" type="curve" smooth="yes"/>
      <point x="365" y="-45"/>
      <point x="400" y="-23"/>
      <point x="452" y="-8" type="curve"/>
      <point x="348" y="-3" type="line"/>
      <point x="285" y="-36"/>
      <point x="256" y="-82"/>
      <point x="256" y="-122" type="curve" smooth="yes"/>
      <point x="256" y="-173"/>
      <point x="301" y="-215"/>
      <point x="386" y="-215" type="curve" smooth="yes"/>
    </contour>
    <component base="a"/>
  </outline>
</glyph>
<glyph name="dcroat" format="1">
  <advance width="504"/>
  <unicode hex="0111"/>
  <outline>
    <contour>
      <point x="201" y="653" type="line"/>
      <point x="201" y="568" type="line"/>
      <point x="513" y="568" type="line"/>
      <point x="513" y="653" type="line"/>
    </contour>
    <component base="d"/>
  </outline>
</glyph>
<glyph name="eogonek" format="1">
  <advance width="475"/>
  <unicode hex="0119"/>
  <outline>
    <contour>
      <point x="389" y="-215"/>
      <point x="417" y="-211"/>
      <point x="443" y="-203" type="curve"/>
      <point x="437" y="-117" type="line"/>
      <point x="424" y="-121"/>
      <point x="410" y="-123"/>
      <point x="398" y="-123" type="curve" smooth="yes"/>
      <point x="369" y="-123"/>
      <point x="345" y="-111"/>
      <point x="345" y="-77" type="curve" smooth="yes"/>
      <point x="345" y="-41"/>
      <point x="377" y="-2"/>
      <point x="445" y="42" type="curve"/>
      <point x="308" y="0" type="line"/>
      <point x="259" y="-34"/>
      <point x="235" y="-77"/>
      <point x="235" y="-116" type="curve" smooth="yes"/>
      <point x="235" y="-170"/>
      <point x="280" y="-215"/>
      <point x="363" y="-215" type="curve" smooth="yes"/>
    </contour>
    <component base="e"/>
  </outline>
</glyph>
<glyph name="Imacron" format="1">
  <advance width="252"/>
  <unicode hex="012A"/>
  <outline>
    <contour>
      <point x="1" y="854" type="line"/>
      <point x="1" y="754" type="line"/>
      <point x="251" y="754" type="line"/>
      <point x="251" y="854" type="line"/>
    </contour>
    <component base="I"/>
  </outline>
</glyph>
<glyph name="imacron" format="1">
  <advance width="245"/>
  <unicode hex="012B"/>
  <outline>
    <contour>
      <point x="1" y="694" type="line"/>
      <point x="1" y="594" type="line"/>
      <point x="244" y="594" type="line"/>
      <point x="244" y="694" type="line"/>
    </contour>
    <component base="dotlessi"/>
  </outline>
</glyph>
<glyph name="dotlessi" format="1">
  <advance width="245"/>
  <unicode hex="0131"/>
  <outline>
    <contour>
      <point x="187" y="0" type="line"/>
      <point x="187" y="500" type="line"/>
      <point x="57" y="500" type="line"/>
      <point x="57" y="0" type="line"/>
    </contour>
    <contour>
      <point x="187" y="10" type="move" name="ogonek"/>
    </contour>
    <contour>
      <point x="123" y="500" type="move" name="top"/>
    </contour>
  </outline>
</glyph>
<glyph name="Lslash" format="1">
  <advance width="418"/>
  <unicode hex="0141"/>
  <outline>
    <contour>
      <point x="274" y="442" type="line"/>
      <point x="-29" y="318" type="line"/>
      <point x="7" y="230" type="line"/>
      <point x="310" y="354" type="line"/>
    </contour>
    <component base="L"/>
  </outline>
</glyph>
<glyph name="oe" format="1">
  <advance width="801"/>
  <unicode hex="0153"/>
  <outline>
    <contour>
      <point x="335" y="-15"/>
      <point x="392" y="19"/>
      <point x="429" y="77" type="curve"/>
      <point x="410" y="77" type="line"/>
      <point x="453" y="15"/>
      <point x="520" y="-15"/>
      <point x="592" y="-15" type="curve" smooth="yes"/>
      <point x="653" y="-15"/>
      <point x="717" y="5"/>
      <point x="771" y="42" type="curve"/>
      <point x="733" y="128" type="line"/>
      <point x="687" y="103"/>
      <point x="645" y="90"/>
      <point x="602" y="90" type="curve" smooth="yes"/>
      <point x="532" y="90"/>
      <point x="484" y="144"/>
      <point x="484" y="251" type="curve" smooth="yes"/>
      <point x="484" y="361"/>
      <point x="523" y="415"/>
      <point x="575" y="415" type="curve" smooth="yes"/>
      <point x="621" y="415"/>
      <point x="650" y="379"/>
      <point x="650" y="309" type="curve"/>
      <point x="426" y="307" type="line"/>
      <point x="424" y="213" type="line"/>
      <point x="781" y="213" type="line"/>
      <point x="781" y="250" type="line" smooth="yes"/>
      <point x="781" y="419"/>
      <point x="721" y="515"/>
      <point x="581" y="515" type="curve" smooth="yes"/>
      <point x="512" y="515"/>
      <point x="446" y="484"/>
      <point x="407" y="427" type="curve"/>
      <point x="431" y="427" type="line"/>
      <point x="395" y="482"/>
      <point x="341" y="515"/>
      <point x="260" y="515" type="curve" smooth="yes"/>
      <point x="113" y="515"/>
      <point x="29" y="411"/>
      <point x="29" y="248" type="curve" smooth="yes"/>
      <point x="29" y="90"/>
      <point x="105" y="-15"/>
      <point x="251" y="-15" type="curve" smooth="yes"/>
    </contour>
    <contour>
      <point x="199" y="90"/>
      <point x="162" y="143"/>
      <point x="162" y="250" type="curve" smooth="yes"/>
      <point x="162" y="356"/>
      <point x="200" y="410"/>
      <point x="257" y="410" type="curve" smooth="yes"/>
      <point x="314" y="410"/>
      <point x="351" y="357"/>
      <point x="351" y="248" type="curve" smooth="yes"/>
      <point x="351" y="143"/>
      <point x="314" y="90"/>
      <point x="256" y="90" type="curve" smooth="yes"/>
    </contour>
    <contour>
      <point x="411" y="500" type="move" name="top"/>
    </contour>
  </outline>
</glyph>
<glyph name="uogonek" format="1">
  <advance width="546"/>
  <unicode hex="0173"/>
  <outline>
    <contour>
      <point x="484" y="-215"/>
      <point x="510" y="-211"/>
      <point x="536" y="-203" type="curve"/>
      <point x="530" y="-117" type="line"/>
      <point x="517" y="-121"/>
      <point x="504" y="-123"/>
      <point x="492" y="-123" type="curve" smooth="yes"/>
      <point x="462" y="-123"/>
      <point x="438" y="-110"/>
      <point x="438" y="-82" type="curve" smooth="yes"/>
      <point x="438" y="-45"/>
      <point x="472" y="-22"/>
      <point x="525" y="-6" type="curve"/>
      <point x="521" y="87" type="line"/>
      <point x="516" y="86"/>
      <point x="511" y="86"/>
      <point x="507" y="86" type="curve" smooth="yes"/>
      <point x="481" y="86"/>
      <point x="472" y="100"/>
      <point x="472" y="133" type="curve" smooth="yes"/>
      <point x="472" y="500" type="line"/>
      <point x="342" y="500" type="line"/>
      <point x="342" y="245" type="line" smooth="yes"/>
      <point x="342" y="144"/>
      <point x="307" y="88"/>
      <point x="251" y="88" type="curve" smooth="yes"/>
      <point x="207" y="88"/>
      <point x="186" y="121"/>
      <point x="186" y="176" type="curve" smooth="yes"/>
      <point x="186" y="500" type="line"/>
      <point x="56" y="500" type="line"/>
      <point x="56" y="161" type="line" smooth="yes"/>
      <point x="56" y="49"/>
      <point x="114" y="-12"/>
      <point x="214" y="-12" type="curve" smooth="yes"/>
      <point x="271" y="-12"/>
      <point x="337" y="23"/>
      <point x="374" y="100" type="curve"/>
      <point x="363" y="100" type="line"/>
      <point x="363" y="51"/>
      <point x="380" y="11"/>
      <point x="421" y="-7" type="curve"/>
      <point x="421" y="-3" type="line"/>
      <point x="358" y="-36"/>
      <point x="329" y="-82"/>
      <point x="329" y="-122" type="curve" smooth="yes"/>
      <point x="329" y="-173"/>
      <point x="374" y="-215"/>
      <point x="459" y="-215" type="curve" smooth="yes"/>
    </contour>
    <contour>
      <point x="269" y="500" type="move" name="top"/>
    </contour>
  </outline>
</glyph>
<glyph name="circumflex" format="1">
  <advance width="453"/>
  <unicode hex="02C6"/>
  <outline>
    <contour>
      <point x="227" y="744" type="line"/>
      <point x="61" y="621" type="line"/>
      <point x="113" y="556" type="line"/>
      <point x="232" y="636" type="line"/>
      <point x="216" y="636" type="line"/>
      <point x="335" y="554" type="line"/>
      <point x="391" y="621" type="line"/>
    </contour>
    <contour>
      <point x="222" y="500" type="move" name="_top"/>
    </contour>
  </outline>
</glyph>
<glyph name="breve" format="1">
  <advance width="409"/>
  <unicode hex="02D8"/>
  <outline>
    <contour>
      <point x="50" y="723" type="line"/>
      <point x="49" y="618"/>
      <point x="127" y="565"/>
      <point x="205" y="565" type="curve" smooth="yes"/>
      <point x="283" y="565"/>
      <point x="360" y="619"/>
      <point x="359" y="724" type="curve"/>
      <point x="275" y="728" type="line"/>
      <point x="271" y="683"/>
      <point x="239" y="660"/>
      <point x="206" y="660" type="curve" smooth="yes"/>
      <point x="173" y="660"/>
      <point x="139" y="685"/>
      <point x="135" y="731" type="curve"/>
    </contour>
    <contour>
      <point x="205" y="500" type="move" name="_top"/>
    </contour>
  </outline>
</glyph>
<glyph name="dotaccent" format="1">
  <advance width="246"/>
  <unicode hex="02D9"/>
  <outline>
    <contour>
      <point x="43" y="590"/>
      <point x="81" y="561"/>
      <point x="122" y="561" type="curve" smooth="yes"/>
      <point x="163" y="561"/>
      <point x="203" y="591"/>
      <point x="203" y="648" type="curve" smooth="yes"/>
      <point x="203" y="704"/>
      <point x="164" y="732"/>
      <point x="123" y="732" type="curve" smooth="yes"/>
      <point x="82" y="732"/>
      <point x="43" y="704"/>
      <point x="43" y="648" type="curve" smooth="yes"/>
    </contour>
    <contour>
      <point x="123" y="500" type="move" name="_top"/>
    </contour>
  </outline>
</glyph>
<glyph name="ring" format="1">
  <advance width="402"/>
  <unicode hex="02DA"/>
  <outline>
    <contour>
      <point x="259" y="526"/>
      <point x="321" y="569"/>
      <point x="321" y="651" type="curve" smooth="yes"/>
      <point x="321" y="731"/>
      <point x="262" y="771"/>
      <point x="203" y="771" type="curve" smooth="yes"/>
      <point x="143" y="771"/>
      <point x="81" y="729"/>
      <point x="81" y="649" type="curve" smooth="yes"/>
      <point x="81" y="567"/>
      <point x="140" y="526"/>
      <point x="198" y="526" type="curve" smooth="yes"/>
    </contour>
    <contour>
      <point x="180" y="600"/>
      <point x="158" y="616"/>
      <point x="158" y="649" type="curve" smooth="yes"/>
      <point x="158" y="682"/>
      <point x="180" y="698"/>
      <point x="201" y="698" type="curve" smooth="yes"/>
      <point x="222" y="698"/>
      <point x="244" y="682"/>
      <point x="244" y="649" type="curve" smooth="yes"/>
      <point x="244" y="616"/>
      <point x="222" y="600"/>
      <point x="201" y="600" type="curve" smooth="yes"/>
    </contour>
    <contour>
      <point x="201" y="500" type="move" name="_top"/>
    </contour>
  </outline>
</glyph>
<glyph name="hungarumlaut" format="1">
  <advance width="530"/>
  <unicode hex="02DD"/>
  <outline>
    <contour>
      <point x="283" y="679" type="line"/>
      <point x="217" y="759" type="line"/>
      <point x="49" y="616" type="line"/>
      <point x="102" y="552" type="line"/>
    </contour>
    <contour>
      <point x="497" y="679" type="line"/>
      <point x="431" y="759" type="line"/>
      <point x="263" y="616" type="line"/>
      <point x="316" y="552" type="line"/>
    </contour>
    <contour>
      <point x="217" y="500" type="move" name="_top"/>
    </contour>
  </outline>
</glyph>
<glyph name="tml_A" format="1">
  <advance width="825"/>
  <unicode hex="0B85"/>
  <note>
    tml_A
  </note>
  <outline>
    <contour>
      <point x="58" y="-53"/>
      <point x="150" y="-144"/>
      <point x="299" y="-144" type="curve" smooth="yes"/>
      <point x="475" y="-144"/>
      <point x="577" y="-40"/>
      <point x="597" y="124" type="curve"/>
      <point x="660" y="124" type="line"/>
      <point x="660" y="-116" type="line"/>
      <point x="765" y="-116" type="line"/>
      <point x="765" y="545" type="line"/>
      <point x="660" y="545" type="line"/>
      <point x="660" y="219" type="line"/>
      <point x="600" y="219" type="line"/>
      <point x="593" y="385"/>
      <point x="530" y="560"/>
      <point x="363" y="561" type="curve" smooth="yes"/>
      <point x="279" y="562"/>
      <point x="216" y="503"/>
      <point x="217" y="410" type="curve" smooth="yes"/>
      <point x="218" y="323"/>
      <point x="277" y="264"/>
      <point x="356" y="265" type="curve" smooth="yes"/>
      <point x="421" y="265"/>
      <point x="462" y="302"/>
      <point x="475" y="359" type="curve"/>
      <point x="488" y="318"/>
      <point x="496" y="269"/>
      <point x="497" y="219" type="curve"/>
      <point x="237" y="219" type="line" smooth="yes"/>
      <point x="118" y="219"/>
      <point x="56" y="157"/>
      <point x="57" y="58" type="curve" smooth="yes"/>
    </contour>
    <contour>
      <point x="362" y="468"/>
      <point x="362" y="468"/>
      <point x="362" y="468" type="curve"/>
      <point x="382" y="468"/>
      <point x="409" y="453"/>
      <point x="409" y="413" type="curve" smooth="yes"/>
      <point x="409" y="374"/>
      <point x="386" y="356"/>
      <point x="362" y="356" type="curve" smooth="yes"/>
      <point x="333" y="356"/>
      <point x="314" y="383"/>
      <point x="314" y="416" type="curve" smooth="yes"/>
      <point x="314" y="445"/>
      <point x="333" y="468"/>
      <point x="361" y="468" type="curve" smooth="yes"/>
      <point x="361" y="468"/>
      <point x="362" y="468"/>
      <point x="362" y="468" type="curve"/>
    </contour>
    <contour>
      <point x="493" y="124" type="line"/>
      <point x="477" y="18"/>
      <point x="418" y="-49"/>
      <point x="299" y="-49" type="curve" smooth="yes"/>
      <point x="227" y="-49"/>
      <point x="163" y="-12"/>
      <point x="163" y="55" type="curve" smooth="yes"/>
      <point x="163" y="92"/>
      <point x="186" y="124"/>
      <point x="233" y="124" type="curve" smooth="yes"/>
    </contour>
  </outline>
</glyph>
<glyph name="tml_Aa" format="1">
  <advance width="1075"/>
  <unicode hex="0B86"/>
  <note>
    tml_Aa
  </note>
  <outline>
    <contour>
      <point x="508" y="-144" type="line"/>
      <point x="529" y="-344"/>
      <point x="669" y="-383"/>
      <point x="767" y="-383" type="curve" smooth="yes"/>
      <point x="931" y="-383"/>
      <point x="1030" y="-257"/>
      <point x="1030" y="-82" type="curve" smooth="yes"/>
      <point x="1030" y="41"/>
      <point x="976" y="161"/>
      <point x="848" y="161" type="curve" smooth="yes"/>
      <point x="754" y="161"/>
      <point x="688" y="70"/>
      <point x="690" y="-58" type="curve"/>
      <point x="765" y="-24" type="line"/>
      <point x="766" y="33"/>
      <point x="790" y="66"/>
      <point x="848" y="66" type="curve" smooth="yes"/>
      <point x="907" y="66"/>
      <point x="925" y="-3"/>
      <point x="925" y="-82" type="curve" smooth="yes"/>
      <point x="925" y="-183"/>
      <point x="888" y="-289"/>
      <point x="767" y="-288" type="curve" smooth="yes"/>
      <point x="666" y="-287"/>
      <point x="618" y="-238"/>
      <point x="602" y="-128" type="curve"/>
    </contour>
    <contour>
      <point x="58" y="-53"/>
      <point x="150" y="-144"/>
      <point x="299" y="-144" type="curve" smooth="yes"/>
      <point x="475" y="-144"/>
      <point x="577" y="-40"/>
      <point x="597" y="124" type="curve"/>
      <point x="660" y="124" type="line"/>
      <point x="660" y="-116" type="line"/>
      <point x="765" y="-116" type="line"/>
      <point x="765" y="545" type="line"/>
      <point x="660" y="545" type="line"/>
      <point x="660" y="219" type="line"/>
      <point x="600" y="219" type="line"/>
      <point x="593" y="385"/>
      <point x="530" y="560"/>
      <point x="363" y="561" type="curve" smooth="yes"/>
      <point x="279" y="562"/>
      <point x="216" y="503"/>
      <point x="217" y="410" type="curve" smooth="yes"/>
      <point x="218" y="323"/>
      <point x="277" y="264"/>
      <point x="356" y="265" type="curve" smooth="yes"/>
      <point x="421" y="265"/>
      <point x="462" y="302"/>
      <point x="475" y="359" type="curve"/>
      <point x="488" y="318"/>
      <point x="496" y="269"/>
      <point x="497" y="219" type="curve"/>
      <point x="237" y="219" type="line" smooth="yes"/>
      <point x="118" y="219"/>
      <point x="56" y="157"/>
      <point x="57" y="58" type="curve" smooth="yes"/>
    </contour>
    <contour>
      <point x="362" y="468"/>
      <point x="362" y="468"/>
      <point x="362" y="468" type="curve"/>
      <point x="382" y="468"/>
      <point x="409" y="453"/>
      <point x="409" y="413" type="curve" smooth="yes"/>
      <point x="409" y="374"/>
      <point x="386" y="356"/>
      <point x="362" y="356" type="curve" smooth="yes"/>
      <point x="333" y="356"/>
      <point x="314" y="383"/>
      <point x="314" y="416" type="curve" smooth="yes"/>
      <point x="314" y="445"/>
      <point x="333" y="468"/>
      <point x="361" y="468" type="curve" smooth="yes"/>
      <point x="361" y="468"/>
      <point x="362" y="468"/>
      <point x="362" y="468" type="curve"/>
    </contour>
    <contour>
      <point x="493" y="124" type="line"/>
      <point x="477" y="18"/>
      <point x="418" y="-49"/>
      <point x="299" y="-49" type="curve" smooth="yes"/>
      <point x="227" y="-49"/>
      <point x="163" y="-12"/>
      <point x="163" y="55" type="curve" smooth="yes"/>
      <point x="163" y="92"/>
      <point x="186" y="124"/>
      <point x="233" y="124" type="curve" smooth="yes"/>
    </contour>
  </outline>
</glyph>
<glyph name="tml_Ii" format="1">
  <advance width="612"/>
  <unicode hex="0B88"/>
  <note>
    tml_Ii
  </note>
  <outline>
    <contour>
      <point x="60" y="0" type="line"/>
      <point x="165" y="0" type="line"/>
      <point x="165" y="456" type="line"/>
      <point x="314" y="456" type="line"/>
      <point x="314" y="0" type="line"/>
      <point x="419" y="0" type="line"/>
      <point x="419" y="456" type="line"/>
      <point x="587" y="456" type="line"/>
      <point x="587" y="551" type="line"/>
      <point x="60" y="551" type="line"/>
    </contour>
    <contour>
      <point x="434" y="248"/>
      <point x="460" y="221"/>
      <point x="490" y="221" type="curve" smooth="yes"/>
      <point x="521" y="221"/>
      <point x="547" y="248"/>
      <point x="547" y="278" type="curve" smooth="yes"/>
      <point x="547" y="308"/>
      <point x="521" y="335"/>
      <point x="490" y="335" type="curve" smooth="yes"/>
      <point x="460" y="335"/>
      <point x="434" y="308"/>
      <point x="434" y="278" type="curve" smooth="yes"/>
    </contour>
    <contour>
      <point x="182" y="248"/>
      <point x="208" y="221"/>
      <point x="239" y="221" type="curve" smooth="yes"/>
      <point x="269" y="221"/>
      <point x="295" y="248"/>
      <point x="295" y="278" type="curve" smooth="yes"/>
      <point x="295" y="308"/>
      <point x="269" y="335"/>
      <point x="239" y="335" type="curve" smooth="yes"/>
      <point x="208" y="335"/>
      <point x="182" y="308"/>
      <point x="182" y="278" type="curve" smooth="yes"/>
    </contour>
  </outline>
</glyph>
<glyph name="tml_E" format="1">
  <advance width="660"/>
  <unicode hex="0B8E"/>
  <note>
    tml_E
  </note>
  <outline>
    <contour>
      <point x="153" y="219"/>
      <point x="181" y="264"/>
      <point x="217" y="264" type="curve" smooth="yes"/>
      <point x="243" y="264"/>
      <point x="270" y="232"/>
      <point x="270" y="173" type="curve" smooth="yes"/>
      <point x="270" y="135"/>
      <point x="262" y="72"/>
      <point x="217" y="72" type="curve" smooth="yes"/>
      <point x="188" y="72"/>
      <point x="170" y="104"/>
      <point x="161" y="152" type="curve"/>
    </contour>
    <contour>
      <point x="189" y="409"/>
      <point x="231" y="450"/>
      <point x="297" y="450" type="curve" smooth="yes"/>
      <point x="430" y="450" type="line"/>
      <point x="430" y="0" type="line"/>
      <point x="535" y="0" type="line"/>
      <point x="535" y="450" type="line"/>
      <point x="635" y="450" type="line"/>
      <point x="635" y="545" type="line"/>
      <point x="297" y="545" type="line"/>
      <point x="291" y="545" type="line"/>
      <point x="291" y="545"/>
      <point x="291" y="545"/>
      <point x="291" y="545" type="curve"/>
      <point x="142" y="541"/>
      <point x="54" y="428"/>
      <point x="54" y="239" type="curve" smooth="yes"/>
      <point x="54" y="87"/>
      <point x="115" y="-24"/>
      <point x="217" y="-24" type="curve" smooth="yes"/>
      <point x="312" y="-24"/>
      <point x="369" y="52"/>
      <point x="369" y="170" type="curve" smooth="yes"/>
      <point x="369" y="307"/>
      <point x="290" y="362"/>
      <point x="222" y="362" type="curve" smooth="yes"/>
      <point x="201" y="362"/>
      <point x="183" y="357"/>
      <point x="168" y="348" type="curve"/>
    </contour>
  </outline>
</glyph>
<glyph name="tml_Nya" format="1">
  <advance width="1156"/>
  <unicode hex="0B9E"/>
  <note>
    tml_Nya
  </note>
  <outline>
    <contour>
      <point x="95" y="-90"/>
      <point x="288" y="-269"/>
      <point x="571" y="-270" type="curve" smooth="yes"/>
      <point x="836" y="-271"/>
      <point x="1007" y="-126"/>
      <point x="1006" y="116" type="curve"/>
      <point x="1006" y="244"/>
      <point x="950" y="365"/>
      <point x="835" y="367" type="curve" smooth="yes"/>
      <point x="811" y="367"/>
      <point x="790" y="362"/>
      <point x="770" y="352" type="curve"/>
      <point x="770" y="450" type="line"/>
      <point x="870" y="450" type="line"/>
      <point x="870" y="545" type="line"/>
      <point x="578" y="545" type="line"/>
      <point x="562" y="545" type="line"/>
      <point x="562" y="545"/>
      <point x="562" y="545"/>
      <point x="562" y="545" type="curve"/>
      <point x="388" y="537"/>
      <point x="286" y="425"/>
      <point x="286" y="239" type="curve" smooth="yes"/>
      <point x="286" y="87"/>
      <point x="347" y="-24"/>
      <point x="449" y="-24" type="curve" smooth="yes"/>
      <point x="544" y="-24"/>
      <point x="601" y="52"/>
      <point x="601" y="170" type="curve" smooth="yes"/>
      <point x="601" y="307"/>
      <point x="523" y="362"/>
      <point x="455" y="362" type="curve" smooth="yes"/>
      <point x="435" y="362"/>
      <point x="418" y="358"/>
      <point x="404" y="350" type="curve"/>
      <point x="430" y="410"/>
      <point x="486" y="450"/>
      <point x="578" y="450" type="curve" smooth="yes"/>
      <point x="665" y="450" type="line"/>
      <point x="665" y="0" type="line"/>
      <point x="770" y="0" type="line"/>
      <point x="770" y="93" type="line"/>
      <point x="770" y="148" type="line"/>
      <point x="770" y="163" type="line" smooth="yes"/>
      <point x="771" y="230"/>
      <point x="785" y="266"/>
      <point x="829" y="266" type="curve" smooth="yes"/>
      <point x="883" y="266"/>
      <point x="904" y="189"/>
      <point x="904" y="111" type="curve" smooth="yes"/>
      <point x="904" y="-68"/>
      <point x="778" y="-172"/>
      <point x="572" y="-173" type="curve" smooth="yes"/>
      <point x="356" y="-174"/>
      <point x="200" y="-37"/>
      <point x="200" y="221" type="curve" smooth="yes"/>
      <point x="200" y="351"/>
      <point x="236" y="423"/>
      <point x="289" y="514" type="curve"/>
      <point x="200" y="558" type="line"/>
      <point x="144" y="467"/>
      <point x="94" y="362"/>
      <point x="94" y="227" type="curve" smooth="yes"/>
    </contour>
    <contour>
      <point x="385" y="219"/>
      <point x="413" y="264"/>
      <point x="450" y="264" type="curve" smooth="yes"/>
      <point x="476" y="264"/>
      <point x="502" y="232"/>
      <point x="502" y="173" type="curve" smooth="yes"/>
      <point x="502" y="135"/>
      <point x="494" y="72"/>
      <point x="449" y="72" type="curve" smooth="yes"/>
      <point x="420" y="72"/>
      <point x="402" y="104"/>
      <point x="393" y="152" type="curve"/>
    </contour>
  </outline>
</glyph>
<glyph name="tml_Tta" format="1">
  <advance width="643"/>
  <unicode hex="0B9F"/>
  <note>
	tml_Tta
  </note>
  <outline>
    <contour>
      <point x="70" y="0" type="line"/>
      <point x="593" y="0" type="line"/>
      <point x="593" y="34" type="line"/>
      <point x="105" y="34" type="line"/>
      <point x="105" y="545" type="line"/>
      <point x="70" y="545" type="line"/>
    </contour>
  </outline>
</glyph>
<glyph name="tml_Tta" format="1">
  <advance width="663"/>
  <unicode hex="0B9F"/>
  <note>
    tml_Tta
  </note>
  <outline>
    <contour>
      <point x="60" y="0" type="line"/>
      <point x="633" y="0" type="line"/>
      <point x="633" y="103" type="line"/>
      <point x="165" y="103" type="line"/>
      <point x="165" y="544" type="line"/>
      <point x="60" y="544" type="line"/>
    </contour>
  </outline>
</glyph>
<glyph name="tml_Nna" format="1">
  <advance width="1274"/>
  <unicode hex="0BA3"/>
  <note>
    tml_Nna
  </note>
  <outline>
    <contour>
      <point x="878" y="340"/>
      <point x="896" y="284"/>
      <point x="896" y="207" type="curve" smooth="yes"/>
      <point x="896" y="130"/>
      <point x="885" y="72"/>
      <point x="858" y="72" type="curve" smooth="yes"/>
      <point x="831" y="72"/>
      <point x="818" y="137"/>
      <point x="818" y="208" type="curve" smooth="yes"/>
      <point x="818" y="280"/>
      <point x="828" y="338"/>
      <point x="851" y="380" type="curve"/>
    </contour>
    <contour>
      <point x="731" y="387"/>
      <point x="713" y="306"/>
      <point x="713" y="208" type="curve" smooth="yes"/>
      <point x="713" y="53"/>
      <point x="761" y="-24"/>
      <point x="858" y="-24" type="curve" smooth="yes"/>
      <point x="959" y="-24"/>
      <point x="1002" y="51"/>
      <point x="1002" y="208" type="curve" smooth="yes"/>
      <point x="1002" y="312"/>
      <point x="974" y="390"/>
      <point x="931" y="445" type="curve"/>
      <point x="945" y="449"/>
      <point x="961" y="451"/>
      <point x="978" y="451" type="curve" smooth="yes"/>
      <point x="1051" y="451" type="line"/>
      <point x="1051" y="0" type="line"/>
      <point x="1156" y="0" type="line"/>
      <point x="1156" y="451" type="line"/>
      <point x="1256" y="451" type="line"/>
      <point x="1256" y="546" type="line"/>
      <point x="977" y="546" type="line" smooth="yes"/>
      <point x="926" y="546"/>
      <point x="883" y="535"/>
      <point x="847" y="516" type="curve"/>
      <point x="801" y="542"/>
      <point x="748" y="555"/>
      <point x="696" y="556" type="curve"/>
      <point x="696" y="556"/>
      <point x="696" y="556"/>
      <point x="696" y="556" type="curve"/>
      <point x="695" y="556"/>
      <point x="694" y="556"/>
      <point x="693" y="556" type="curve" smooth="yes"/>
      <point x="692" y="556"/>
      <point x="690" y="556"/>
      <point x="689" y="556" type="curve"/>
      <point x="689" y="556" type="line"/>
      <point x="621" y="555"/>
      <point x="566" y="541"/>
      <point x="521" y="515" type="curve"/>
      <point x="473" y="543"/>
      <point x="419" y="556"/>
      <point x="365" y="556" type="curve"/>
      <point x="365" y="556" type="line"/>
      <point x="362" y="556" type="line"/>
      <point x="343" y="556" type="line" smooth="yes"/>
      <point x="152" y="555"/>
      <point x="40" y="438"/>
      <point x="40" y="239" type="curve" smooth="yes"/>
      <point x="40" y="87"/>
      <point x="101" y="-24"/>
      <point x="203" y="-24" type="curve" smooth="yes"/>
      <point x="298" y="-24"/>
      <point x="355" y="52"/>
      <point x="355" y="170" type="curve" smooth="yes"/>
      <point x="355" y="307"/>
      <point x="277" y="362"/>
      <point x="209" y="362" type="curve" smooth="yes"/>
      <point x="190" y="362"/>
      <point x="173" y="358"/>
      <point x="158" y="350" type="curve"/>
      <point x="187" y="417"/>
      <point x="249" y="461"/>
      <point x="343" y="461" type="curve" smooth="yes"/>
      <point x="362" y="461" type="line" smooth="yes"/>
      <point x="388" y="461"/>
      <point x="417" y="456"/>
      <point x="444" y="444" type="curve"/>
      <point x="402" y="385"/>
      <point x="382" y="305"/>
      <point x="382" y="208" type="curve" smooth="yes"/>
      <point x="382" y="53"/>
      <point x="430" y="-24"/>
      <point x="528" y="-24" type="curve" smooth="yes"/>
      <point x="630" y="-24"/>
      <point x="673" y="51"/>
      <point x="673" y="208" type="curve" smooth="yes"/>
      <point x="673" y="312"/>
      <point x="645" y="390"/>
      <point x="602" y="445" type="curve"/>
      <point x="627" y="455"/>
      <point x="656" y="461"/>
      <point x="690" y="461" type="curve" smooth="yes"/>
      <point x="716" y="461"/>
      <point x="743" y="456"/>
      <point x="770" y="445" type="curve"/>
    </contour>
    <contour>
      <point x="139" y="219"/>
      <point x="167" y="264"/>
      <point x="204" y="264" type="curve" smooth="yes"/>
      <point x="230" y="264"/>
      <point x="256" y="232"/>
      <point x="256" y="173" type="curve" smooth="yes"/>
      <point x="256" y="135"/>
      <point x="248" y="72"/>
      <point x="203" y="72" type="curve" smooth="yes"/>
      <point x="174" y="72"/>
      <point x="156" y="104"/>
      <point x="147" y="152" type="curve"/>
    </contour>
    <contour>
      <point x="550" y="338"/>
      <point x="567" y="283"/>
      <point x="567" y="207" type="curve" smooth="yes"/>
      <point x="567" y="130"/>
      <point x="556" y="72"/>
      <point x="528" y="72" type="curve" smooth="yes"/>
      <point x="500" y="72"/>
      <point x="487" y="137"/>
      <point x="487" y="208" type="curve" smooth="yes"/>
      <point x="487" y="277"/>
      <point x="498" y="335"/>
      <point x="523" y="378" type="curve"/>
    </contour>
  </outline>
</glyph>
<glyph name="tml_Nnna" format="1">
  <advance width="940"/>
  <unicode hex="0BA9"/>
  <note>
    tml_Nnna
  </note>
  <outline>
    <contour>
      <point x="548" y="343"/>
      <point x="567" y="286"/>
      <point x="567" y="207" type="curve" smooth="yes"/>
      <point x="567" y="130"/>
      <point x="556" y="72"/>
      <point x="528" y="72" type="curve" smooth="yes"/>
      <point x="499" y="72"/>
      <point x="485" y="137"/>
      <point x="485" y="208" type="curve" smooth="yes"/>
      <point x="485" y="281"/>
      <point x="496" y="340"/>
      <point x="520" y="382" type="curve"/>
    </contour>
    <contour>
      <point x="398" y="388"/>
      <point x="380" y="307"/>
      <point x="380" y="208" type="curve" smooth="yes"/>
      <point x="380" y="53"/>
      <point x="429" y="-24"/>
      <point x="528" y="-24" type="curve" smooth="yes"/>
      <point x="630" y="-24"/>
      <point x="673" y="51"/>
      <point x="673" y="208" type="curve" smooth="yes"/>
      <point x="673" y="312"/>
      <point x="645" y="390"/>
      <point x="602" y="445" type="curve"/>
      <point x="616" y="449"/>
      <point x="631" y="451"/>
      <point x="648" y="451" type="curve" smooth="yes"/>
      <point x="720" y="451" type="line"/>
      <point x="720" y="0" type="line"/>
      <point x="825" y="0" type="line"/>
      <point x="825" y="451" type="line"/>
      <point x="925" y="451" type="line"/>
      <point x="925" y="546" type="line"/>
      <point x="647" y="546" type="line" smooth="yes"/>
      <point x="596" y="546"/>
      <point x="553" y="536"/>
      <point x="517" y="517" type="curve"/>
      <point x="470" y="543"/>
      <point x="417" y="556"/>
      <point x="364" y="556" type="curve"/>
      <point x="364" y="556" type="line"/>
      <point x="361" y="556" type="line"/>
      <point x="342" y="556" type="line" smooth="yes"/>
      <point x="152" y="555"/>
      <point x="40" y="438"/>
      <point x="40" y="239" type="curve" smooth="yes"/>
      <point x="40" y="87"/>
      <point x="101" y="-24"/>
      <point x="203" y="-24" type="curve" smooth="yes"/>
      <point x="298" y="-24"/>
      <point x="355" y="52"/>
      <point x="355" y="170" type="curve" smooth="yes"/>
      <point x="355" y="307"/>
      <point x="277" y="362"/>
      <point x="209" y="362" type="curve" smooth="yes"/>
      <point x="188" y="362"/>
      <point x="171" y="357"/>
      <point x="156" y="349" type="curve"/>
      <point x="183" y="416"/>
      <point x="241" y="461"/>
      <point x="342" y="461" type="curve" smooth="yes"/>
      <point x="361" y="461" type="line" smooth="yes"/>
      <point x="386" y="461"/>
      <point x="412" y="457"/>
      <point x="438" y="446" type="curve"/>
    </contour>
    <contour>
      <point x="139" y="219"/>
      <point x="167" y="264"/>
      <point x="204" y="264" type="curve" smooth="yes"/>
      <point x="230" y="264"/>
      <point x="256" y="232"/>
      <point x="256" y="173" type="curve" smooth="yes"/>
      <point x="256" y="135"/>
      <point x="248" y="72"/>
      <point x="203" y="72" type="curve" smooth="yes"/>
      <point x="174" y="72"/>
      <point x="156" y="104"/>
      <point x="147" y="152" type="curve"/>
    </contour>
  </outline>
</glyph>
<glyph name="tml_Pa" format="1">
  <advance width="448"/>
  <unicode hex="0BAA"/>
  <note>
	tml_Pa
  </note>
  <outline>
    <contour>
      <point x="58" y="0" type="line"/>
      <point x="388" y="0" type="line"/>
      <point x="388" y="545" type="line"/>
      <point x="352" y="545" type="line"/>
      <point x="352" y="34" type="line"/>
      <point x="94" y="34" type="line"/>
      <point x="94" y="545" type="line"/>
      <point x="58" y="545" type="line"/>
    </contour>
  </outline>
</glyph>
<glyph name="tml_Pa" format="1">
  <advance width="511"/>
  <unicode hex="0BAA"/>
  <note>
    tml_Pa
  </note>
  <outline>
    <contour>
      <point x="70" y="0" type="line"/>
      <point x="451" y="0" type="line"/>
      <point x="451" y="543" type="line"/>
      <point x="346" y="543" type="line"/>
      <point x="346" y="100" type="line"/>
      <point x="175" y="100" type="line"/>
      <point x="175" y="543" type="line"/>
      <point x="70" y="543" type="line"/>
    </contour>
  </outline>
</glyph>
<glyph name="tml_Ma" format="1">
  <advance width="624"/>
  <unicode hex="0BAE"/>
  <note>
    tml_Ma
  </note>
  <outline>
    <contour>
      <point x="60" y="0" type="line"/>
      <point x="389" y="0" type="line"/>
      <point x="393" y="0" type="line"/>
      <point x="393" y="0"/>
      <point x="393" y="0"/>
      <point x="393" y="0" type="curve"/>
      <point x="515" y="2"/>
      <point x="574" y="87"/>
      <point x="573" y="271" type="curve" smooth="yes"/>
      <point x="572" y="404"/>
      <point x="519" y="562"/>
      <point x="399" y="561" type="curve" smooth="yes"/>
      <point x="284" y="560"/>
      <point x="250" y="496"/>
      <point x="250" y="382" type="curve" smooth="yes"/>
      <point x="250" y="95" type="line"/>
      <point x="165" y="95" type="line"/>
      <point x="165" y="545" type="line"/>
      <point x="60" y="545" type="line"/>
    </contour>
    <contour>
      <point x="355" y="95" type="line"/>
      <point x="355" y="382" type="line" smooth="yes"/>
      <point x="355" y="433"/>
      <point x="360" y="465"/>
      <point x="400" y="465" type="curve" smooth="yes"/>
      <point x="448" y="465"/>
      <point x="468" y="355"/>
      <point x="468" y="271" type="curve" smooth="yes"/>
      <point x="468" y="172"/>
      <point x="461" y="96"/>
      <point x="374" y="95" type="curve" smooth="yes"/>
      <point x="371" y="95" type="line"/>
    </contour>
  </outline>
</glyph>
<glyph name="tml_Ya" format="1">
  <advance width="684"/>
  <unicode hex="0BAF"/>
  <note>
    tml_Ya
  </note>
  <outline>
    <contour>
      <point x="225" y="-17" type="line"/>
    </contour>
    <contour>
      <point x="61" y="167" type="line" smooth="yes"/>
      <point x="61" y="57"/>
      <point x="94" y="-18"/>
      <point x="225" y="-17" type="curve" smooth="yes"/>
      <point x="254" y="-17"/>
      <point x="282" y="-6"/>
      <point x="306" y="17" type="curve"/>
      <point x="306" y="0" type="line"/>
      <point x="635" y="0" type="line"/>
      <point x="635" y="545" type="line"/>
      <point x="530" y="545" type="line"/>
      <point x="530" y="95" type="line"/>
      <point x="411" y="95" type="line"/>
      <point x="411" y="545" type="line"/>
      <point x="306" y="545" type="line"/>
      <point x="306" y="232" type="line" smooth="yes"/>
      <point x="306" y="138"/>
      <point x="291" y="80"/>
      <point x="224" y="80" type="curve" smooth="yes"/>
      <point x="188" y="80"/>
      <point x="166" y="96"/>
      <point x="166" y="161" type="curve" smooth="yes"/>
      <point x="166" y="545" type="line"/>
      <point x="61" y="545" type="line"/>
    </contour>
  </outline>
</glyph>
<glyph name="tml_Ra" format="1">
  <advance width="485"/>
  <unicode hex="0BB0"/>
  <note>
	tml_Ra
  </note>
  <outline>
    <contour>
      <point x="92" y="-195" type="line"/>
      <point x="115" y="-219" type="line"/>
      <point x="354" y="0" type="line"/>
      <point x="355" y="510" type="line"/>
      <point x="465" y="510" type="line"/>
      <point x="465" y="545" type="line"/>
      <point x="61" y="545" type="line"/>
      <point x="60" y="0" type="line"/>
      <point x="96" y="0" type="line"/>
      <point x="97" y="510" type="line"/>
      <point x="319" y="510" type="line"/>
      <point x="318" y="15" type="line"/>
      <point x="318" y="15" type="line"/>
    </contour>
  </outline>
</glyph>
<glyph name="tml_Ra" format="1">
  <advance width="498"/>
  <unicode hex="0BB0"/>
  <note>
    tml_Ra
  </note>
  <outline>
    <contour>
      <point x="58" y="0" type="line"/>
      <point x="163" y="0" type="line"/>
      <point x="163" y="456" type="line"/>
      <point x="282" y="456" type="line"/>
      <point x="282" y="30" type="line"/>
      <point x="69" y="-170" type="line"/>
      <point x="133" y="-236" type="line"/>
      <point x="388" y="0" type="line"/>
      <point x="387" y="0" type="line"/>
      <point x="387" y="456" type="line"/>
      <point x="487" y="456" type="line"/>
      <point x="487" y="551" type="line"/>
      <point x="58" y="551" type="line"/>
    </contour>
  </outline>
</glyph>
<glyph name="tml_Lla" format="1">
  <advance width="878"/>
  <unicode hex="0BB3"/>
  <note>
    tml_Lla
  </note>
  <outline>
    <contour>
      <point x="54" y="87"/>
      <point x="115" y="-24"/>
      <point x="217" y="-24" type="curve" smooth="yes"/>
      <point x="312" y="-24"/>
      <point x="369" y="52"/>
      <point x="369" y="170" type="curve" smooth="yes"/>
      <point x="369" y="307"/>
      <point x="291" y="362"/>
      <point x="223" y="362" type="curve" smooth="yes"/>
      <point x="199" y="362"/>
      <point x="179" y="355"/>
      <point x="163" y="345" type="curve"/>
      <point x="180" y="417"/>
      <point x="218" y="467"/>
      <point x="278" y="467" type="curve" smooth="yes"/>
      <point x="366" y="467"/>
      <point x="422" y="377"/>
      <point x="424" y="242" type="curve" smooth="yes"/>
      <point x="424" y="0" type="line"/>
      <point x="529" y="0" type="line"/>
      <point x="529" y="450" type="line"/>
      <point x="648" y="450" type="line"/>
      <point x="648" y="0" type="line"/>
      <point x="753" y="0" type="line"/>
      <point x="753" y="450" type="line"/>
      <point x="853" y="450" type="line"/>
      <point x="853" y="545" type="line"/>
      <point x="424" y="545" type="line"/>
      <point x="424" y="490" type="line"/>
      <point x="385" y="536"/>
      <point x="335" y="561"/>
      <point x="278" y="561" type="curve" smooth="yes"/>
      <point x="137" y="560"/>
      <point x="54" y="441"/>
      <point x="54" y="239" type="curve" smooth="yes"/>
    </contour>
    <contour>
      <point x="153" y="219"/>
      <point x="181" y="264"/>
      <point x="218" y="264" type="curve" smooth="yes"/>
      <point x="244" y="264"/>
      <point x="270" y="232"/>
      <point x="270" y="173" type="curve" smooth="yes"/>
      <point x="270" y="135"/>
      <point x="262" y="72"/>
      <point x="217" y="72" type="curve" smooth="yes"/>
      <point x="188" y="72"/>
      <point x="170" y="104"/>
      <point x="161" y="152" type="curve"/>
    </contour>
  </outline>
</glyph>
<glyph name="tml_Ssa" format="1">
  <advance width="1023"/>
  <unicode hex="0BB7"/>
  <note>
    tml_Ssa
  </note>
  <outline>
    <contour>
      <point x="527" y="253"/>
      <point x="603" y="176"/>
      <point x="696" y="155" type="curve"/>
      <point x="696" y="96" type="line"/>
      <point x="486" y="96" type="line"/>
      <point x="498" y="128"/>
      <point x="511" y="181"/>
      <point x="511" y="258" type="curve" smooth="yes"/>
      <point x="511" y="434"/>
      <point x="417" y="555"/>
      <point x="283" y="555" type="curve" smooth="yes"/>
      <point x="130" y="555"/>
      <point x="40" y="437"/>
      <point x="40" y="239" type="curve" smooth="yes"/>
      <point x="40" y="87"/>
      <point x="101" y="-24"/>
      <point x="203" y="-24" type="curve" smooth="yes"/>
      <point x="298" y="-24"/>
      <point x="355" y="52"/>
      <point x="355" y="170" type="curve" smooth="yes"/>
      <point x="355" y="307"/>
      <point x="277" y="362"/>
      <point x="209" y="362" type="curve" smooth="yes"/>
      <point x="186" y="362"/>
      <point x="168" y="356"/>
      <point x="152" y="346" type="curve"/>
      <point x="172" y="415"/>
      <point x="215" y="461"/>
      <point x="283" y="461" type="curve" smooth="yes"/>
      <point x="360" y="461"/>
      <point x="410" y="379"/>
      <point x="410" y="256" type="curve" smooth="yes"/>
      <point x="410" y="167"/>
      <point x="396" y="118"/>
      <point x="379" y="79" type="curve"/>
      <point x="379" y="0" type="line"/>
      <point x="696" y="0" type="line"/>
      <point x="696" y="-152" type="line"/>
      <point x="801" y="-152" type="line"/>
      <point x="801" y="0" type="line"/>
      <point x="973" y="0" type="line"/>
      <point x="973" y="461" type="line"/>
      <point x="868" y="461" type="line"/>
      <point x="868" y="428" type="line" smooth="yes"/>
      <point x="867" y="345"/>
      <point x="860" y="279"/>
      <point x="801" y="257" type="curve"/>
      <point x="801" y="404" type="line" smooth="yes"/>
      <point x="802" y="467"/>
      <point x="782" y="555"/>
      <point x="662" y="555" type="curve" smooth="yes"/>
      <point x="589" y="555"/>
      <point x="521" y="500"/>
      <point x="524" y="399" type="curve" smooth="yes"/>
    </contour>
    <contour>
      <point x="801" y="96" type="line"/>
      <point x="801" y="155" type="line"/>
      <point x="828" y="162"/>
      <point x="850" y="173"/>
      <point x="868" y="187" type="curve"/>
      <point x="868" y="96" type="line"/>
    </contour>
    <contour>
      <point x="696" y="262" type="line"/>
      <point x="639" y="290"/>
      <point x="626" y="360"/>
      <point x="625" y="396" type="curve" smooth="yes"/>
      <point x="624" y="438"/>
      <point x="644" y="460"/>
      <point x="664" y="460" type="curve"/>
      <point x="690" y="461"/>
      <point x="695" y="435"/>
      <point x="696" y="384" type="curve" smooth="yes"/>
    </contour>
    <contour>
      <point x="139" y="219"/>
      <point x="167" y="264"/>
      <point x="204" y="264" type="curve" smooth="yes"/>
      <point x="230" y="264"/>
      <point x="256" y="232"/>
      <point x="256" y="173" type="curve" smooth="yes"/>
      <point x="256" y="135"/>
      <point x="248" y="72"/>
      <point x="203" y="72" type="curve" smooth="yes"/>
      <point x="174" y="72"/>
      <point x="156" y="104"/>
      <point x="147" y="152" type="curve"/>
    </contour>
  </outline>
</glyph>
<glyph name="tml_MatraAa" format="1">
  <advance width="485"/>
  <unicode hex="0BBE"/>
  <note>
	tml_MatraAa
  </note>
  <outline>
    <contour>
      <point x="60" y="0" type="line"/>
      <point x="96" y="0" type="line"/>
      <point x="97" y="510" type="line"/>
      <point x="319" y="510" type="line"/>
      <point x="318" y="0" type="line"/>
      <point x="354" y="0" type="line"/>
      <point x="355" y="510" type="line"/>
      <point x="465" y="510" type="line"/>
      <point x="465" y="545" type="line"/>
      <point x="61" y="545" type="line"/>
    </contour>
  </outline>
</glyph>
<glyph name="tml_MatraAa" format="1">
  <advance width="486"/>
  <unicode hex="0BBE"/>
  <note>
    tml_MatraAa
  </note>
  <outline>
    <contour>
      <point x="50" y="0" type="line"/>
      <point x="155" y="0" type="line"/>
      <point x="155" y="450" type="line"/>
      <point x="274" y="450" type="line"/>
      <point x="274" y="0" type="line"/>
      <point x="379" y="0" type="line"/>
      <point x="379" y="450" type="line"/>
      <point x="479" y="450" type="line"/>
      <point x="479" y="545" type="line"/>
      <point x="50" y="545" type="line"/>
    </contour>
  </outline>
</glyph>
<glyph name="tml_Virama" format="1">
  <advance width="0"/>
  <unicode hex="0BCD"/>
  <note>
    tml_Virama
  </note>
  <outline>
    <contour>
      <point x="-61" y="649"/>
      <point x="-33" y="621"/>
      <point x="0" y="621" type="curve" smooth="yes"/>
      <point x="33" y="621"/>
      <point x="61" y="649"/>
      <point x="61" y="682" type="curve" smooth="yes"/>
      <point x="61" y="715"/>
      <point x="33" y="743"/>
      <point x="0" y="743" type="curve" smooth="yes"/>
      <point x="-33" y="743"/>
      <point x="-61" y="715"/>
      <point x="-61" y="682" type="curve" smooth="yes"/>
    </contour>
  </outline>
</glyph>
<glyph name="tml_Seven" format="1">
  <advance width="516"/>
  <unicode hex="0BED"/>
  <note>
	tml_Seven
  </note>
  <outline>
    <contour>
      <point x="83" y="157" type="line"/>
      <point x="74" y="236"/>
      <point x="109" y="312"/>
      <point x="175" y="312" type="curve" smooth="yes"/>
      <point x="242" y="312"/>
      <point x="268" y="235"/>
      <point x="268" y="170" type="curve" smooth="yes"/>
      <point x="268" y="93"/>
      <point x="245" y="18"/>
      <point x="181" y="18" type="curve" smooth="yes"/>
      <point x="126" y="18"/>
      <point x="95" y="73"/>
      <point x="83" y="157" type="curve"/>
    </contour>
    <contour>
      <point x="85" y="414"/>
      <point x="150" y="510"/>
      <point x="291" y="510" type="curve" smooth="yes"/>
      <point x="420" y="510" type="line"/>
      <point x="419" y="0" type="line"/>
      <point x="455" y="0" type="line"/>
      <point x="456" y="545" type="line"/>
      <point x="292" y="545" type="line"/>
      <point x="284" y="545" type="line"/>
      <point x="284" y="545" type="line"/>
      <point x="117" y="541"/>
      <point x="40" y="416"/>
      <point x="40" y="248" type="curve" smooth="yes"/>
      <point x="40" y="95"/>
      <point x="85" y="-17"/>
      <point x="181" y="-17" type="curve" smooth="yes"/>
      <point x="266" y="-17"/>
      <point x="304" y="65"/>
      <point x="304" y="170" type="curve" smooth="yes"/>
      <point x="304" y="265"/>
      <point x="257" y="347"/>
      <point x="175" y="347" type="curve" smooth="yes"/>
      <point x="133" y="347"/>
      <point x="98" y="322"/>
      <point x="78" y="276" type="curve"/>
    </contour>
  </outline>
</glyph>
<glyph name="tml_Seven" format="1">
  <advance width="606"/>
  <unicode hex="0BED"/>
  <note>
    tml_Seven
  </note>
  <outline>
    <contour>
      <point x="139" y="219"/>
      <point x="167" y="264"/>
      <point x="204" y="264" type="curve" smooth="yes"/>
      <point x="230" y="264"/>
      <point x="256" y="232"/>
      <point x="256" y="173" type="curve" smooth="yes"/>
      <point x="256" y="135"/>
      <point x="248" y="72"/>
      <point x="203" y="72" type="curve" smooth="yes"/>
      <point x="174" y="72"/>
      <point x="156" y="104"/>
      <point x="147" y="152" type="curve"/>
    </contour>
    <contour>
      <point x="184" y="410"/>
      <point x="240" y="450"/>
      <point x="332" y="450" type="curve" smooth="yes"/>
      <point x="431" y="450" type="line"/>
      <point x="431" y="0" type="line"/>
      <point x="536" y="0" type="line"/>
      <point x="536" y="450" type="line"/>
      <point x="536" y="545" type="line"/>
      <point x="332" y="545" type="line"/>
      <point x="328" y="545" type="line"/>
      <point x="328" y="545"/>
      <point x="328" y="545"/>
      <point x="328" y="545" type="curve"/>
      <point x="146" y="542"/>
      <point x="40" y="430"/>
      <point x="40" y="239" type="curve" smooth="yes"/>
      <point x="40" y="87"/>
      <point x="101" y="-24"/>
      <point x="203" y="-24" type="curve" smooth="yes"/>
      <point x="298" y="-24"/>
      <point x="355" y="52"/>
      <point x="355" y="170" type="curve" smooth="yes"/>
      <point x="355" y="307"/>
      <point x="277" y="362"/>
      <point x="209" y="362" type="curve" smooth="yes"/>
      <point x="189" y="362"/>
      <point x="172" y="358"/>
      <point x="158" y="350" type="curve"/>
    </contour>
  </outline>
</glyph>
<glyph name="tml_Day" format="1">
  <advance width="622"/>
  <unicode hex="0BF3"/>
  <note>
    tml_Day
  </note>
  <outline>
    <contour>
      <point x="40" y="87"/>
      <point x="101" y="-24"/>
      <point x="203" y="-24" type="curve" smooth="yes"/>
      <point x="298" y="-24"/>
      <point x="355" y="52"/>
      <point x="355" y="170" type="curve" smooth="yes"/>
      <point x="355" y="307"/>
      <point x="276" y="362"/>
      <point x="208" y="362" type="curve" smooth="yes"/>
      <point x="185" y="362"/>
      <point x="167" y="356"/>
      <point x="151" y="346" type="curve"/>
      <point x="170" y="418"/>
      <point x="214" y="467"/>
      <point x="283" y="467" type="curve" smooth="yes"/>
      <point x="360" y="467"/>
      <point x="410" y="383"/>
      <point x="410" y="256" type="curve" smooth="yes"/>
      <point x="410" y="167"/>
      <point x="396" y="118"/>
      <point x="380" y="79" type="curve"/>
      <point x="381" y="0" type="line"/>
      <point x="597" y="0" type="line"/>
      <point x="597" y="95" type="line"/>
      <point x="487" y="95" type="line"/>
      <point x="499" y="127"/>
      <point x="512" y="180"/>
      <point x="512" y="258" type="curve" smooth="yes"/>
      <point x="512" y="437"/>
      <point x="417" y="562"/>
      <point x="283" y="561" type="curve" smooth="yes"/>
      <point x="130" y="560"/>
      <point x="40" y="441"/>
      <point x="40" y="239" type="curve" smooth="yes"/>
    </contour>
    <contour>
      <point x="139" y="219"/>
      <point x="167" y="264"/>
      <point x="203" y="264" type="curve" smooth="yes"/>
      <point x="229" y="264"/>
      <point x="256" y="232"/>
      <point x="256" y="173" type="curve" smooth="yes"/>
      <point x="256" y="135"/>
      <point x="248" y="72"/>
      <point x="203" y="72" type="curve" smooth="yes"/>
      <point x="174" y="72"/>
      <point x="156" y="104"/>
      <point x="147" y="152" type="curve"/>
    </contour>
  </outline>
</glyph>
<glyph name="si_A" format="1">
  <advance width="576"/>
  <unicode hex="0D85"/>
  <note>
    si_A
  </note>
  <outline>
    <contour>
      <point x="213" y="419" type="line"/>
      <point x="205" y="429"/>
      <point x="201" y="441"/>
      <point x="201" y="453" type="curve" smooth="yes"/>
      <point x="201" y="476"/>
      <point x="217" y="498"/>
      <point x="247" y="498" type="curve" smooth="yes"/>
      <point x="276" y="498"/>
      <point x="297" y="474"/>
      <point x="297" y="436" type="curve" smooth="yes"/>
      <point x="297" y="430"/>
      <point x="297" y="424"/>
      <point x="296" y="418" type="curve"/>
      <point x="278" y="420"/>
      <point x="266" y="421"/>
      <point x="247" y="421" type="curve" smooth="yes"/>
      <point x="235" y="421"/>
      <point x="223" y="420"/>
      <point x="212" y="418" type="curve"/>
    </contour>
    <contour>
      <point x="69" y="352"/>
      <point x="30" y="289"/>
      <point x="30" y="217" type="curve" smooth="yes"/>
      <point x="30" y="97"/>
      <point x="128" y="5"/>
      <point x="247" y="0" type="curve" smooth="yes"/>
      <point x="253" y="-0"/>
      <point x="258" y="-0"/>
      <point x="264" y="-0" type="curve" smooth="yes"/>
      <point x="276" y="-0"/>
      <point x="287" y="0"/>
      <point x="298" y="1" type="curve"/>
      <point x="298" y="-4" type="line"/>
      <point x="298" y="-205" type="line"/>
      <point x="402" y="-205" type="line"/>
      <point x="402" y="27" type="line"/>
      <point x="491" y="67"/>
      <point x="532" y="136"/>
      <point x="546" y="156" type="curve"/>
      <point x="460" y="218" type="line"/>
      <point x="453" y="209"/>
      <point x="435" y="181"/>
      <point x="402" y="157" type="curve"/>
      <point x="402" y="285" type="line"/>
      <point x="517" y="293"/>
      <point x="542" y="344"/>
      <point x="542" y="399" type="curve" smooth="yes"/>
      <point x="542" y="441"/>
      <point x="528" y="486"/>
      <point x="528" y="517" type="curve" smooth="yes"/>
      <point x="528" y="533"/>
      <point x="531" y="545"/>
      <point x="543" y="552" type="curve"/>
      <point x="537" y="561"/>
      <point x="501" y="614"/>
      <point x="501" y="614" type="curve" smooth="yes"/>
      <point x="439" y="614"/>
      <point x="381" y="561"/>
      <point x="361" y="541" type="curve"/>
      <point x="333" y="577"/>
      <point x="291" y="596"/>
      <point x="247" y="596" type="curve" smooth="yes"/>
      <point x="163" y="596"/>
      <point x="107" y="531"/>
      <point x="107" y="461" type="curve" smooth="yes"/>
      <point x="107" y="437"/>
      <point x="113" y="412"/>
      <point x="128" y="388" type="curve"/>
    </contour>
    <contour>
      <point x="296" y="318" type="line"/>
      <point x="297" y="117" type="line"/>
      <point x="288" y="116"/>
      <point x="278" y="115"/>
      <point x="268" y="115" type="curve" smooth="yes"/>
      <point x="261" y="115"/>
      <point x="254" y="115"/>
      <point x="247" y="116" type="curve" smooth="yes"/>
      <point x="190" y="120"/>
      <point x="146" y="161"/>
      <point x="146" y="217" type="curve" smooth="yes"/>
      <point x="146" y="273"/>
      <point x="191" y="318"/>
      <point x="247" y="318" type="curve" smooth="yes"/>
    </contour>
    <contour>
      <point x="403" y="426"/>
      <point x="406" y="464"/>
      <point x="443" y="489" type="curve"/>
      <point x="447" y="471"/>
      <point x="457" y="445"/>
      <point x="457" y="423" type="curve" smooth="yes"/>
      <point x="457" y="398"/>
      <point x="446" y="377"/>
      <point x="402" y="374" type="curve"/>
    </contour>
  </outline>
</glyph>
<glyph name="si_I" format="1">
  <advance width="547"/>
  <unicode hex="0D89"/>
  <note>
    si_I
  </note>
  <outline>
    <contour>
      <point x="141" y="325"/>
      <point x="163" y="348"/>
      <point x="190" y="348" type="curve" smooth="yes"/>
      <point x="217" y="348"/>
      <point x="239" y="325"/>
      <point x="239" y="298" type="curve" smooth="yes"/>
      <point x="239" y="271"/>
      <point x="217" y="249"/>
      <point x="190" y="249" type="curve" smooth="yes"/>
      <point x="163" y="249"/>
      <point x="141" y="271"/>
      <point x="141" y="298" type="curve" smooth="yes"/>
    </contour>
    <contour>
      <point x="301" y="-78"/>
      <point x="277" y="-98"/>
      <point x="246" y="-98" type="curve" smooth="yes"/>
      <point x="225" y="-98"/>
      <point x="201" y="-88"/>
      <point x="180" y="-59" type="curve"/>
      <point x="103" y="-111" type="line"/>
      <point x="145" y="-177"/>
      <point x="203" y="-205"/>
      <point x="258" y="-205" type="curve" smooth="yes"/>
      <point x="337" y="-205"/>
      <point x="408" y="-143"/>
      <point x="408" y="-49" type="curve" smooth="yes"/>
      <point x="408" y="-12"/>
      <point x="392" y="14"/>
      <point x="375" y="32" type="curve"/>
      <point x="476" y="93"/>
      <point x="518" y="216"/>
      <point x="518" y="297" type="curve" smooth="yes"/>
      <point x="518" y="496"/>
      <point x="394" y="594"/>
      <point x="254" y="594" type="curve" smooth="yes"/>
      <point x="113" y="594"/>
      <point x="30" y="476"/>
      <point x="30" y="354" type="curve" smooth="yes"/>
      <point x="30" y="314"/>
      <point x="39" y="274"/>
      <point x="58" y="237" type="curve"/>
      <point x="81" y="186"/>
      <point x="132" y="151"/>
      <point x="192" y="151" type="curve" smooth="yes"/>
      <point x="274" y="151"/>
      <point x="340" y="216"/>
      <point x="340" y="298" type="curve" smooth="yes"/>
      <point x="340" y="336"/>
      <point x="325" y="372"/>
      <point x="301" y="398" type="curve" smooth="yes"/>
      <point x="278" y="423"/>
      <point x="244" y="437"/>
      <point x="211" y="437" type="curve" smooth="yes"/>
      <point x="184" y="437"/>
      <point x="157" y="428"/>
      <point x="138" y="413" type="curve"/>
      <point x="153" y="451"/>
      <point x="190" y="480"/>
      <point x="254" y="480" type="curve" smooth="yes"/>
      <point x="331" y="480"/>
      <point x="403" y="416"/>
      <point x="403" y="297" type="curve" smooth="yes"/>
      <point x="403" y="214"/>
      <point x="341" y="94"/>
      <point x="206" y="94" type="curve" smooth="yes"/>
      <point x="202" y="94"/>
      <point x="197" y="94"/>
      <point x="193" y="94" type="curve"/>
      <point x="178" y="0" type="line"/>
      <point x="198" y="-3"/>
      <point x="218" y="-5"/>
      <point x="236" y="-5" type="curve" smooth="yes"/>
      <point x="255" y="-5"/>
      <point x="273" y="-3"/>
      <point x="291" y="0" type="curve"/>
      <point x="297" y="-11"/>
      <point x="301" y="-27"/>
      <point x="301" y="-49" type="curve" smooth="yes"/>
    </contour>
  </outline>
</glyph>
<glyph name="si_Uu" format="1">
  <advance width="589"/>
  <unicode hex="0D8C"/>
  <note>
    si_Uu
  </note>
  <outline>
    <contour>
      <point x="456" y="320" type="line"/>
      <point x="468" y="359"/>
      <point x="475" y="401"/>
      <point x="475" y="432" type="curve" smooth="yes"/>
      <point x="475" y="541"/>
      <point x="404" y="598"/>
      <point x="327" y="598" type="curve" smooth="yes"/>
      <point x="243" y="598"/>
      <point x="187" y="533"/>
      <point x="187" y="463" type="curve" smooth="yes"/>
      <point x="187" y="442"/>
      <point x="192" y="420"/>
      <point x="203" y="400" type="curve"/>
      <point x="84" y="351"/>
      <point x="30" y="229"/>
      <point x="30" y="106" type="curve" smooth="yes"/>
      <point x="30" y="-49"/>
      <point x="123" y="-205"/>
      <point x="309" y="-205" type="curve" smooth="yes"/>
      <point x="456" y="-205"/>
      <point x="547" y="-108"/>
      <point x="559" y="6" type="curve"/>
      <point x="446" y="22" type="line"/>
      <point x="437" y="-41"/>
      <point x="384" y="-89"/>
      <point x="309" y="-89" type="curve" smooth="yes"/>
      <point x="195" y="-89"/>
      <point x="144" y="0"/>
      <point x="144" y="106" type="curve" smooth="yes"/>
      <point x="144" y="214"/>
      <point x="200" y="320"/>
      <point x="327" y="320" type="curve" smooth="yes"/>
    </contour>
    <contour>
      <point x="285" y="431"/>
      <point x="281" y="443"/>
      <point x="281" y="455" type="curve" smooth="yes"/>
      <point x="281" y="478"/>
      <point x="297" y="500"/>
      <point x="327" y="500" type="curve" smooth="yes"/>
      <point x="356" y="500"/>
      <point x="378" y="476"/>
      <point x="378" y="438" type="curve" smooth="yes"/>
      <point x="378" y="432"/>
      <point x="377" y="426"/>
      <point x="376" y="420" type="curve"/>
      <point x="358" y="422"/>
      <point x="346" y="423"/>
      <point x="327" y="423" type="curve" smooth="yes"/>
      <point x="315" y="423"/>
      <point x="304" y="422"/>
      <point x="293" y="421" type="curve"/>
    </contour>
  </outline>
</glyph>
<glyph name="si_E" format="1">
  <advance width="558"/>
  <unicode hex="0D91"/>
  <note>
    si_E
  </note>
  <outline>
    <contour>
      <point x="174" y="115"/>
      <point x="145" y="167"/>
      <point x="145" y="214" type="curve" smooth="yes"/>
      <point x="145" y="262"/>
      <point x="165" y="306"/>
      <point x="222" y="306" type="curve" smooth="yes"/>
      <point x="329" y="306" type="line"/>
      <point x="333" y="325"/>
      <point x="336" y="351"/>
      <point x="336" y="366" type="curve" smooth="yes"/>
      <point x="336" y="475"/>
      <point x="265" y="532"/>
      <point x="188" y="532" type="curve" smooth="yes"/>
      <point x="114" y="532"/>
      <point x="64" y="481"/>
      <point x="64" y="409" type="curve" smooth="yes"/>
      <point x="64" y="404"/>
      <point x="64" y="398"/>
      <point x="65" y="393" type="curve"/>
      <point x="30" y="393" type="line"/>
      <point x="30" y="306" type="line"/>
      <point x="67" y="306" type="line"/>
      <point x="52" y="286"/>
      <point x="41" y="255"/>
      <point x="37" y="223" type="curve" smooth="yes"/>
      <point x="36" y="216"/>
      <point x="36" y="209"/>
      <point x="36" y="201" type="curve" smooth="yes"/>
      <point x="36" y="113"/>
      <point x="91" y="0"/>
      <point x="255" y="0" type="curve" smooth="yes"/>
      <point x="435" y="0"/>
      <point x="529" y="104"/>
      <point x="529" y="340" type="curve" smooth="yes"/>
      <point x="529" y="556"/>
      <point x="466" y="728"/>
      <point x="328" y="819" type="curve"/>
      <point x="256" y="735" type="line"/>
      <point x="268" y="726"/>
      <point x="272" y="719"/>
      <point x="272" y="712" type="curve" smooth="yes"/>
      <point x="272" y="690"/>
      <point x="231" y="669"/>
      <point x="231" y="613" type="curve" smooth="yes"/>
      <point x="231" y="527"/>
      <point x="328" y="466"/>
      <point x="406" y="463" type="curve"/>
      <point x="411" y="424"/>
      <point x="414" y="383"/>
      <point x="414" y="340" type="curve" smooth="yes"/>
      <point x="414" y="181"/>
      <point x="359" y="115"/>
      <point x="255" y="115" type="curve" smooth="yes"/>
    </contour>
    <contour>
      <point x="156" y="392" type="line"/>
      <point x="155" y="396"/>
      <point x="154" y="400"/>
      <point x="154" y="405" type="curve" smooth="yes"/>
      <point x="154" y="426"/>
      <point x="163" y="444"/>
      <point x="188" y="444" type="curve" smooth="yes"/>
      <point x="222" y="444"/>
      <point x="238" y="419"/>
      <point x="240" y="391" type="curve"/>
    </contour>
    <contour>
      <point x="358" y="625"/>
      <point x="373" y="594"/>
      <point x="384" y="560" type="curve"/>
      <point x="338" y="565"/>
      <point x="318" y="592"/>
      <point x="318" y="616" type="curve" smooth="yes"/>
      <point x="318" y="631"/>
      <point x="326" y="645"/>
      <point x="340" y="653" type="curve"/>
    </contour>
  </outline>
</glyph>
<glyph name="si_Ka" format="1">
  <advance width="770"/>
  <unicode hex="0D9A"/>
  <note>
    si_Ka
  </note>
  <outline>
    <contour>
      <point x="77" y="435"/>
      <point x="86" y="374"/>
      <point x="151" y="326" type="curve"/>
      <point x="112" y="285"/>
      <point x="83" y="256"/>
      <point x="30" y="202" type="curve"/>
      <point x="78" y="115" type="line"/>
      <point x="79" y="116"/>
      <point x="85" y="122"/>
      <point x="95" y="132" type="curve"/>
      <point x="94" y="127"/>
      <point x="93" y="119"/>
      <point x="93" y="110" type="curve" smooth="yes"/>
      <point x="93" y="67"/>
      <point x="113" y="0"/>
      <point x="204" y="0" type="curve" smooth="yes"/>
      <point x="276" y="0"/>
      <point x="286" y="79"/>
      <point x="286" y="79" type="curve" smooth="yes"/>
      <point x="286" y="79"/>
      <point x="295" y="0"/>
      <point x="376" y="0" type="curve" smooth="yes"/>
      <point x="409" y="0"/>
      <point x="435" y="11"/>
      <point x="456" y="28" type="curve"/>
      <point x="477" y="12"/>
      <point x="506" y="0"/>
      <point x="543" y="0" type="curve" smooth="yes"/>
      <point x="647" y="0"/>
      <point x="740" y="56"/>
      <point x="740" y="279" type="curve" smooth="yes"/>
      <point x="740" y="513"/>
      <point x="603" y="594"/>
      <point x="496" y="594" type="curve" smooth="yes"/>
      <point x="422" y="594"/>
      <point x="367" y="561"/>
      <point x="322" y="519" type="curve"/>
      <point x="294" y="561"/>
      <point x="247" y="583"/>
      <point x="199" y="583" type="curve" smooth="yes"/>
      <point x="118" y="583"/>
      <point x="77" y="531"/>
      <point x="77" y="462" type="curve" smooth="yes"/>
    </contour>
    <contour>
      <point x="181" y="408"/>
      <point x="164" y="430"/>
      <point x="164" y="456" type="curve" smooth="yes"/>
      <point x="164" y="480"/>
      <point x="179" y="494"/>
      <point x="205" y="494" type="curve"/>
      <point x="218" y="481"/>
      <point x="254" y="476"/>
      <point x="257" y="445" type="curve"/>
      <point x="241" y="427"/>
      <point x="223" y="407"/>
      <point x="209" y="390" type="curve"/>
    </contour>
    <contour>
      <point x="312" y="356"/>
      <point x="314" y="356"/>
      <point x="315" y="356" type="curve" smooth="yes"/>
      <point x="363" y="356"/>
      <point x="416" y="315"/>
      <point x="416" y="210" type="curve" smooth="yes"/>
      <point x="416" y="166"/>
      <point x="409" y="109"/>
      <point x="376" y="109" type="curve" smooth="yes"/>
      <point x="347" y="109"/>
      <point x="331" y="145"/>
      <point x="331" y="227" type="curve"/>
      <point x="242" y="227" type="line"/>
      <point x="242" y="142"/>
      <point x="233" y="109"/>
      <point x="207" y="109" type="curve" smooth="yes"/>
      <point x="184" y="109"/>
      <point x="177" y="139"/>
      <point x="177" y="156" type="curve" smooth="yes"/>
      <point x="177" y="185"/>
      <point x="179" y="214"/>
      <point x="193" y="235" type="curve"/>
      <point x="233" y="276"/>
      <point x="276" y="321"/>
      <point x="311" y="356" type="curve"/>
    </contour>
    <contour>
      <point x="196" y="238" type="line"/>
      <point x="199" y="242"/>
      <point x="203" y="246"/>
      <point x="207" y="249" type="curve"/>
    </contour>
    <contour>
      <point x="519" y="147"/>
      <point x="523" y="179"/>
      <point x="523" y="210" type="curve" smooth="yes"/>
      <point x="523" y="388"/>
      <point x="433" y="430"/>
      <point x="387" y="434" type="curve"/>
      <point x="430" y="475"/>
      <point x="466" y="482"/>
      <point x="496" y="482" type="curve" smooth="yes"/>
      <point x="546" y="482"/>
      <point x="629" y="427"/>
      <point x="629" y="279" type="curve" smooth="yes"/>
      <point x="629" y="137"/>
      <point x="586" y="108"/>
      <point x="543" y="108" type="curve" smooth="yes"/>
      <point x="529" y="108"/>
      <point x="518" y="112"/>
      <point x="510" y="117" type="curve"/>
    </contour>
  </outline>
</glyph>
<glyph name="si_Ga" format="1">
  <advance width="673"/>
  <unicode hex="0D9C"/>
  <note>
    si_Ga
  </note>
  <outline>
    <contour>
      <point x="546" y="0"/>
      <point x="644" y="63"/>
      <point x="644" y="297" type="curve" smooth="yes"/>
      <point x="644" y="531"/>
      <point x="546" y="594"/>
      <point x="439" y="594" type="curve" smooth="yes"/>
      <point x="399" y="594"/>
      <point x="358" y="577"/>
      <point x="326" y="545" type="curve"/>
      <point x="306" y="571"/>
      <point x="270" y="594"/>
      <point x="218" y="594" type="curve" smooth="yes"/>
      <point x="114" y="594"/>
      <point x="30" y="520"/>
      <point x="30" y="297" type="curve" smooth="yes"/>
      <point x="30" y="63"/>
      <point x="128" y="0"/>
      <point x="235" y="0" type="curve" smooth="yes"/>
      <point x="281" y="0"/>
      <point x="317" y="13"/>
      <point x="345" y="34" type="curve"/>
      <point x="367" y="15"/>
      <point x="398" y="0"/>
      <point x="439" y="0" type="curve" smooth="yes"/>
    </contour>
    <contour>
      <point x="185" y="110"/>
      <point x="140" y="149"/>
      <point x="140" y="297" type="curve" smooth="yes"/>
      <point x="140" y="439"/>
      <point x="175" y="486"/>
      <point x="218" y="486" type="curve" smooth="yes"/>
      <point x="254" y="486"/>
      <point x="271" y="461"/>
      <point x="277" y="443" type="curve"/>
      <point x="275" y="430"/>
      <point x="274" y="416"/>
      <point x="274" y="401" type="curve" smooth="yes"/>
      <point x="274" y="369"/>
      <point x="270" y="344"/>
      <point x="218" y="311" type="curve"/>
      <point x="271" y="220" type="line"/>
      <point x="282" y="226"/>
      <point x="293" y="234"/>
      <point x="303" y="241" type="curve"/>
      <point x="311" y="230"/>
      <point x="316" y="216"/>
      <point x="316" y="199" type="curve" smooth="yes"/>
      <point x="316" y="155"/>
      <point x="296" y="110"/>
      <point x="235" y="110" type="curve" smooth="yes"/>
    </contour>
    <contour>
      <point x="374" y="337"/>
      <point x="376" y="350"/>
      <point x="376" y="362" type="curve" smooth="yes"/>
      <point x="376" y="438"/>
      <point x="392" y="484"/>
      <point x="439" y="484" type="curve" smooth="yes"/>
      <point x="489" y="484"/>
      <point x="534" y="445"/>
      <point x="534" y="297" type="curve" smooth="yes"/>
      <point x="534" y="147"/>
      <point x="489" y="108"/>
      <point x="439" y="108" type="curve" smooth="yes"/>
      <point x="425" y="108"/>
      <point x="414" y="112"/>
      <point x="405" y="117" type="curve"/>
      <point x="415" y="144"/>
      <point x="419" y="172"/>
      <point x="419" y="199" type="curve" smooth="yes"/>
      <point x="419" y="242"/>
      <point x="406" y="294"/>
      <point x="370" y="326" type="curve"/>
    </contour>
  </outline>
</glyph>
<glyph name="si_Tta" format="1">
  <advance width="538"/>
  <unicode hex="0DA7"/>
  <note>
    si_Tta
  </note>
  <outline>
    <contour>
      <point x="166" y="755"/>
      <point x="81" y="708"/>
      <point x="45" y="613" type="curve"/>
      <point x="154" y="577" type="line"/>
      <point x="171" y="619"/>
      <point x="212" y="640"/>
      <point x="253" y="640" type="curve" smooth="yes"/>
      <point x="350" y="640"/>
      <point x="393" y="551"/>
      <point x="393" y="377" type="curve" smooth="yes"/>
      <point x="393" y="170"/>
      <point x="333" y="115"/>
      <point x="260" y="115" type="curve" smooth="yes"/>
      <point x="167" y="115"/>
      <point x="140" y="189"/>
      <point x="140" y="252" type="curve" smooth="yes"/>
      <point x="140" y="310"/>
      <point x="164" y="357"/>
      <point x="204" y="357" type="curve" smooth="yes"/>
      <point x="216" y="357"/>
      <point x="228" y="353"/>
      <point x="242" y="345" type="curve"/>
      <point x="280" y="445" type="line"/>
      <point x="252" y="465"/>
      <point x="223" y="474"/>
      <point x="195" y="474" type="curve" smooth="yes"/>
      <point x="106" y="474"/>
      <point x="30" y="381"/>
      <point x="30" y="252" type="curve" smooth="yes"/>
      <point x="30" y="136"/>
      <point x="82" y="0"/>
      <point x="260" y="0" type="curve" smooth="yes"/>
      <point x="396" y="0"/>
      <point x="508" y="79"/>
      <point x="508" y="377" type="curve" smooth="yes"/>
      <point x="508" y="627"/>
      <point x="422" y="755"/>
      <point x="253" y="755" type="curve" smooth="yes"/>
    </contour>
  </outline>
</glyph>
<glyph name="si_Ddha" format="1">
  <advance width="590"/>
  <unicode hex="0DAA"/>
  <note>
    si_Ddha
  </note>
  <outline>
    <contour>
      <point x="560" y="410"/>
      <point x="542" y="515"/>
      <point x="518" y="588" type="curve" smooth="yes"/>
      <point x="486" y="686"/>
      <point x="431" y="765"/>
      <point x="352" y="817" type="curve"/>
      <point x="280" y="733" type="line"/>
      <point x="292" y="724"/>
      <point x="296" y="717"/>
      <point x="296" y="710" type="curve" smooth="yes"/>
      <point x="296" y="688"/>
      <point x="255" y="667"/>
      <point x="255" y="611" type="curve" smooth="yes"/>
      <point x="255" y="525"/>
      <point x="353" y="463"/>
      <point x="431" y="461" type="curve"/>
      <point x="439" y="409"/>
      <point x="445" y="350"/>
      <point x="445" y="293" type="curve" smooth="yes"/>
      <point x="445" y="240"/>
      <point x="445" y="115"/>
      <point x="397" y="115" type="curve" smooth="yes"/>
      <point x="354" y="115"/>
      <point x="339" y="177"/>
      <point x="339" y="250" type="curve"/>
      <point x="243" y="250" type="line"/>
      <point x="243" y="177"/>
      <point x="227" y="115"/>
      <point x="180" y="115" type="curve" smooth="yes"/>
      <point x="150" y="115"/>
      <point x="143" y="157"/>
      <point x="143" y="193" type="curve" smooth="yes"/>
      <point x="143" y="245"/>
      <point x="162" y="304"/>
      <point x="203" y="304" type="curve" smooth="yes"/>
      <point x="353" y="304" type="line"/>
      <point x="357" y="323"/>
      <point x="360" y="349"/>
      <point x="360" y="364" type="curve" smooth="yes"/>
      <point x="360" y="473"/>
      <point x="289" y="530"/>
      <point x="212" y="530" type="curve" smooth="yes"/>
      <point x="138" y="530"/>
      <point x="86" y="484"/>
      <point x="86" y="412" type="curve" smooth="yes"/>
      <point x="86" y="405"/>
      <point x="87" y="398"/>
      <point x="88" y="390" type="curve"/>
      <point x="30" y="391" type="line"/>
      <point x="30" y="306" type="line"/>
      <point x="61" y="306" type="line"/>
      <point x="47" y="280"/>
      <point x="36" y="234"/>
      <point x="36" y="193" type="curve" smooth="yes"/>
      <point x="36" y="105"/>
      <point x="64" y="0"/>
      <point x="180" y="0" type="curve" smooth="yes"/>
      <point x="233" y="0"/>
      <point x="272" y="32"/>
      <point x="288" y="79" type="curve"/>
      <point x="303" y="33"/>
      <point x="341" y="0"/>
      <point x="397" y="0" type="curve" smooth="yes"/>
      <point x="555" y="0"/>
      <point x="560" y="182"/>
      <point x="560" y="293" type="curve" smooth="yes"/>
    </contour>
    <contour>
      <point x="383" y="623"/>
      <point x="397" y="592"/>
      <point x="408" y="558" type="curve"/>
      <point x="362" y="563"/>
      <point x="342" y="590"/>
      <point x="342" y="614" type="curve" smooth="yes"/>
      <point x="342" y="629"/>
      <point x="350" y="643"/>
      <point x="365" y="651" type="curve"/>
    </contour>
    <contour>
      <point x="180" y="389" type="line"/>
      <point x="179" y="394"/>
      <point x="178" y="399"/>
      <point x="178" y="403" type="curve" smooth="yes"/>
      <point x="178" y="424"/>
      <point x="187" y="442"/>
      <point x="212" y="442" type="curve" smooth="yes"/>
      <point x="246" y="442"/>
      <point x="263" y="416"/>
      <point x="264" y="389" type="curve"/>
    </contour>
  </outline>
</glyph>
<glyph name="si_Nna" format="1">
  <advance width="958"/>
  <unicode hex="0DAB"/>
  <note>
    si_Nna
  </note>
  <outline>
    <contour>
      <point x="184" y="325"/>
      <point x="206" y="348"/>
      <point x="233" y="348" type="curve" smooth="yes"/>
      <point x="260" y="348"/>
      <point x="283" y="325"/>
      <point x="283" y="298" type="curve" smooth="yes"/>
      <point x="283" y="271"/>
      <point x="260" y="249"/>
      <point x="233" y="249" type="curve" smooth="yes"/>
      <point x="206" y="249"/>
      <point x="184" y="271"/>
      <point x="184" y="298" type="curve" smooth="yes"/>
    </contour>
    <contour>
      <point x="808" y="437"/>
      <point x="814" y="351"/>
      <point x="814" y="290" type="curve" smooth="yes"/>
      <point x="814" y="221"/>
      <point x="810" y="110"/>
      <point x="726" y="110" type="curve" smooth="yes"/>
      <point x="665" y="110"/>
      <point x="654" y="141"/>
      <point x="643" y="168" type="curve"/>
      <point x="547" y="134" type="line"/>
      <point x="559" y="48"/>
      <point x="641" y="0"/>
      <point x="726" y="0" type="curve" smooth="yes"/>
      <point x="921" y="0"/>
      <point x="929" y="179"/>
      <point x="929" y="290" type="curve" smooth="yes"/>
      <point x="929" y="399"/>
      <point x="908" y="551"/>
      <point x="772" y="551" type="curve" smooth="yes"/>
      <point x="735" y="551"/>
      <point x="706" y="533"/>
      <point x="689" y="508" type="curve"/>
      <point x="675" y="529"/>
      <point x="646" y="551"/>
      <point x="605" y="551" type="curve" smooth="yes"/>
      <point x="559" y="551"/>
      <point x="525" y="530"/>
      <point x="503" y="495" type="curve"/>
      <point x="489" y="514"/>
      <point x="472" y="531"/>
      <point x="454" y="544" type="curve"/>
      <point x="540" y="677" type="line"/>
      <point x="453" y="732" type="line"/>
      <point x="359" y="587" type="line"/>
      <point x="339" y="592"/>
      <point x="318" y="594"/>
      <point x="297" y="594" type="curve" smooth="yes"/>
      <point x="156" y="594"/>
      <point x="73" y="476"/>
      <point x="73" y="354" type="curve" smooth="yes"/>
      <point x="73" y="313"/>
      <point x="83" y="271"/>
      <point x="103" y="233" type="curve" smooth="yes"/>
      <point x="108" y="224"/>
      <point x="113" y="215"/>
      <point x="120" y="207" type="curve"/>
      <point x="30" y="72" type="line"/>
      <point x="112" y="22" type="line"/>
      <point x="130" y="36"/>
      <point x="145" y="41"/>
      <point x="158" y="41" type="curve" smooth="yes"/>
      <point x="196" y="41"/>
      <point x="227" y="0"/>
      <point x="311" y="0" type="curve" smooth="yes"/>
      <point x="501" y="0"/>
      <point x="555" y="165"/>
      <point x="560" y="277" type="curve"/>
      <point x="567" y="333"/>
      <point x="559" y="437"/>
      <point x="605" y="437" type="curve" smooth="yes"/>
      <point x="629" y="437"/>
      <point x="642" y="416"/>
      <point x="642" y="362" type="curve" smooth="yes"/>
      <point x="642" y="269" type="line"/>
      <point x="735" y="269" type="line"/>
      <point x="735" y="362" type="line" smooth="yes"/>
      <point x="735" y="416"/>
      <point x="748" y="437"/>
      <point x="772" y="437" type="curve" smooth="yes"/>
    </contour>
    <contour>
      <point x="196" y="451"/>
      <point x="233" y="480"/>
      <point x="297" y="480" type="curve" smooth="yes"/>
      <point x="374" y="480"/>
      <point x="446" y="416"/>
      <point x="446" y="297" type="curve" smooth="yes"/>
      <point x="446" y="178"/>
      <point x="378" y="112"/>
      <point x="284" y="112" type="curve" smooth="yes"/>
      <point x="240" y="112"/>
      <point x="213" y="134"/>
      <point x="190" y="133" type="curve"/>
      <point x="205" y="154" type="line"/>
      <point x="215" y="152"/>
      <point x="225" y="151"/>
      <point x="236" y="151" type="curve" smooth="yes"/>
      <point x="318" y="151"/>
      <point x="383" y="216"/>
      <point x="383" y="298" type="curve" smooth="yes"/>
      <point x="383" y="336"/>
      <point x="369" y="372"/>
      <point x="345" y="398" type="curve" smooth="yes"/>
      <point x="322" y="423"/>
      <point x="287" y="437"/>
      <point x="254" y="437" type="curve" smooth="yes"/>
      <point x="227" y="437"/>
      <point x="200" y="428"/>
      <point x="181" y="413" type="curve"/>
    </contour>
  </outline>
</glyph>
<glyph name="si_Da" format="1">
  <advance width="419"/>
  <unicode hex="0DAF"/>
  <note>
	si_Da
  </note>
  <outline>
    <contour>
      <point x="62" y="338"/>
      <point x="151" y="374"/>
      <point x="227" y="374" type="curve" smooth="yes"/>
      <point x="284" y="374"/>
      <point x="343" y="355"/>
      <point x="343" y="355" type="curve" smooth="yes"/>
      <point x="343" y="355"/>
      <point x="353" y="389"/>
      <point x="353" y="417" type="curve" smooth="yes"/>
      <point x="353" y="528"/>
      <point x="293" y="584"/>
      <point x="224" y="584" type="curve" smooth="yes"/>
      <point x="150" y="584"/>
      <point x="117" y="522"/>
      <point x="117" y="473" type="curve" smooth="yes"/>
      <point x="117" y="432"/>
      <point x="131" y="403"/>
      <point x="139" y="390" type="curve"/>
      <point x="67" y="364"/>
      <point x="30" y="304"/>
      <point x="30" y="225" type="curve" smooth="yes"/>
      <point x="30" y="130"/>
      <point x="73" y="46"/>
      <point x="179" y="22" type="curve"/>
      <point x="170" y="12"/>
      <point x="147" y="-18"/>
      <point x="147" y="-69" type="curve" smooth="yes"/>
      <point x="147" y="-144"/>
      <point x="199" y="-211"/>
      <point x="285" y="-211" type="curve" smooth="yes"/>
      <point x="345" y="-211"/>
      <point x="390" y="-183"/>
      <point x="438" y="-112" type="curve"/>
      <point x="414" y="-95" type="line"/>
      <point x="393" y="-134"/>
      <point x="356" y="-180"/>
      <point x="284" y="-180" type="curve" smooth="yes"/>
      <point x="213" y="-180"/>
      <point x="179" y="-119"/>
      <point x="179" y="-70" type="curve" smooth="yes"/>
      <point x="179" y="-21"/>
      <point x="202" y="8"/>
      <point x="211" y="17" type="curve"/>
      <point x="222" y="16"/>
      <point x="233" y="15"/>
      <point x="245" y="15" type="curve" smooth="yes"/>
      <point x="307" y="15"/>
      <point x="356" y="39"/>
      <point x="356" y="39" type="curve"/>
      <point x="346" y="66" type="line"/>
      <point x="324" y="56"/>
      <point x="282" y="45"/>
      <point x="248" y="45" type="curve" smooth="yes"/>
      <point x="210" y="45"/>
      <point x="62" y="54"/>
      <point x="62" y="224" type="curve" smooth="yes"/>
    </contour>
    <contour>
      <point x="165" y="405"/>
      <point x="149" y="438"/>
      <point x="149" y="473" type="curve" smooth="yes"/>
      <point x="149" y="505"/>
      <point x="165" y="554"/>
      <point x="224" y="554" type="curve" smooth="yes"/>
      <point x="299" y="554"/>
      <point x="321" y="462"/>
      <point x="321" y="417" type="curve" smooth="yes"/>
      <point x="321" y="411"/>
      <point x="320" y="400"/>
      <point x="319" y="392" type="curve"/>
      <point x="319" y="392"/>
      <point x="279" y="404"/>
      <point x="228" y="404" type="curve" smooth="yes"/>
      <point x="206" y="404"/>
      <point x="187" y="402"/>
      <point x="168" y="398" type="curve"/>
    </contour>
  </outline>
</glyph>
<glyph name="si_Ma" format="1">
  <advance width="549"/>
  <unicode hex="0DB8"/>
  <note>
    si_Ma
  </note>
  <outline>
    <contour>
      <point x="520" y="442"/>
      <point x="513" y="559"/>
      <point x="461" y="646" type="curve" smooth="yes"/>
      <point x="417" y="720"/>
      <point x="340" y="756"/>
      <point x="263" y="756" type="curve" smooth="yes"/>
      <point x="175" y="756"/>
      <point x="88" y="707"/>
      <point x="56" y="613" type="curve"/>
      <point x="162" y="575" type="line"/>
      <point x="179" y="617"/>
      <point x="221" y="638"/>
      <point x="263" y="638" type="curve" smooth="yes"/>
      <point x="301" y="638"/>
      <point x="339" y="622"/>
      <point x="362" y="590" type="curve" smooth="yes"/>
      <point x="397" y="540"/>
      <point x="413" y="459"/>
      <point x="413" y="377" type="curve" smooth="yes"/>
      <point x="413" y="244"/>
      <point x="388" y="115"/>
      <point x="271" y="115" type="curve" smooth="yes"/>
      <point x="163" y="115"/>
      <point x="131" y="223"/>
      <point x="131" y="301" type="curve" smooth="yes"/>
      <point x="131" y="382"/>
      <point x="139" y="433"/>
      <point x="159" y="433" type="curve" smooth="yes"/>
      <point x="169" y="433"/>
      <point x="172" y="428"/>
      <point x="172" y="418" type="curve" smooth="yes"/>
      <point x="172" y="401"/>
      <point x="162" y="371"/>
      <point x="162" y="333" type="curve" smooth="yes"/>
      <point x="162" y="272"/>
      <point x="193" y="221"/>
      <point x="267" y="221" type="curve" smooth="yes"/>
      <point x="370" y="221"/>
      <point x="371" y="300"/>
      <point x="371" y="383" type="curve" smooth="yes"/>
      <point x="371" y="466"/>
      <point x="351" y="527"/>
      <point x="270" y="527" type="curve" smooth="yes"/>
      <point x="248" y="527"/>
      <point x="229" y="521"/>
      <point x="214" y="509" type="curve"/>
      <point x="198" y="522"/>
      <point x="178" y="527"/>
      <point x="154" y="527" type="curve" smooth="yes"/>
      <point x="50" y="527"/>
      <point x="30" y="411"/>
      <point x="30" y="296" type="curve" smooth="yes"/>
      <point x="30" y="127"/>
      <point x="119" y="0"/>
      <point x="271" y="0" type="curve" smooth="yes"/>
      <point x="480" y="0"/>
      <point x="520" y="204"/>
      <point x="520" y="377" type="curve" smooth="yes"/>
    </contour>
    <contour>
      <point x="252" y="443"/>
      <point x="258" y="444"/>
      <point x="264" y="444" type="curve" smooth="yes"/>
      <point x="285" y="444"/>
      <point x="291" y="404"/>
      <point x="291" y="382" type="curve" smooth="yes"/>
      <point x="291" y="350"/>
      <point x="286" y="309"/>
      <point x="266" y="309" type="curve" smooth="yes"/>
      <point x="251" y="309"/>
      <point x="238" y="322"/>
      <point x="238" y="344" type="curve" smooth="yes"/>
      <point x="238" y="365"/>
      <point x="250" y="385"/>
      <point x="250" y="408" type="curve" smooth="yes"/>
      <point x="250" y="421"/>
      <point x="249" y="431"/>
      <point x="247" y="441" type="curve"/>
    </contour>
  </outline>
</glyph>
<glyph name="si_Ya" format="1">
  <advance width="586"/>
  <unicode hex="0DBA"/>
  <note>
    si_Ya
  </note>
  <outline>
    <contour>
      <point x="397" y="320" type="line" smooth="yes"/>
      <point x="438" y="320"/>
      <point x="458" y="269"/>
      <point x="458" y="218" type="curve" smooth="yes"/>
      <point x="458" y="170"/>
      <point x="439" y="122"/>
      <point x="404" y="122" type="curve" smooth="yes"/>
      <point x="361" y="122"/>
      <point x="348" y="177"/>
      <point x="348" y="250" type="curve"/>
      <point x="252" y="250" type="line"/>
      <point x="252" y="177"/>
      <point x="240" y="122"/>
      <point x="193" y="122" type="curve" smooth="yes"/>
      <point x="143" y="122"/>
      <point x="131" y="229"/>
      <point x="131" y="283" type="curve" smooth="yes"/>
      <point x="131" y="367"/>
      <point x="157" y="441"/>
      <point x="212" y="441" type="curve"/>
      <point x="214" y="549" type="line"/>
      <point x="90" y="549"/>
      <point x="30" y="418"/>
      <point x="30" y="269" type="curve" smooth="yes"/>
      <point x="30" y="147"/>
      <point x="69" y="0"/>
      <point x="185" y="0" type="curve" smooth="yes"/>
      <point x="238" y="0"/>
      <point x="281" y="32"/>
      <point x="297" y="79" type="curve"/>
      <point x="312" y="33"/>
      <point x="352" y="0"/>
      <point x="408" y="0" type="curve" smooth="yes"/>
      <point x="510" y="0"/>
      <point x="556" y="104"/>
      <point x="556" y="209" type="curve" smooth="yes"/>
      <point x="556" y="256"/>
      <point x="547" y="303"/>
      <point x="529" y="342" type="curve" smooth="yes"/>
      <point x="522" y="357"/>
      <point x="514" y="369"/>
      <point x="505" y="379" type="curve"/>
      <point x="523" y="411"/>
      <point x="532" y="442"/>
      <point x="532" y="470" type="curve" smooth="yes"/>
      <point x="532" y="542"/>
      <point x="478" y="594"/>
      <point x="405" y="594" type="curve" smooth="yes"/>
      <point x="309" y="594"/>
      <point x="252" y="527"/>
      <point x="252" y="414" type="curve" smooth="yes"/>
      <point x="252" y="386"/>
      <point x="255" y="354"/>
      <point x="263" y="320" type="curve"/>
    </contour>
    <contour>
      <point x="418" y="416"/>
      <point x="402" y="417"/>
      <point x="383" y="417" type="curve" smooth="yes"/>
      <point x="372" y="417"/>
      <point x="360" y="417"/>
      <point x="348" y="416" type="curve"/>
      <point x="347" y="424"/>
      <point x="346" y="432"/>
      <point x="346" y="439" type="curve" smooth="yes"/>
      <point x="346" y="489"/>
      <point x="378" y="501"/>
      <point x="401" y="501" type="curve" smooth="yes"/>
      <point x="427" y="501"/>
      <point x="444" y="482"/>
      <point x="444" y="455" type="curve" smooth="yes"/>
      <point x="444" y="442"/>
      <point x="441" y="428"/>
      <point x="433" y="413" type="curve"/>
    </contour>
  </outline>
</glyph>
